solid OpenSCAD_Model
  facet normal -0 0 1
    outer loop
      vertex -15.4134 -8.8806 10
      vertex -14 -10.0365 10
      vertex -14 -8.59946 10
    endloop
  endfacet
  facet normal 0 0 1
    outer loop
      vertex -15.4134 -8.8806 10
      vertex -15.792 -10.8549 10
      vertex -14 -10.0365 10
    endloop
  endfacet
  facet normal -0 0 1
    outer loop
      vertex -17.0355 -9.96447 10
      vertex -15.792 -10.8549 10
      vertex -15.4134 -8.8806 10
    endloop
  endfacet
  facet normal 0 0 1
    outer loop
      vertex -15.792 -10.8549 10
      vertex -18.1194 -11.5866 10
      vertex -16.8582 -12.5139 10
    endloop
  endfacet
  facet normal 0 0 1
    outer loop
      vertex -18.1194 -11.5866 10
      vertex -15.792 -10.8549 10
      vertex -17.0355 -9.96447 10
    endloop
  endfacet
  facet normal 0 0 1
    outer loop
      vertex 2.9 -7.3 10
      vertex -2.9 -7.3 10
      vertex 2.9 -10.1 10
    endloop
  endfacet
  facet normal 0 0 1
    outer loop
      vertex 10.1 -10.1 10
      vertex 12.5 -10 10
      vertex 10.1 -10 10
    endloop
  endfacet
  facet normal 0 0 1
    outer loop
      vertex 12.5 -10 10
      vertex 10.1 -10.1 10
      vertex 12.5 -12.5 10
    endloop
  endfacet
  facet normal -0 0 1
    outer loop
      vertex 2.9 -10.1 10
      vertex 12.5 -12.5 10
      vertex 10.1 -10.1 10
    endloop
  endfacet
  facet normal 0 0 1
    outer loop
      vertex -2.9 -10.1 10
      vertex 2.9 -10.1 10
      vertex -2.9 -7.3 10
    endloop
  endfacet
  facet normal 0 0 1
    outer loop
      vertex -8.69891 -12.5 10
      vertex 2.9 -10.1 10
      vertex -2.9 -10.1 10
    endloop
  endfacet
  facet normal 0 0 1
    outer loop
      vertex 2.9 -10.1 10
      vertex -8.69891 -12.5 10
      vertex 12.5 -12.5 10
    endloop
  endfacet
  facet normal -0 0 1
    outer loop
      vertex -9.87391 -10.1 10
      vertex -8.69891 -12.5 10
      vertex -2.9 -10.1 10
    endloop
  endfacet
  facet normal 0 0 1
    outer loop
      vertex -10.2936 -12.5 10
      vertex -8.69891 -12.5 10
      vertex -9.87391 -10.1 10
    endloop
  endfacet
  facet normal 0 0 1
    outer loop
      vertex -10.1 -9.87391 10
      vertex -9.87391 -10.1 10
      vertex -9.96447 -9.96447 10
    endloop
  endfacet
  facet normal 0 0 1
    outer loop
      vertex -8.69891 -12.5 10
      vertex -10 -13.5 10
      vertex -8.8806 -15.4134 10
    endloop
  endfacet
  facet normal -0 0 1
    outer loop
      vertex -10.5556 -15.3922 10
      vertex -8.8806 -15.4134 10
      vertex -10 -13.5 10
    endloop
  endfacet
  facet normal 0 0 1
    outer loop
      vertex -9.87391 -10.1 10
      vertex -10.1 -9.87391 10
      vertex -10.2936 -12.5 10
    endloop
  endfacet
  facet normal 0 0 1
    outer loop
      vertex -8.69891 -12.5 10
      vertex -10.2936 -12.5 10
      vertex -10 -13.5 10
    endloop
  endfacet
  facet normal 0 0 1
    outer loop
      vertex -13 -10.1791 10
      vertex -12.5 -8.69891 10
      vertex -13 -8.59946 10
    endloop
  endfacet
  facet normal 0 0 1
    outer loop
      vertex -12.5 -8.69891 10
      vertex -13 -10.1791 10
      vertex -12.5 -10.251 10
    endloop
  endfacet
  facet normal -0 0 1
    outer loop
      vertex -12.5 7.5 10
      vertex -10.1 2.9 10
      vertex -10.1 7.5 10
    endloop
  endfacet
  facet normal 0 0 1
    outer loop
      vertex -10.1 2.9 10
      vertex -12.5 7.5 10
      vertex -10.1 -2.9 10
    endloop
  endfacet
  facet normal 0 0 1
    outer loop
      vertex -10.1 -2.9 10
      vertex -12.5 -8.69891 10
      vertex -10.1 -9.87391 10
    endloop
  endfacet
  facet normal 0 0 1
    outer loop
      vertex -10.1 -2.9 10
      vertex -12.5 7.5 10
      vertex -12.5 -8.69891 10
    endloop
  endfacet
  facet normal 0 0 1
    outer loop
      vertex -12.5 -10.251 10
      vertex -10.1 -9.87391 10
      vertex -12.5 -8.69891 10
    endloop
  endfacet
  facet normal 0 0 1
    outer loop
      vertex -10.1 -9.87391 10
      vertex -12.5 -10.251 10
      vertex -10.2936 -12.5 10
    endloop
  endfacet
  facet normal 0 0 1
    outer loop
      vertex -10.2936 -12.5 10
      vertex -12.5 -10.251 10
      vertex -12.5 -12.5 10
    endloop
  endfacet
  facet normal -0 0 1
    outer loop
      vertex -10.1 2.9 10
      vertex -7.3 -2.9 10
      vertex -7.3 2.9 10
    endloop
  endfacet
  facet normal 0 0 1
    outer loop
      vertex -7.3 -2.9 10
      vertex -10.1 2.9 10
      vertex -10.1 -2.9 10
    endloop
  endfacet
  facet normal 0 0 1
    outer loop
      vertex -8.5 -13.5 10
      vertex -8.69891 -12.5 10
      vertex -8.8806 -15.4134 10
    endloop
  endfacet
  facet normal 0 0 1
    outer loop
      vertex -8.8806 -15.4134 10
      vertex -10.5556 -15.3922 10
      vertex -9.96447 -17.0355 10
    endloop
  endfacet
  facet normal -0 0 1
    outer loop
      vertex -12.046 -16.6837 10
      vertex -9.96447 -17.0355 10
      vertex -10.5556 -15.3922 10
    endloop
  endfacet
  facet normal 0 0 1
    outer loop
      vertex -9.96447 -17.0355 10
      vertex -12.046 -16.6837 10
      vertex -11.5866 -18.1194 10
    endloop
  endfacet
  facet normal 0 0 1
    outer loop
      vertex -12.046 -16.6837 10
      vertex -13.5 -18.5 10
      vertex -11.5866 -18.1194 10
    endloop
  endfacet
  facet normal -0 0 1
    outer loop
      vertex -13.9981 -16.9644 10
      vertex -13.5 -18.5 10
      vertex -12.046 -16.6837 10
    endloop
  endfacet
  facet normal 0 0 1
    outer loop
      vertex -13.9981 -16.9644 10
      vertex -15.4134 -18.1194 10
      vertex -13.5 -18.5 10
    endloop
  endfacet
  facet normal 0 0 1
    outer loop
      vertex -15.792 -16.1451 10
      vertex -15.4134 -18.1194 10
      vertex -13.9981 -16.9644 10
    endloop
  endfacet
  facet normal -0 0 1
    outer loop
      vertex -18.1194 -15.4134 10
      vertex -15.792 -16.1451 10
      vertex -16.8582 -14.4861 10
    endloop
  endfacet
  facet normal 0 0 1
    outer loop
      vertex -15.792 -16.1451 10
      vertex -17.0355 -17.0355 10
      vertex -15.4134 -18.1194 10
    endloop
  endfacet
  facet normal 0 0 1
    outer loop
      vertex -18.5 -13.5 10
      vertex -16.8582 -12.5139 10
      vertex -18.1194 -11.5866 10
    endloop
  endfacet
  facet normal 0 0 1
    outer loop
      vertex -16.8582 -12.5139 10
      vertex -18.5 -13.5 10
      vertex -16.8582 -14.4861 10
    endloop
  endfacet
  facet normal 0 0 1
    outer loop
      vertex -15.792 -16.1451 10
      vertex -18.1194 -15.4134 10
      vertex -17.0355 -17.0355 10
    endloop
  endfacet
  facet normal 0 0 1
    outer loop
      vertex -16.8582 -14.4861 10
      vertex -18.5 -13.5 10
      vertex -18.1194 -15.4134 10
    endloop
  endfacet
  facet normal -1 0 0
    outer loop
      vertex 10.1 -10.1 0
      vertex 10.1 -10 10
      vertex 10.1 -10 0
    endloop
  endfacet
  facet normal -1 -0 0
    outer loop
      vertex 10.1 -10 10
      vertex 10.1 -10.1 0
      vertex 10.1 -10.1 10
    endloop
  endfacet
  facet normal 0 0 -1
    outer loop
      vertex -13 -10.1791 0
      vertex -12.5 -8.69891 0
      vertex -12.5 -10.251 0
    endloop
  endfacet
  facet normal -0 0 -1
    outer loop
      vertex -12.5 -8.69891 0
      vertex -13 -10.1791 0
      vertex -13 -8.59946 0
    endloop
  endfacet
  facet normal 0 0 -1
    outer loop
      vertex -9.87391 -10.1 0
      vertex -10.1 -9.87391 0
      vertex -9.96447 -9.96447 0
    endloop
  endfacet
  facet normal 0 0 -1
    outer loop
      vertex -12.5 -8.69891 0
      vertex -10.1 -2.9 0
      vertex -10.1 -9.87391 0
    endloop
  endfacet
  facet normal 0 0 -1
    outer loop
      vertex -12.5 7.5 0
      vertex -10.1 -2.9 0
      vertex -12.5 -8.69891 0
    endloop
  endfacet
  facet normal -0 0 -1
    outer loop
      vertex -9.87391 -10.1 0
      vertex -10.2936 -12.5 0
      vertex -10.1 -9.87391 0
    endloop
  endfacet
  facet normal 0 0 -1
    outer loop
      vertex -12.5 -10.251 0
      vertex -10.1 -9.87391 0
      vertex -10.2936 -12.5 0
    endloop
  endfacet
  facet normal 0 0 -1
    outer loop
      vertex -12.5 -10.251 0
      vertex -10.2936 -12.5 0
      vertex -12.5 -12.5 0
    endloop
  endfacet
  facet normal -0 0 -1
    outer loop
      vertex -10.1 -9.87391 0
      vertex -12.5 -10.251 0
      vertex -12.5 -8.69891 0
    endloop
  endfacet
  facet normal 0 0 -1
    outer loop
      vertex -10.1 -2.9 0
      vertex -12.5 7.5 0
      vertex -10.1 2.9 0
    endloop
  endfacet
  facet normal 0 0 -1
    outer loop
      vertex -10.1 2.9 0
      vertex -12.5 7.5 0
      vertex -10.1 7.5 0
    endloop
  endfacet
  facet normal 0 0 -1
    outer loop
      vertex -10.1 -2.9 0
      vertex -7.3 2.9 0
      vertex -7.3 -2.9 0
    endloop
  endfacet
  facet normal -0 0 -1
    outer loop
      vertex -7.3 2.9 0
      vertex -10.1 -2.9 0
      vertex -10.1 2.9 0
    endloop
  endfacet
  facet normal 0 0 -1
    outer loop
      vertex -10 -13.5 0
      vertex -8.5 -13.5 0
      vertex -8.8806 -15.4134 0
    endloop
  endfacet
  facet normal 0 0 -1
    outer loop
      vertex 12.5 -12.5 0
      vertex 10.1 -10.1 0
      vertex 12.5 -10 0
    endloop
  endfacet
  facet normal 0 0 -1
    outer loop
      vertex 12.5 -12.5 0
      vertex 2.9 -10.1 0
      vertex 10.1 -10.1 0
    endloop
  endfacet
  facet normal 0 0 -1
    outer loop
      vertex 2.9 -10.1 0
      vertex -2.9 -10.1 0
      vertex 2.9 -7.3 0
    endloop
  endfacet
  facet normal 0 0 -1
    outer loop
      vertex -8.69891 -12.5 0
      vertex 2.9 -10.1 0
      vertex 12.5 -12.5 0
    endloop
  endfacet
  facet normal -0 0 -1
    outer loop
      vertex 2.9 -10.1 0
      vertex -8.69891 -12.5 0
      vertex -2.9 -10.1 0
    endloop
  endfacet
  facet normal 0 0 -1
    outer loop
      vertex -8.69891 -12.5 0
      vertex -9.87391 -10.1 0
      vertex -2.9 -10.1 0
    endloop
  endfacet
  facet normal 0 0 -1
    outer loop
      vertex -8.5 -13.5 0
      vertex -10 -13.5 0
      vertex -8.69891 -12.5 0
    endloop
  endfacet
  facet normal 0 0 -1
    outer loop
      vertex -10.5556 -15.3922 0
      vertex -8.8806 -15.4134 0
      vertex -9.96447 -17.0355 0
    endloop
  endfacet
  facet normal 0 0 -1
    outer loop
      vertex -10.2936 -12.5 0
      vertex -8.69891 -12.5 0
      vertex -10 -13.5 0
    endloop
  endfacet
  facet normal 0 0 -1
    outer loop
      vertex -8.69891 -12.5 0
      vertex -10.2936 -12.5 0
      vertex -9.87391 -10.1 0
    endloop
  endfacet
  facet normal 0 0 -1
    outer loop
      vertex -8.8806 -15.4134 0
      vertex -10.5556 -15.3922 0
      vertex -10 -13.5 0
    endloop
  endfacet
  facet normal 0 0 -1
    outer loop
      vertex -12.046 -16.6837 0
      vertex -9.96447 -17.0355 0
      vertex -11.5866 -18.1194 0
    endloop
  endfacet
  facet normal 0 0 -1
    outer loop
      vertex -9.96447 -17.0355 0
      vertex -12.046 -16.6837 0
      vertex -10.5556 -15.3922 0
    endloop
  endfacet
  facet normal 0 0 -1
    outer loop
      vertex -13.5 -18.5 0
      vertex -12.046 -16.6837 0
      vertex -11.5866 -18.1194 0
    endloop
  endfacet
  facet normal 0 0 -1
    outer loop
      vertex -13.5 -18.5 0
      vertex -13.9981 -16.9644 0
      vertex -12.046 -16.6837 0
    endloop
  endfacet
  facet normal 0 0 -1
    outer loop
      vertex -15.4134 -18.1194 0
      vertex -13.9981 -16.9644 0
      vertex -13.5 -18.5 0
    endloop
  endfacet
  facet normal 0 0 -1
    outer loop
      vertex -15.4134 -18.1194 0
      vertex -15.792 -16.1451 0
      vertex -13.9981 -16.9644 0
    endloop
  endfacet
  facet normal 0 0 -1
    outer loop
      vertex -17.0355 -17.0355 0
      vertex -15.792 -16.1451 0
      vertex -15.4134 -18.1194 0
    endloop
  endfacet
  facet normal 0 0 -1
    outer loop
      vertex -15.792 -16.1451 0
      vertex -18.1194 -15.4134 0
      vertex -16.8582 -14.4861 0
    endloop
  endfacet
  facet normal 0 0 -1
    outer loop
      vertex -18.1194 -15.4134 0
      vertex -15.792 -16.1451 0
      vertex -17.0355 -17.0355 0
    endloop
  endfacet
  facet normal -0 0 -1
    outer loop
      vertex 12.5 -10 0
      vertex 10.1 -10.1 0
      vertex 10.1 -10 0
    endloop
  endfacet
  facet normal -0 0 -1
    outer loop
      vertex 2.9 -7.3 0
      vertex -2.9 -10.1 0
      vertex -2.9 -7.3 0
    endloop
  endfacet
  facet normal 0 0 -1
    outer loop
      vertex -14 -10.0365 0
      vertex -15.4134 -8.8806 0
      vertex -14 -8.59946 0
    endloop
  endfacet
  facet normal 0 0 -1
    outer loop
      vertex -15.792 -10.8549 0
      vertex -15.4134 -8.8806 0
      vertex -14 -10.0365 0
    endloop
  endfacet
  facet normal 0 0 -1
    outer loop
      vertex -18.1194 -11.5866 0
      vertex -15.792 -10.8549 0
      vertex -16.8582 -12.5139 0
    endloop
  endfacet
  facet normal 0 0 -1
    outer loop
      vertex -15.792 -10.8549 0
      vertex -17.0355 -9.96447 0
      vertex -15.4134 -8.8806 0
    endloop
  endfacet
  facet normal 0 0 -1
    outer loop
      vertex -18.5 -13.5 0
      vertex -16.8582 -14.4861 0
      vertex -18.1194 -15.4134 0
    endloop
  endfacet
  facet normal 0 0 -1
    outer loop
      vertex -16.8582 -14.4861 0
      vertex -18.5 -13.5 0
      vertex -16.8582 -12.5139 0
    endloop
  endfacet
  facet normal -0 0 -1
    outer loop
      vertex -15.792 -10.8549 0
      vertex -18.1194 -11.5866 0
      vertex -17.0355 -9.96447 0
    endloop
  endfacet
  facet normal -0 0 -1
    outer loop
      vertex -16.8582 -12.5139 0
      vertex -18.5 -13.5 0
      vertex -18.1194 -11.5866 0
    endloop
  endfacet
  facet normal 1 -0 0
    outer loop
      vertex -10.1 -9.87391 10
      vertex -10.1 -2.9 0
      vertex -10.1 -2.9 10
    endloop
  endfacet
  facet normal 1 0 0
    outer loop
      vertex -10.1 -2.9 0
      vertex -10.1 -9.87391 10
      vertex -10.1 -9.87391 0
    endloop
  endfacet
  facet normal 1 -0 0
    outer loop
      vertex -10.1 2.9 10
      vertex -10.1 7.5 0
      vertex -10.1 7.5 10
    endloop
  endfacet
  facet normal 1 0 0
    outer loop
      vertex -10.1 7.5 0
      vertex -10.1 2.9 10
      vertex -10.1 2.9 0
    endloop
  endfacet
  facet normal 1 -0 0
    outer loop
      vertex -7.3 -2.9 10
      vertex -7.3 2.9 0
      vertex -7.3 2.9 10
    endloop
  endfacet
  facet normal 1 0 0
    outer loop
      vertex -7.3 2.9 0
      vertex -7.3 -2.9 10
      vertex -7.3 -2.9 0
    endloop
  endfacet
  facet normal 0 1 -0
    outer loop
      vertex -7.3 2.9 0
      vertex -10.1 2.9 10
      vertex -7.3 2.9 10
    endloop
  endfacet
  facet normal 0 1 0
    outer loop
      vertex -10.1 2.9 10
      vertex -7.3 2.9 0
      vertex -10.1 2.9 0
    endloop
  endfacet
  facet normal 0 -1 0
    outer loop
      vertex -10.1 -2.9 0
      vertex -7.3 -2.9 10
      vertex -10.1 -2.9 10
    endloop
  endfacet
  facet normal 0 -1 -0
    outer loop
      vertex -7.3 -2.9 10
      vertex -10.1 -2.9 0
      vertex -7.3 -2.9 0
    endloop
  endfacet
  facet normal -1 0 0
    outer loop
      vertex -2.9 -10.1 0
      vertex -2.9 -7.3 10
      vertex -2.9 -7.3 0
    endloop
  endfacet
  facet normal -1 -0 0
    outer loop
      vertex -2.9 -7.3 10
      vertex -2.9 -10.1 0
      vertex -2.9 -10.1 10
    endloop
  endfacet
  facet normal 1 -0 0
    outer loop
      vertex 2.9 -10.1 10
      vertex 2.9 -7.3 0
      vertex 2.9 -7.3 10
    endloop
  endfacet
  facet normal 1 0 0
    outer loop
      vertex 2.9 -7.3 0
      vertex 2.9 -10.1 10
      vertex 2.9 -10.1 0
    endloop
  endfacet
  facet normal 0 1 -0
    outer loop
      vertex 2.9 -7.3 0
      vertex -2.9 -7.3 10
      vertex 2.9 -7.3 10
    endloop
  endfacet
  facet normal 0 1 0
    outer loop
      vertex -2.9 -7.3 10
      vertex 2.9 -7.3 0
      vertex -2.9 -7.3 0
    endloop
  endfacet
  facet normal 0 1 -0
    outer loop
      vertex -2.9 -10.1 0
      vertex -9.87391 -10.1 10
      vertex -2.9 -10.1 10
    endloop
  endfacet
  facet normal 0 1 0
    outer loop
      vertex -9.87391 -10.1 10
      vertex -2.9 -10.1 0
      vertex -9.87391 -10.1 0
    endloop
  endfacet
  facet normal 0 1 -0
    outer loop
      vertex 10.1 -10.1 0
      vertex 2.9 -10.1 10
      vertex 10.1 -10.1 10
    endloop
  endfacet
  facet normal 0 1 0
    outer loop
      vertex 2.9 -10.1 10
      vertex 10.1 -10.1 0
      vertex 2.9 -10.1 0
    endloop
  endfacet
  facet normal -1 0 0
    outer loop
      vertex -12.5 -12.5 0
      vertex -12.5 -10.251 10
      vertex -12.5 -10.251 0
    endloop
  endfacet
  facet normal -1 -0 0
    outer loop
      vertex -12.5 -10.251 10
      vertex -12.5 -12.5 0
      vertex -12.5 -12.5 10
    endloop
  endfacet
  facet normal -1 0 0
    outer loop
      vertex -12.5 -8.69891 0
      vertex -12.5 7.5 10
      vertex -12.5 7.5 0
    endloop
  endfacet
  facet normal -1 -0 0
    outer loop
      vertex -12.5 7.5 10
      vertex -12.5 -8.69891 0
      vertex -12.5 -8.69891 10
    endloop
  endfacet
  facet normal 1 -0 0
    outer loop
      vertex 12.5 -12.5 10
      vertex 12.5 -10 0
      vertex 12.5 -10 10
    endloop
  endfacet
  facet normal 1 0 0
    outer loop
      vertex 12.5 -10 0
      vertex 12.5 -12.5 10
      vertex 12.5 -12.5 0
    endloop
  endfacet
  facet normal 0 -1 0
    outer loop
      vertex -12.5 -12.5 0
      vertex -10.2936 -12.5 10
      vertex -12.5 -12.5 10
    endloop
  endfacet
  facet normal 0 -1 -0
    outer loop
      vertex -10.2936 -12.5 10
      vertex -12.5 -12.5 0
      vertex -10.2936 -12.5 0
    endloop
  endfacet
  facet normal 0 -1 0
    outer loop
      vertex -8.69891 -12.5 0
      vertex 12.5 -12.5 10
      vertex -8.69891 -12.5 10
    endloop
  endfacet
  facet normal 0 -1 -0
    outer loop
      vertex 12.5 -12.5 10
      vertex -8.69891 -12.5 0
      vertex 12.5 -12.5 0
    endloop
  endfacet
  facet normal 0 1 -0
    outer loop
      vertex -10.1 7.5 0
      vertex -12.5 7.5 10
      vertex -10.1 7.5 10
    endloop
  endfacet
  facet normal 0 1 0
    outer loop
      vertex -12.5 7.5 10
      vertex -10.1 7.5 0
      vertex -12.5 7.5 0
    endloop
  endfacet
  facet normal 0 1 -0
    outer loop
      vertex 12.5 -10 0
      vertex 10.1 -10 10
      vertex 12.5 -10 10
    endloop
  endfacet
  facet normal 0 1 0
    outer loop
      vertex 10.1 -10 10
      vertex 12.5 -10 0
      vertex 10.1 -10 0
    endloop
  endfacet
  facet normal 0.980785 0.195091 0
    outer loop
      vertex -8.5 -13.5 10
      vertex -8.69891 -12.5 0
      vertex -8.69891 -12.5 10
    endloop
  endfacet
  facet normal 0.980785 0.195091 0
    outer loop
      vertex -8.69891 -12.5 0
      vertex -8.5 -13.5 10
      vertex -8.5 -13.5 0
    endloop
  endfacet
  facet normal -0.980785 0.195091 0
    outer loop
      vertex -18.5 -13.5 0
      vertex -18.1194 -11.5866 10
      vertex -18.1194 -11.5866 0
    endloop
  endfacet
  facet normal -0.980785 0.195091 0
    outer loop
      vertex -18.1194 -11.5866 10
      vertex -18.5 -13.5 0
      vertex -18.5 -13.5 10
    endloop
  endfacet
  facet normal 0.19509 0.980785 -0
    outer loop
      vertex -12.5 -8.69891 0
      vertex -13 -8.59946 10
      vertex -12.5 -8.69891 10
    endloop
  endfacet
  facet normal 0.19509 0.980785 0
    outer loop
      vertex -13 -8.59946 10
      vertex -12.5 -8.69891 0
      vertex -13 -8.59946 0
    endloop
  endfacet
  facet normal 0.831471 0.555568 0
    outer loop
      vertex -9.87391 -10.1 10
      vertex -9.96447 -9.96447 0
      vertex -9.96447 -9.96447 10
    endloop
  endfacet
  facet normal 0.831471 0.555568 0
    outer loop
      vertex -9.96447 -9.96447 0
      vertex -9.87391 -10.1 10
      vertex -9.87391 -10.1 0
    endloop
  endfacet
  facet normal 0.195091 -0.980785 0
    outer loop
      vertex -13.5 -18.5 0
      vertex -11.5866 -18.1194 10
      vertex -13.5 -18.5 10
    endloop
  endfacet
  facet normal 0.195091 -0.980785 0
    outer loop
      vertex -11.5866 -18.1194 10
      vertex -13.5 -18.5 0
      vertex -11.5866 -18.1194 0
    endloop
  endfacet
  facet normal 0.555568 0.831471 -0
    outer loop
      vertex -9.96447 -9.96447 0
      vertex -10.1 -9.87391 10
      vertex -9.96447 -9.96447 10
    endloop
  endfacet
  facet normal 0.555568 0.831471 0
    outer loop
      vertex -10.1 -9.87391 10
      vertex -9.96447 -9.96447 0
      vertex -10.1 -9.87391 0
    endloop
  endfacet
  facet normal -0.55557 0.83147 0
    outer loop
      vertex -15.4134 -8.8806 0
      vertex -17.0355 -9.96447 10
      vertex -15.4134 -8.8806 10
    endloop
  endfacet
  facet normal -0.55557 0.83147 0
    outer loop
      vertex -17.0355 -9.96447 10
      vertex -15.4134 -8.8806 0
      vertex -17.0355 -9.96447 0
    endloop
  endfacet
  facet normal -0.83147 0.55557 0
    outer loop
      vertex -18.1194 -11.5866 0
      vertex -17.0355 -9.96447 10
      vertex -17.0355 -9.96447 0
    endloop
  endfacet
  facet normal -0.83147 0.55557 0
    outer loop
      vertex -17.0355 -9.96447 10
      vertex -18.1194 -11.5866 0
      vertex -18.1194 -11.5866 10
    endloop
  endfacet
  facet normal -0.19509 0.980785 0
    outer loop
      vertex -14 -8.59946 0
      vertex -15.4134 -8.8806 10
      vertex -14 -8.59946 10
    endloop
  endfacet
  facet normal -0.19509 0.980785 0
    outer loop
      vertex -15.4134 -8.8806 10
      vertex -14 -8.59946 0
      vertex -15.4134 -8.8806 0
    endloop
  endfacet
  facet normal -0.55557 -0.83147 0
    outer loop
      vertex -17.0355 -17.0355 0
      vertex -15.4134 -18.1194 10
      vertex -17.0355 -17.0355 10
    endloop
  endfacet
  facet normal -0.55557 -0.83147 -0
    outer loop
      vertex -15.4134 -18.1194 10
      vertex -17.0355 -17.0355 0
      vertex -15.4134 -18.1194 0
    endloop
  endfacet
  facet normal -0.980785 -0.195091 0
    outer loop
      vertex -18.1194 -15.4134 0
      vertex -18.5 -13.5 10
      vertex -18.5 -13.5 0
    endloop
  endfacet
  facet normal -0.980785 -0.195091 0
    outer loop
      vertex -18.5 -13.5 10
      vertex -18.1194 -15.4134 0
      vertex -18.1194 -15.4134 10
    endloop
  endfacet
  facet normal 0.55557 -0.83147 0
    outer loop
      vertex -11.5866 -18.1194 0
      vertex -9.96447 -17.0355 10
      vertex -11.5866 -18.1194 10
    endloop
  endfacet
  facet normal 0.55557 -0.83147 0
    outer loop
      vertex -9.96447 -17.0355 10
      vertex -11.5866 -18.1194 0
      vertex -9.96447 -17.0355 0
    endloop
  endfacet
  facet normal 0.83147 -0.55557 0
    outer loop
      vertex -9.96447 -17.0355 10
      vertex -8.8806 -15.4134 0
      vertex -8.8806 -15.4134 10
    endloop
  endfacet
  facet normal 0.83147 -0.55557 0
    outer loop
      vertex -8.8806 -15.4134 0
      vertex -9.96447 -17.0355 10
      vertex -9.96447 -17.0355 0
    endloop
  endfacet
  facet normal -0.195091 -0.980785 0
    outer loop
      vertex -15.4134 -18.1194 0
      vertex -13.5 -18.5 10
      vertex -15.4134 -18.1194 10
    endloop
  endfacet
  facet normal -0.195091 -0.980785 -0
    outer loop
      vertex -13.5 -18.5 10
      vertex -15.4134 -18.1194 0
      vertex -13.5 -18.5 0
    endloop
  endfacet
  facet normal -0.83147 -0.55557 0
    outer loop
      vertex -17.0355 -17.0355 0
      vertex -18.1194 -15.4134 10
      vertex -18.1194 -15.4134 0
    endloop
  endfacet
  facet normal -0.83147 -0.55557 0
    outer loop
      vertex -18.1194 -15.4134 10
      vertex -17.0355 -17.0355 0
      vertex -17.0355 -17.0355 10
    endloop
  endfacet
  facet normal 0.980785 -0.195091 0
    outer loop
      vertex -8.8806 -15.4134 10
      vertex -8.5 -13.5 0
      vertex -8.5 -13.5 10
    endloop
  endfacet
  facet normal 0.980785 -0.195091 0
    outer loop
      vertex -8.5 -13.5 0
      vertex -8.8806 -15.4134 10
      vertex -8.8806 -15.4134 0
    endloop
  endfacet
  facet normal -0.959493 -0.281733 0
    outer loop
      vertex -10 -13.5 0
      vertex -10.2936 -12.5 10
      vertex -10.2936 -12.5 0
    endloop
  endfacet
  facet normal -0.959493 -0.281733 0
    outer loop
      vertex -10.2936 -12.5 10
      vertex -10 -13.5 0
      vertex -10 -13.5 10
    endloop
  endfacet
  facet normal 1 -0 0
    outer loop
      vertex -16.8582 -14.4861 10
      vertex -16.8582 -12.5139 0
      vertex -16.8582 -12.5139 10
    endloop
  endfacet
  facet normal 1 0 0
    outer loop
      vertex -16.8582 -12.5139 0
      vertex -16.8582 -14.4861 10
      vertex -16.8582 -14.4861 0
    endloop
  endfacet
  facet normal 0.415415 -0.909632 0
    outer loop
      vertex -15.792 -10.8549 0
      vertex -14 -10.0365 10
      vertex -15.792 -10.8549 10
    endloop
  endfacet
  facet normal 0.415415 -0.909632 0
    outer loop
      vertex -14 -10.0365 10
      vertex -15.792 -10.8549 0
      vertex -14 -10.0365 0
    endloop
  endfacet
  facet normal 0.841254 -0.540641 0
    outer loop
      vertex -16.8582 -12.5139 10
      vertex -15.792 -10.8549 0
      vertex -15.792 -10.8549 10
    endloop
  endfacet
  facet normal 0.841254 -0.540641 0
    outer loop
      vertex -15.792 -10.8549 0
      vertex -16.8582 -12.5139 10
      vertex -16.8582 -12.5139 0
    endloop
  endfacet
  facet normal -0.142315 0.989821 0
    outer loop
      vertex -12.046 -16.6837 0
      vertex -13.9981 -16.9644 10
      vertex -12.046 -16.6837 10
    endloop
  endfacet
  facet normal -0.142315 0.989821 0
    outer loop
      vertex -13.9981 -16.9644 10
      vertex -12.046 -16.6837 0
      vertex -13.9981 -16.9644 0
    endloop
  endfacet
  facet normal -0.654861 0.755749 0
    outer loop
      vertex -10.5556 -15.3922 0
      vertex -12.046 -16.6837 10
      vertex -10.5556 -15.3922 10
    endloop
  endfacet
  facet normal -0.654861 0.755749 0
    outer loop
      vertex -12.046 -16.6837 10
      vertex -10.5556 -15.3922 0
      vertex -12.046 -16.6837 0
    endloop
  endfacet
  facet normal -0.142314 -0.989822 0
    outer loop
      vertex -13 -10.1791 0
      vertex -12.5 -10.251 10
      vertex -13 -10.1791 10
    endloop
  endfacet
  facet normal -0.142314 -0.989822 -0
    outer loop
      vertex -12.5 -10.251 10
      vertex -13 -10.1791 0
      vertex -12.5 -10.251 0
    endloop
  endfacet
  facet normal 0.841254 0.540641 0
    outer loop
      vertex -15.792 -16.1451 10
      vertex -16.8582 -14.4861 0
      vertex -16.8582 -14.4861 10
    endloop
  endfacet
  facet normal 0.841254 0.540641 0
    outer loop
      vertex -16.8582 -14.4861 0
      vertex -15.792 -16.1451 10
      vertex -15.792 -16.1451 0
    endloop
  endfacet
  facet normal -0.959493 0.281733 0
    outer loop
      vertex -10.5556 -15.3922 0
      vertex -10 -13.5 10
      vertex -10 -13.5 0
    endloop
  endfacet
  facet normal -0.959493 0.281733 0
    outer loop
      vertex -10 -13.5 10
      vertex -10.5556 -15.3922 0
      vertex -10.5556 -15.3922 10
    endloop
  endfacet
  facet normal 0.415415 0.909632 -0
    outer loop
      vertex -13.9981 -16.9644 0
      vertex -15.792 -16.1451 10
      vertex -13.9981 -16.9644 10
    endloop
  endfacet
  facet normal 0.415415 0.909632 0
    outer loop
      vertex -15.792 -16.1451 10
      vertex -13.9981 -16.9644 0
      vertex -15.792 -16.1451 0
    endloop
  endfacet
  facet normal 1 -0 0
    outer loop
      vertex -14 -10.0365 10
      vertex -14 -8.59946 0
      vertex -14 -8.59946 10
    endloop
  endfacet
  facet normal 1 0 0
    outer loop
      vertex -14 -8.59946 0
      vertex -14 -10.0365 10
      vertex -14 -10.0365 0
    endloop
  endfacet
  facet normal -1 0 0
    outer loop
      vertex -13 -10.1791 0
      vertex -13 -8.59946 10
      vertex -13 -8.59946 0
    endloop
  endfacet
  facet normal -1 -0 0
    outer loop
      vertex -13 -8.59946 10
      vertex -13 -10.1791 0
      vertex -13 -10.1791 10
    endloop
  endfacet
  facet normal -0 0 1
    outer loop
      vertex 27.5 47.5 10
      vertex 29.9 42.9 10
      vertex 29.9 47.5 10
    endloop
  endfacet
  facet normal 0 0 1
    outer loop
      vertex 29.9 42.9 10
      vertex 27.5 47.5 10
      vertex 29.9 37.1 10
    endloop
  endfacet
  facet normal 0 0 1
    outer loop
      vertex 27.5 27.5 10
      vertex 29.9 37.1 10
      vertex 27.5 47.5 10
    endloop
  endfacet
  facet normal -0 0 1
    outer loop
      vertex 29.9 42.9 10
      vertex 32.7 37.1 10
      vertex 32.7 42.9 10
    endloop
  endfacet
  facet normal 0 0 1
    outer loop
      vertex 32.7 37.1 10
      vertex 29.9 42.9 10
      vertex 29.9 37.1 10
    endloop
  endfacet
  facet normal 0 0 1
    outer loop
      vertex 42.9 32.7 10
      vertex 37.1 32.7 10
      vertex 42.9 29.9 10
    endloop
  endfacet
  facet normal 0 0 1
    outer loop
      vertex 50.1 29.9 10
      vertex 52.5 30 10
      vertex 50.1 30 10
    endloop
  endfacet
  facet normal 0 0 1
    outer loop
      vertex 52.5 30 10
      vertex 50.1 29.9 10
      vertex 52.5 27.5 10
    endloop
  endfacet
  facet normal -0 0 1
    outer loop
      vertex 42.9 29.9 10
      vertex 52.5 27.5 10
      vertex 50.1 29.9 10
    endloop
  endfacet
  facet normal 0 0 1
    outer loop
      vertex 37.1 29.9 10
      vertex 42.9 29.9 10
      vertex 37.1 32.7 10
    endloop
  endfacet
  facet normal -0 0 1
    outer loop
      vertex 37.1 29.9 10
      vertex 52.5 27.5 10
      vertex 42.9 29.9 10
    endloop
  endfacet
  facet normal 0 0 1
    outer loop
      vertex 27.5 27.5 10
      vertex 37.1 29.9 10
      vertex 29.9 29.9 10
    endloop
  endfacet
  facet normal 0 0 1
    outer loop
      vertex 37.1 29.9 10
      vertex 27.5 27.5 10
      vertex 52.5 27.5 10
    endloop
  endfacet
  facet normal 0 0 1
    outer loop
      vertex 29.9 37.1 10
      vertex 27.5 27.5 10
      vertex 29.9 29.9 10
    endloop
  endfacet
  facet normal -1 0 0
    outer loop
      vertex 50.1 29.9 0
      vertex 50.1 30 10
      vertex 50.1 30 0
    endloop
  endfacet
  facet normal -1 -0 0
    outer loop
      vertex 50.1 30 10
      vertex 50.1 29.9 0
      vertex 50.1 29.9 10
    endloop
  endfacet
  facet normal 0 0 -1
    outer loop
      vertex 52.5 27.5 0
      vertex 50.1 29.9 0
      vertex 52.5 30 0
    endloop
  endfacet
  facet normal 0 0 -1
    outer loop
      vertex 52.5 27.5 0
      vertex 42.9 29.9 0
      vertex 50.1 29.9 0
    endloop
  endfacet
  facet normal 0 0 -1
    outer loop
      vertex 42.9 29.9 0
      vertex 37.1 29.9 0
      vertex 42.9 32.7 0
    endloop
  endfacet
  facet normal 0 0 -1
    outer loop
      vertex 52.5 27.5 0
      vertex 37.1 29.9 0
      vertex 42.9 29.9 0
    endloop
  endfacet
  facet normal 0 0 -1
    outer loop
      vertex 27.5 27.5 0
      vertex 37.1 29.9 0
      vertex 52.5 27.5 0
    endloop
  endfacet
  facet normal 0 0 -1
    outer loop
      vertex 27.5 27.5 0
      vertex 29.9 37.1 0
      vertex 29.9 29.9 0
    endloop
  endfacet
  facet normal 0 0 -1
    outer loop
      vertex 27.5 47.5 0
      vertex 29.9 37.1 0
      vertex 27.5 27.5 0
    endloop
  endfacet
  facet normal -0 0 -1
    outer loop
      vertex 37.1 29.9 0
      vertex 27.5 27.5 0
      vertex 29.9 29.9 0
    endloop
  endfacet
  facet normal 0 0 -1
    outer loop
      vertex 29.9 37.1 0
      vertex 27.5 47.5 0
      vertex 29.9 42.9 0
    endloop
  endfacet
  facet normal 0 0 -1
    outer loop
      vertex 29.9 42.9 0
      vertex 27.5 47.5 0
      vertex 29.9 47.5 0
    endloop
  endfacet
  facet normal -0 0 -1
    outer loop
      vertex 52.5 30 0
      vertex 50.1 29.9 0
      vertex 50.1 30 0
    endloop
  endfacet
  facet normal -0 0 -1
    outer loop
      vertex 42.9 32.7 0
      vertex 37.1 29.9 0
      vertex 37.1 32.7 0
    endloop
  endfacet
  facet normal 0 0 -1
    outer loop
      vertex 29.9 37.1 0
      vertex 32.7 42.9 0
      vertex 32.7 37.1 0
    endloop
  endfacet
  facet normal -0 0 -1
    outer loop
      vertex 32.7 42.9 0
      vertex 29.9 37.1 0
      vertex 29.9 42.9 0
    endloop
  endfacet
  facet normal 1 -0 0
    outer loop
      vertex 29.9 29.9 10
      vertex 29.9 37.1 0
      vertex 29.9 37.1 10
    endloop
  endfacet
  facet normal 1 0 0
    outer loop
      vertex 29.9 37.1 0
      vertex 29.9 29.9 10
      vertex 29.9 29.9 0
    endloop
  endfacet
  facet normal 1 -0 0
    outer loop
      vertex 29.9 42.9 10
      vertex 29.9 47.5 0
      vertex 29.9 47.5 10
    endloop
  endfacet
  facet normal 1 0 0
    outer loop
      vertex 29.9 47.5 0
      vertex 29.9 42.9 10
      vertex 29.9 42.9 0
    endloop
  endfacet
  facet normal 1 -0 0
    outer loop
      vertex 32.7 37.1 10
      vertex 32.7 42.9 0
      vertex 32.7 42.9 10
    endloop
  endfacet
  facet normal 1 0 0
    outer loop
      vertex 32.7 42.9 0
      vertex 32.7 37.1 10
      vertex 32.7 37.1 0
    endloop
  endfacet
  facet normal 0 1 -0
    outer loop
      vertex 32.7 42.9 0
      vertex 29.9 42.9 10
      vertex 32.7 42.9 10
    endloop
  endfacet
  facet normal 0 1 0
    outer loop
      vertex 29.9 42.9 10
      vertex 32.7 42.9 0
      vertex 29.9 42.9 0
    endloop
  endfacet
  facet normal 0 -1 0
    outer loop
      vertex 29.9 37.1 0
      vertex 32.7 37.1 10
      vertex 29.9 37.1 10
    endloop
  endfacet
  facet normal 0 -1 -0
    outer loop
      vertex 32.7 37.1 10
      vertex 29.9 37.1 0
      vertex 32.7 37.1 0
    endloop
  endfacet
  facet normal -1 0 0
    outer loop
      vertex 37.1 29.9 0
      vertex 37.1 32.7 10
      vertex 37.1 32.7 0
    endloop
  endfacet
  facet normal -1 -0 0
    outer loop
      vertex 37.1 32.7 10
      vertex 37.1 29.9 0
      vertex 37.1 29.9 10
    endloop
  endfacet
  facet normal 1 -0 0
    outer loop
      vertex 42.9 29.9 10
      vertex 42.9 32.7 0
      vertex 42.9 32.7 10
    endloop
  endfacet
  facet normal 1 0 0
    outer loop
      vertex 42.9 32.7 0
      vertex 42.9 29.9 10
      vertex 42.9 29.9 0
    endloop
  endfacet
  facet normal 0 1 -0
    outer loop
      vertex 42.9 32.7 0
      vertex 37.1 32.7 10
      vertex 42.9 32.7 10
    endloop
  endfacet
  facet normal 0 1 0
    outer loop
      vertex 37.1 32.7 10
      vertex 42.9 32.7 0
      vertex 37.1 32.7 0
    endloop
  endfacet
  facet normal 0 1 -0
    outer loop
      vertex 37.1 29.9 0
      vertex 29.9 29.9 10
      vertex 37.1 29.9 10
    endloop
  endfacet
  facet normal 0 1 0
    outer loop
      vertex 29.9 29.9 10
      vertex 37.1 29.9 0
      vertex 29.9 29.9 0
    endloop
  endfacet
  facet normal 0 1 -0
    outer loop
      vertex 50.1 29.9 0
      vertex 42.9 29.9 10
      vertex 50.1 29.9 10
    endloop
  endfacet
  facet normal 0 1 0
    outer loop
      vertex 42.9 29.9 10
      vertex 50.1 29.9 0
      vertex 42.9 29.9 0
    endloop
  endfacet
  facet normal -1 0 0
    outer loop
      vertex 27.5 47.5 0
      vertex 27.5 28.375 5
      vertex 27.5 47.5 10
    endloop
  endfacet
  facet normal -1 0 0
    outer loop
      vertex 27.5 27.5 0
      vertex 27.5 28.375 5
      vertex 27.5 47.5 0
    endloop
  endfacet
  facet normal -1 -0 0
    outer loop
      vertex 27.5 28.375 5
      vertex 27.5 27.5 0
      vertex 27.5 27.5 5
    endloop
  endfacet
  facet normal -1 0 0
    outer loop
      vertex 27.5 27.9944 6.91342
      vertex 27.5 47.5 10
      vertex 27.5 28.375 5
    endloop
  endfacet
  facet normal -1 0 0
    outer loop
      vertex 27.5 27.5 10
      vertex 27.5 27.9944 6.91342
      vertex 27.5 27.5 7.65334
    endloop
  endfacet
  facet normal -1 0 0
    outer loop
      vertex 27.5 27.9944 6.91342
      vertex 27.5 27.5 10
      vertex 27.5 47.5 10
    endloop
  endfacet
  facet normal 1 -0 0
    outer loop
      vertex 52.5 27.5 10
      vertex 52.5 30 0
      vertex 52.5 30 10
    endloop
  endfacet
  facet normal 1 0 0
    outer loop
      vertex 52.5 30 0
      vertex 52.5 27.5 10
      vertex 52.5 27.5 0
    endloop
  endfacet
  facet normal 0 -1 0
    outer loop
      vertex 27.5 27.5 2.34666
      vertex 27.5 27.5 0
      vertex 47.5 27.5 2.34666
    endloop
  endfacet
  facet normal 0 -1 0
    outer loop
      vertex 47.5 27.5 7.65334
      vertex 27.5 27.5 10
      vertex 27.5 27.5 7.65334
    endloop
  endfacet
  facet normal 0 -1 0
    outer loop
      vertex 27.5 27.5 10
      vertex 47.5 27.5 7.65334
      vertex 52.5 27.5 10
    endloop
  endfacet
  facet normal 0 -1 0
    outer loop
      vertex 47.5 27.5 2.34666
      vertex 52.5 27.5 10
      vertex 47.5 27.5 7.65334
    endloop
  endfacet
  facet normal 0 -1 0
    outer loop
      vertex 47.5 27.5 2.34666
      vertex 52.5 27.5 0
      vertex 52.5 27.5 10
    endloop
  endfacet
  facet normal 0 -1 0
    outer loop
      vertex 52.5 27.5 0
      vertex 47.5 27.5 2.34666
      vertex 27.5 27.5 0
    endloop
  endfacet
  facet normal 0 0 0
    outer loop
      vertex 27.5 27.5 2.34666
      vertex 27.5 27.5 5
      vertex 27.5 27.5 0
    endloop
  endfacet
  facet normal 0 1 -0
    outer loop
      vertex 29.9 47.5 0
      vertex 27.5 47.5 10
      vertex 29.9 47.5 10
    endloop
  endfacet
  facet normal 0 1 0
    outer loop
      vertex 27.5 47.5 10
      vertex 29.9 47.5 0
      vertex 27.5 47.5 0
    endloop
  endfacet
  facet normal 0 1 -0
    outer loop
      vertex 52.5 30 0
      vertex 50.1 30 10
      vertex 52.5 30 10
    endloop
  endfacet
  facet normal 0 1 0
    outer loop
      vertex 50.1 30 10
      vertex 52.5 30 0
      vertex 50.1 30 0
    endloop
  endfacet
  facet normal 0 0.195091 -0.980785
    outer loop
      vertex 27.5 23.875 0.0994562
      vertex 47.5 25.2884 0.380603
      vertex 47.5 23.875 0.0994562
    endloop
  endfacet
  facet normal 0 0.195091 -0.980785
    outer loop
      vertex 47.5 25.2884 0.380603
      vertex 27.5 23.875 0.0994562
      vertex 27.5 25.2884 0.380603
    endloop
  endfacet
  facet normal -0 0.195091 0.980785
    outer loop
      vertex 27.5 25.2884 9.6194
      vertex 47.5 23.375 10
      vertex 47.5 25.2884 9.6194
    endloop
  endfacet
  facet normal 0 0.195091 0.980785
    outer loop
      vertex 47.5 23.375 10
      vertex 27.5 25.2884 9.6194
      vertex 27.5 23.375 10
    endloop
  endfacet
  facet normal 0 0.55557 -0.83147
    outer loop
      vertex 27.5 25.2884 0.380603
      vertex 47.5 26.9105 1.46447
      vertex 47.5 25.2884 0.380603
    endloop
  endfacet
  facet normal 0 0.55557 -0.83147
    outer loop
      vertex 47.5 26.9105 1.46447
      vertex 27.5 25.2884 0.380603
      vertex 27.5 26.9105 1.46447
    endloop
  endfacet
  facet normal 0 -0.980785 -0.195091
    outer loop
      vertex 27.5 18.7556 3.08658
      vertex 47.5 18.375 5
      vertex 27.5 18.375 5
    endloop
  endfacet
  facet normal 0 -0.980785 -0.195091
    outer loop
      vertex 47.5 18.375 5
      vertex 27.5 18.7556 3.08658
      vertex 47.5 18.7556 3.08658
    endloop
  endfacet
  facet normal 0 -0.980785 0.195091
    outer loop
      vertex 27.5 18.375 5
      vertex 47.5 18.7556 6.91342
      vertex 27.5 18.7556 6.91342
    endloop
  endfacet
  facet normal 0 -0.980785 0.195091
    outer loop
      vertex 47.5 18.7556 6.91342
      vertex 27.5 18.375 5
      vertex 47.5 18.375 5
    endloop
  endfacet
  facet normal 0 0.83147 -0.55557
    outer loop
      vertex 47.5 26.9105 1.46447
      vertex 27.5 27.5 2.34666
      vertex 47.5 27.5 2.34666
    endloop
  endfacet
  facet normal 0 0.83147 -0.55557
    outer loop
      vertex 27.5 27.5 2.34666
      vertex 47.5 26.9105 1.46447
      vertex 27.5 26.9105 1.46447
    endloop
  endfacet
  facet normal 0 0.83147 0.55557
    outer loop
      vertex 47.5 27.5 7.65334
      vertex 27.5 26.9105 8.53553
      vertex 47.5 26.9105 8.53553
    endloop
  endfacet
  facet normal 0 0.83147 0.55557
    outer loop
      vertex 27.5 26.9105 8.53553
      vertex 47.5 27.5 7.65334
      vertex 27.5 27.5 7.65334
    endloop
  endfacet
  facet normal -1 -0 -0
    outer loop
      vertex 27.5 27.5 7.65334
      vertex 27.5 27.9944 6.91342
      vertex 27.5 26.9105 8.53553
    endloop
  endfacet
  facet normal 0 -0.195091 0.980785
    outer loop
      vertex 27.5 23.375 10
      vertex 47.5 21.4616 9.6194
      vertex 47.5 23.375 10
    endloop
  endfacet
  facet normal 0 -0.195091 0.980785
    outer loop
      vertex 47.5 21.4616 9.6194
      vertex 27.5 23.375 10
      vertex 27.5 21.4616 9.6194
    endloop
  endfacet
  facet normal 0 -0.83147 0.55557
    outer loop
      vertex 27.5 18.7556 6.91342
      vertex 47.5 19.8395 8.53553
      vertex 27.5 19.8395 8.53553
    endloop
  endfacet
  facet normal 0 -0.83147 0.55557
    outer loop
      vertex 47.5 19.8395 8.53553
      vertex 27.5 18.7556 6.91342
      vertex 47.5 18.7556 6.91342
    endloop
  endfacet
  facet normal -1 0 0
    outer loop
      vertex 27.5 21.4616 0.380603
      vertex 27.5 22.875 1.64681
      vertex 27.5 22.875 0.0994563
    endloop
  endfacet
  facet normal -1 -0 0
    outer loop
      vertex 27.5 22.875 1.64681
      vertex 27.5 21.4616 0.380603
      vertex 27.5 21.4828 2.05561
    endloop
  endfacet
  facet normal -1 0 0
    outer loop
      vertex 27.5 19.8395 1.46447
      vertex 27.5 21.4828 2.05561
      vertex 27.5 21.4616 0.380603
    endloop
  endfacet
  facet normal -1 0 0
    outer loop
      vertex 27.5 18.7556 3.08658
      vertex 27.5 20.1913 3.54605
      vertex 27.5 19.8395 1.46447
    endloop
  endfacet
  facet normal -1 -0 0
    outer loop
      vertex 27.5 21.4828 2.05561
      vertex 27.5 19.8395 1.46447
      vertex 27.5 20.1913 3.54605
    endloop
  endfacet
  facet normal -1 0 0
    outer loop
      vertex 27.5 26.5587 3.54605
      vertex 27.5 27.5 2.34666
      vertex 27.5 26.9105 1.46447
    endloop
  endfacet
  facet normal -1 0 0
    outer loop
      vertex 27.5 27.5 5
      vertex 27.5 27.9944 6.91342
      vertex 27.5 28.375 5
    endloop
  endfacet
  facet normal -1 0 0
    outer loop
      vertex 27.5 26.8394 5.4981
      vertex 27.5 27.9944 6.91342
      vertex 27.5 27.5 5
    endloop
  endfacet
  facet normal -1 0 0
    outer loop
      vertex 27.5 27.5 2.34666
      vertex 27.5 26.5587 3.54605
      vertex 27.5 27.5 5
    endloop
  endfacet
  facet normal -1 0 0
    outer loop
      vertex 27.5 26.0201 7.29201
      vertex 27.5 27.9944 6.91342
      vertex 27.5 26.8394 5.4981
    endloop
  endfacet
  facet normal -1 -0 0
    outer loop
      vertex 27.5 27.5 5
      vertex 27.5 26.5587 3.54605
      vertex 27.5 26.8394 5.4981
    endloop
  endfacet
  facet normal -1 0 0
    outer loop
      vertex 27.5 25.2672 2.05561
      vertex 27.5 26.9105 1.46447
      vertex 27.5 25.2884 0.380603
    endloop
  endfacet
  facet normal -1 0 0
    outer loop
      vertex 27.5 26.9105 1.46447
      vertex 27.5 25.2672 2.05561
      vertex 27.5 26.5587 3.54605
    endloop
  endfacet
  facet normal -1 0 0
    outer loop
      vertex 27.5 23.875 1.64681
      vertex 27.5 25.2884 0.380603
      vertex 27.5 23.875 0.0994562
    endloop
  endfacet
  facet normal -1 0 0
    outer loop
      vertex 27.5 25.2884 0.380603
      vertex 27.5 23.875 1.64681
      vertex 27.5 25.2672 2.05561
    endloop
  endfacet
  facet normal -1 0 0
    outer loop
      vertex 27.5 27.9944 6.91342
      vertex 27.5 26.0201 7.29201
      vertex 27.5 26.9105 8.53553
    endloop
  endfacet
  facet normal -1 0 0
    outer loop
      vertex 27.5 26.0201 7.29201
      vertex 27.5 25.2884 9.6194
      vertex 27.5 26.9105 8.53553
    endloop
  endfacet
  facet normal -1 0 0
    outer loop
      vertex 27.5 24.3611 8.35822
      vertex 27.5 25.2884 9.6194
      vertex 27.5 26.0201 7.29201
    endloop
  endfacet
  facet normal -1 0 0
    outer loop
      vertex 27.5 24.3611 8.35822
      vertex 27.5 23.375 10
      vertex 27.5 25.2884 9.6194
    endloop
  endfacet
  facet normal -1 0 0
    outer loop
      vertex 27.5 22.3889 8.35822
      vertex 27.5 23.375 10
      vertex 27.5 24.3611 8.35822
    endloop
  endfacet
  facet normal -1 0 0
    outer loop
      vertex 27.5 22.3889 8.35822
      vertex 27.5 21.4616 9.6194
      vertex 27.5 23.375 10
    endloop
  endfacet
  facet normal -1 0 0
    outer loop
      vertex 27.5 20.7299 7.29201
      vertex 27.5 21.4616 9.6194
      vertex 27.5 22.3889 8.35822
    endloop
  endfacet
  facet normal -1 0 0
    outer loop
      vertex 27.5 18.7556 6.91342
      vertex 27.5 20.7299 7.29201
      vertex 27.5 19.9106 5.4981
    endloop
  endfacet
  facet normal -1 0 0
    outer loop
      vertex 27.5 20.7299 7.29201
      vertex 27.5 19.8395 8.53553
      vertex 27.5 21.4616 9.6194
    endloop
  endfacet
  facet normal -1 0 0
    outer loop
      vertex 27.5 18.375 5
      vertex 27.5 20.1913 3.54605
      vertex 27.5 18.7556 3.08658
    endloop
  endfacet
  facet normal -1 0 0
    outer loop
      vertex 27.5 20.1913 3.54605
      vertex 27.5 18.375 5
      vertex 27.5 19.9106 5.4981
    endloop
  endfacet
  facet normal -1 -0 0
    outer loop
      vertex 27.5 20.7299 7.29201
      vertex 27.5 18.7556 6.91342
      vertex 27.5 19.8395 8.53553
    endloop
  endfacet
  facet normal -1 -0 0
    outer loop
      vertex 27.5 19.9106 5.4981
      vertex 27.5 18.375 5
      vertex 27.5 18.7556 6.91342
    endloop
  endfacet
  facet normal 0 -0.55557 0.83147
    outer loop
      vertex 27.5 21.4616 9.6194
      vertex 47.5 19.8395 8.53553
      vertex 47.5 21.4616 9.6194
    endloop
  endfacet
  facet normal 0 -0.55557 0.83147
    outer loop
      vertex 47.5 19.8395 8.53553
      vertex 27.5 21.4616 9.6194
      vertex 27.5 19.8395 8.53553
    endloop
  endfacet
  facet normal 1 0 0
    outer loop
      vertex 47.5 26.0201 7.29201
      vertex 47.5 27.5 7.65334
      vertex 47.5 26.9105 8.53553
    endloop
  endfacet
  facet normal 1 0 0
    outer loop
      vertex 47.5 27.5 7.65334
      vertex 47.5 26.8394 5.4981
      vertex 47.5 27.5 2.34666
    endloop
  endfacet
  facet normal 1 -0 0
    outer loop
      vertex 47.5 26.5587 3.54605
      vertex 47.5 27.5 2.34666
      vertex 47.5 26.8394 5.4981
    endloop
  endfacet
  facet normal 1 0 0
    outer loop
      vertex 47.5 27.5 7.65334
      vertex 47.5 26.0201 7.29201
      vertex 47.5 26.8394 5.4981
    endloop
  endfacet
  facet normal 1 0 0
    outer loop
      vertex 47.5 25.2884 9.6194
      vertex 47.5 26.0201 7.29201
      vertex 47.5 26.9105 8.53553
    endloop
  endfacet
  facet normal 1 0 0
    outer loop
      vertex 47.5 25.2884 9.6194
      vertex 47.5 24.3611 8.35822
      vertex 47.5 26.0201 7.29201
    endloop
  endfacet
  facet normal 1 0 0
    outer loop
      vertex 47.5 23.375 10
      vertex 47.5 24.3611 8.35822
      vertex 47.5 25.2884 9.6194
    endloop
  endfacet
  facet normal 1 0 0
    outer loop
      vertex 47.5 23.375 10
      vertex 47.5 22.3889 8.35822
      vertex 47.5 24.3611 8.35822
    endloop
  endfacet
  facet normal 1 -0 0
    outer loop
      vertex 47.5 21.4616 9.6194
      vertex 47.5 22.3889 8.35822
      vertex 47.5 23.375 10
    endloop
  endfacet
  facet normal 1 0 0
    outer loop
      vertex 47.5 21.4616 9.6194
      vertex 47.5 20.7299 7.29201
      vertex 47.5 22.3889 8.35822
    endloop
  endfacet
  facet normal 1 -0 0
    outer loop
      vertex 47.5 19.8395 8.53553
      vertex 47.5 20.7299 7.29201
      vertex 47.5 21.4616 9.6194
    endloop
  endfacet
  facet normal 1 0 0
    outer loop
      vertex 47.5 18.7556 6.91342
      vertex 47.5 20.7299 7.29201
      vertex 47.5 19.8395 8.53553
    endloop
  endfacet
  facet normal 1 0 0
    outer loop
      vertex 47.5 27.5 2.34666
      vertex 47.5 26.5587 3.54605
      vertex 47.5 26.9105 1.46447
    endloop
  endfacet
  facet normal 1 -0 0
    outer loop
      vertex 47.5 25.2672 2.05561
      vertex 47.5 26.9105 1.46447
      vertex 47.5 26.5587 3.54605
    endloop
  endfacet
  facet normal 1 0 0
    outer loop
      vertex 47.5 26.9105 1.46447
      vertex 47.5 25.2672 2.05561
      vertex 47.5 25.2884 0.380603
    endloop
  endfacet
  facet normal 1 -0 0
    outer loop
      vertex 47.5 23.875 1.64681
      vertex 47.5 25.2884 0.380603
      vertex 47.5 25.2672 2.05561
    endloop
  endfacet
  facet normal 1 0 0
    outer loop
      vertex 47.5 25.2884 0.380603
      vertex 47.5 23.875 1.64681
      vertex 47.5 23.875 0.0994562
    endloop
  endfacet
  facet normal 1 0 0
    outer loop
      vertex 47.5 21.4616 0.380603
      vertex 47.5 22.875 1.64681
      vertex 47.5 21.4828 2.05561
    endloop
  endfacet
  facet normal 1 0 0
    outer loop
      vertex 47.5 22.875 1.64681
      vertex 47.5 21.4616 0.380603
      vertex 47.5 22.875 0.0994563
    endloop
  endfacet
  facet normal 1 0 0
    outer loop
      vertex 47.5 19.8395 1.46447
      vertex 47.5 21.4828 2.05561
      vertex 47.5 20.1913 3.54605
    endloop
  endfacet
  facet normal 1 0 0
    outer loop
      vertex 47.5 21.4828 2.05561
      vertex 47.5 19.8395 1.46447
      vertex 47.5 21.4616 0.380603
    endloop
  endfacet
  facet normal 1 -0 0
    outer loop
      vertex 47.5 18.375 5
      vertex 47.5 20.1913 3.54605
      vertex 47.5 19.9106 5.4981
    endloop
  endfacet
  facet normal 1 0 0
    outer loop
      vertex 47.5 20.7299 7.29201
      vertex 47.5 18.7556 6.91342
      vertex 47.5 19.9106 5.4981
    endloop
  endfacet
  facet normal 1 0 0
    outer loop
      vertex 47.5 18.375 5
      vertex 47.5 19.9106 5.4981
      vertex 47.5 18.7556 6.91342
    endloop
  endfacet
  facet normal 1 0 0
    outer loop
      vertex 47.5 20.1913 3.54605
      vertex 47.5 18.7556 3.08658
      vertex 47.5 19.8395 1.46447
    endloop
  endfacet
  facet normal 1 0 0
    outer loop
      vertex 47.5 20.1913 3.54605
      vertex 47.5 18.375 5
      vertex 47.5 18.7556 3.08658
    endloop
  endfacet
  facet normal -0 0.55557 0.83147
    outer loop
      vertex 27.5 26.9105 8.53553
      vertex 47.5 25.2884 9.6194
      vertex 47.5 26.9105 8.53553
    endloop
  endfacet
  facet normal 0 0.55557 0.83147
    outer loop
      vertex 47.5 25.2884 9.6194
      vertex 27.5 26.9105 8.53553
      vertex 27.5 25.2884 9.6194
    endloop
  endfacet
  facet normal 0 -0.55557 -0.83147
    outer loop
      vertex 27.5 19.8395 1.46447
      vertex 47.5 21.4616 0.380603
      vertex 47.5 19.8395 1.46447
    endloop
  endfacet
  facet normal -0 -0.55557 -0.83147
    outer loop
      vertex 47.5 21.4616 0.380603
      vertex 27.5 19.8395 1.46447
      vertex 27.5 21.4616 0.380603
    endloop
  endfacet
  facet normal 0 -0.83147 -0.55557
    outer loop
      vertex 27.5 19.8395 1.46447
      vertex 47.5 18.7556 3.08658
      vertex 27.5 18.7556 3.08658
    endloop
  endfacet
  facet normal 0 -0.83147 -0.55557
    outer loop
      vertex 47.5 18.7556 3.08658
      vertex 27.5 19.8395 1.46447
      vertex 47.5 19.8395 1.46447
    endloop
  endfacet
  facet normal 0 -0.195091 -0.980785
    outer loop
      vertex 27.5 21.4616 0.380603
      vertex 47.5 22.875 0.0994563
      vertex 47.5 21.4616 0.380603
    endloop
  endfacet
  facet normal -0 -0.195091 -0.980785
    outer loop
      vertex 47.5 22.875 0.0994563
      vertex 27.5 21.4616 0.380603
      vertex 27.5 22.875 0.0994563
    endloop
  endfacet
  facet normal 0 -0.281733 0.959493
    outer loop
      vertex 27.5 25.2672 2.05561
      vertex 47.5 23.875 1.64681
      vertex 47.5 25.2672 2.05561
    endloop
  endfacet
  facet normal 0 -0.281733 0.959493
    outer loop
      vertex 47.5 23.875 1.64681
      vertex 27.5 25.2672 2.05561
      vertex 27.5 23.875 1.64681
    endloop
  endfacet
  facet normal 0 0 -1
    outer loop
      vertex 27.5 22.3889 8.35822
      vertex 47.5 24.3611 8.35822
      vertex 47.5 22.3889 8.35822
    endloop
  endfacet
  facet normal -0 0 -1
    outer loop
      vertex 47.5 24.3611 8.35822
      vertex 27.5 22.3889 8.35822
      vertex 27.5 24.3611 8.35822
    endloop
  endfacet
  facet normal 0 -0.909632 -0.415415
    outer loop
      vertex 27.5 26.8394 5.4981
      vertex 47.5 26.0201 7.29201
      vertex 27.5 26.0201 7.29201
    endloop
  endfacet
  facet normal 0 -0.909632 -0.415415
    outer loop
      vertex 47.5 26.0201 7.29201
      vertex 27.5 26.8394 5.4981
      vertex 47.5 26.8394 5.4981
    endloop
  endfacet
  facet normal 0 -0.540641 -0.841254
    outer loop
      vertex 27.5 24.3611 8.35822
      vertex 47.5 26.0201 7.29201
      vertex 47.5 24.3611 8.35822
    endloop
  endfacet
  facet normal -0 -0.540641 -0.841254
    outer loop
      vertex 47.5 26.0201 7.29201
      vertex 27.5 24.3611 8.35822
      vertex 27.5 26.0201 7.29201
    endloop
  endfacet
  facet normal -0 0.281733 0.959493
    outer loop
      vertex 27.5 22.875 1.64681
      vertex 47.5 21.4828 2.05561
      vertex 47.5 22.875 1.64681
    endloop
  endfacet
  facet normal 0 0.281733 0.959493
    outer loop
      vertex 47.5 21.4828 2.05561
      vertex 27.5 22.875 1.64681
      vertex 27.5 21.4828 2.05561
    endloop
  endfacet
  facet normal 0 -0.989821 0.142315
    outer loop
      vertex 27.5 26.5587 3.54605
      vertex 47.5 26.8394 5.4981
      vertex 27.5 26.8394 5.4981
    endloop
  endfacet
  facet normal 0 -0.989821 0.142315
    outer loop
      vertex 47.5 26.8394 5.4981
      vertex 27.5 26.5587 3.54605
      vertex 47.5 26.5587 3.54605
    endloop
  endfacet
  facet normal 0 -0.755749 0.654861
    outer loop
      vertex 27.5 25.2672 2.05561
      vertex 47.5 26.5587 3.54605
      vertex 27.5 26.5587 3.54605
    endloop
  endfacet
  facet normal 0 -0.755749 0.654861
    outer loop
      vertex 47.5 26.5587 3.54605
      vertex 27.5 25.2672 2.05561
      vertex 47.5 25.2672 2.05561
    endloop
  endfacet
  facet normal 0 0.540641 -0.841254
    outer loop
      vertex 27.5 20.7299 7.29201
      vertex 47.5 22.3889 8.35822
      vertex 47.5 20.7299 7.29201
    endloop
  endfacet
  facet normal 0 0.540641 -0.841254
    outer loop
      vertex 47.5 22.3889 8.35822
      vertex 27.5 20.7299 7.29201
      vertex 27.5 22.3889 8.35822
    endloop
  endfacet
  facet normal 0 0.755749 0.654861
    outer loop
      vertex 47.5 21.4828 2.05561
      vertex 27.5 20.1913 3.54605
      vertex 47.5 20.1913 3.54605
    endloop
  endfacet
  facet normal 0 0.755749 0.654861
    outer loop
      vertex 27.5 20.1913 3.54605
      vertex 47.5 21.4828 2.05561
      vertex 27.5 21.4828 2.05561
    endloop
  endfacet
  facet normal 0 0.909632 -0.415415
    outer loop
      vertex 47.5 19.9106 5.4981
      vertex 27.5 20.7299 7.29201
      vertex 47.5 20.7299 7.29201
    endloop
  endfacet
  facet normal 0 0.909632 -0.415415
    outer loop
      vertex 27.5 20.7299 7.29201
      vertex 47.5 19.9106 5.4981
      vertex 27.5 19.9106 5.4981
    endloop
  endfacet
  facet normal 0 0.989821 0.142315
    outer loop
      vertex 47.5 20.1913 3.54605
      vertex 27.5 19.9106 5.4981
      vertex 47.5 19.9106 5.4981
    endloop
  endfacet
  facet normal 0 0.989821 0.142315
    outer loop
      vertex 27.5 19.9106 5.4981
      vertex 47.5 20.1913 3.54605
      vertex 27.5 20.1913 3.54605
    endloop
  endfacet
  facet normal 0 -1 0
    outer loop
      vertex 27.5 23.875 0.0994562
      vertex 47.5 23.875 1.64681
      vertex 27.5 23.875 1.64681
    endloop
  endfacet
  facet normal 0 -1 -0
    outer loop
      vertex 47.5 23.875 1.64681
      vertex 27.5 23.875 0.0994562
      vertex 47.5 23.875 0.0994562
    endloop
  endfacet
  facet normal 0 1 -0
    outer loop
      vertex 47.5 22.875 0.0994563
      vertex 27.5 22.875 1.64681
      vertex 47.5 22.875 1.64681
    endloop
  endfacet
  facet normal 0 1 0
    outer loop
      vertex 27.5 22.875 1.64681
      vertex 47.5 22.875 0.0994563
      vertex 27.5 22.875 0.0994563
    endloop
  endfacet
endsolid OpenSCAD_Model
