solid OpenSCAD_Model
  facet normal -0.994522 -0.104528 0
    outer loop
      vertex 11.575 6 0
      vertex 11.54 6.33266 15.6
      vertex 11.54 6.33266 0
    endloop
  endfacet
  facet normal -0.994522 -0.104528 0
    outer loop
      vertex 11.54 6.33266 15.6
      vertex 11.575 6 0
      vertex 11.575 6 15.6
    endloop
  endfacet
  facet normal 0.994522 -0.104528 0
    outer loop
      vertex 8.375 6 15.6
      vertex 8.40996 6.33266 0
      vertex 8.40996 6.33266 15.6
    endloop
  endfacet
  facet normal 0.994522 -0.104528 0
    outer loop
      vertex 8.40996 6.33266 0
      vertex 8.375 6 15.6
      vertex 8.375 6 0
    endloop
  endfacet
  facet normal 0 -1 0
    outer loop
      vertex 9.80776 7.59123 0
      vertex 10.1422 7.59123 15.6
      vertex 9.80776 7.59123 15.6
    endloop
  endfacet
  facet normal 0 -1 -0
    outer loop
      vertex 10.1422 7.59123 15.6
      vertex 9.80776 7.59123 0
      vertex 10.1422 7.59123 0
    endloop
  endfacet
  facet normal 0 1 -0
    outer loop
      vertex 10.1422 4.40877 0
      vertex 9.80776 4.40877 15.6
      vertex 10.1422 4.40877 15.6
    endloop
  endfacet
  facet normal 0 1 0
    outer loop
      vertex 9.80776 4.40877 15.6
      vertex 10.1422 4.40877 0
      vertex 9.80776 4.40877 0
    endloop
  endfacet
  facet normal -0.743144 -0.669132 0
    outer loop
      vertex 11.2694 6.94046 0
      vertex 11.0456 7.18903 15.6
      vertex 11.0456 7.18903 0
    endloop
  endfacet
  facet normal -0.743144 -0.669132 0
    outer loop
      vertex 11.0456 7.18903 15.6
      vertex 11.2694 6.94046 0
      vertex 11.2694 6.94046 15.6
    endloop
  endfacet
  facet normal 0.743144 -0.669132 0
    outer loop
      vertex 8.68057 6.94046 15.6
      vertex 8.90439 7.18903 0
      vertex 8.90439 7.18903 15.6
    endloop
  endfacet
  facet normal 0.743144 -0.669132 0
    outer loop
      vertex 8.90439 7.18903 0
      vertex 8.68057 6.94046 15.6
      vertex 8.68057 6.94046 0
    endloop
  endfacet
  facet normal 0.406738 -0.913545 0
    outer loop
      vertex 9.175 7.38564 0
      vertex 9.48057 7.52169 15.6
      vertex 9.175 7.38564 15.6
    endloop
  endfacet
  facet normal 0.406738 -0.913545 0
    outer loop
      vertex 9.48057 7.52169 15.6
      vertex 9.175 7.38564 0
      vertex 9.48057 7.52169 0
    endloop
  endfacet
  facet normal -0.951056 0.309018 0
    outer loop
      vertex 11.4367 5.34922 0
      vertex 11.54 5.66734 15.6
      vertex 11.54 5.66734 0
    endloop
  endfacet
  facet normal -0.951056 0.309018 0
    outer loop
      vertex 11.54 5.66734 15.6
      vertex 11.4367 5.34922 0
      vertex 11.4367 5.34922 15.6
    endloop
  endfacet
  facet normal -0.866027 -0.499998 0
    outer loop
      vertex 11.4367 6.65078 0
      vertex 11.2694 6.94046 15.6
      vertex 11.2694 6.94046 0
    endloop
  endfacet
  facet normal -0.866027 -0.499998 0
    outer loop
      vertex 11.2694 6.94046 15.6
      vertex 11.4367 6.65078 0
      vertex 11.4367 6.65078 15.6
    endloop
  endfacet
  facet normal -0.951056 -0.309018 0
    outer loop
      vertex 11.54 6.33266 0
      vertex 11.4367 6.65078 15.6
      vertex 11.4367 6.65078 0
    endloop
  endfacet
  facet normal -0.951056 -0.309018 0
    outer loop
      vertex 11.4367 6.65078 15.6
      vertex 11.54 6.33266 0
      vertex 11.54 6.33266 15.6
    endloop
  endfacet
  facet normal -0.406738 -0.913545 0
    outer loop
      vertex 10.4694 7.52169 0
      vertex 10.775 7.38564 15.6
      vertex 10.4694 7.52169 15.6
    endloop
  endfacet
  facet normal -0.406738 -0.913545 -0
    outer loop
      vertex 10.775 7.38564 15.6
      vertex 10.4694 7.52169 0
      vertex 10.775 7.38564 0
    endloop
  endfacet
  facet normal -0.207909 -0.978148 0
    outer loop
      vertex 10.1422 7.59123 0
      vertex 10.4694 7.52169 15.6
      vertex 10.1422 7.59123 15.6
    endloop
  endfacet
  facet normal -0.207909 -0.978148 -0
    outer loop
      vertex 10.4694 7.52169 15.6
      vertex 10.1422 7.59123 0
      vertex 10.4694 7.52169 0
    endloop
  endfacet
  facet normal -0.587785 -0.809017 0
    outer loop
      vertex 10.775 7.38564 0
      vertex 11.0456 7.18903 15.6
      vertex 10.775 7.38564 15.6
    endloop
  endfacet
  facet normal -0.587785 -0.809017 -0
    outer loop
      vertex 11.0456 7.18903 15.6
      vertex 10.775 7.38564 0
      vertex 11.0456 7.18903 0
    endloop
  endfacet
  facet normal 0.866027 -0.499998 0
    outer loop
      vertex 8.51333 6.65078 15.6
      vertex 8.68057 6.94046 0
      vertex 8.68057 6.94046 15.6
    endloop
  endfacet
  facet normal 0.866027 -0.499998 0
    outer loop
      vertex 8.68057 6.94046 0
      vertex 8.51333 6.65078 15.6
      vertex 8.51333 6.65078 0
    endloop
  endfacet
  facet normal 0.951056 -0.309018 0
    outer loop
      vertex 8.40996 6.33266 15.6
      vertex 8.51333 6.65078 0
      vertex 8.51333 6.65078 15.6
    endloop
  endfacet
  facet normal 0.951056 -0.309018 0
    outer loop
      vertex 8.51333 6.65078 0
      vertex 8.40996 6.33266 15.6
      vertex 8.40996 6.33266 0
    endloop
  endfacet
  facet normal 0.587785 -0.809017 0
    outer loop
      vertex 8.90439 7.18903 0
      vertex 9.175 7.38564 15.6
      vertex 8.90439 7.18903 15.6
    endloop
  endfacet
  facet normal 0.587785 -0.809017 0
    outer loop
      vertex 9.175 7.38564 15.6
      vertex 8.90439 7.18903 0
      vertex 9.175 7.38564 0
    endloop
  endfacet
  facet normal 0.207909 -0.978148 0
    outer loop
      vertex 9.48057 7.52169 0
      vertex 9.80776 7.59123 15.6
      vertex 9.48057 7.52169 15.6
    endloop
  endfacet
  facet normal 0.207909 -0.978148 0
    outer loop
      vertex 9.80776 7.59123 15.6
      vertex 9.48057 7.52169 0
      vertex 9.80776 7.59123 0
    endloop
  endfacet
  facet normal -0.994522 0.104528 0
    outer loop
      vertex 11.54 5.66734 0
      vertex 11.575 6 15.6
      vertex 11.575 6 0
    endloop
  endfacet
  facet normal -0.994522 0.104528 0
    outer loop
      vertex 11.575 6 15.6
      vertex 11.54 5.66734 0
      vertex 11.54 5.66734 15.6
    endloop
  endfacet
  facet normal -0.207909 0.978148 0
    outer loop
      vertex 10.4694 4.47831 0
      vertex 10.1422 4.40877 15.6
      vertex 10.4694 4.47831 15.6
    endloop
  endfacet
  facet normal -0.207909 0.978148 0
    outer loop
      vertex 10.1422 4.40877 15.6
      vertex 10.4694 4.47831 0
      vertex 10.1422 4.40877 0
    endloop
  endfacet
  facet normal -0.866027 0.499998 0
    outer loop
      vertex 11.2694 5.05954 0
      vertex 11.4367 5.34922 15.6
      vertex 11.4367 5.34922 0
    endloop
  endfacet
  facet normal -0.866027 0.499998 0
    outer loop
      vertex 11.4367 5.34922 15.6
      vertex 11.2694 5.05954 0
      vertex 11.2694 5.05954 15.6
    endloop
  endfacet
  facet normal 0 0 -1
    outer loop
      vertex 11.2694 6.94046 0
      vertex 19.95 0 0
      vertex 11.4367 6.65078 0
    endloop
  endfacet
  facet normal 0 0 -1
    outer loop
      vertex 19.95 60 0
      vertex 11.54 54.6673 0
      vertex 11.575 55 0
    endloop
  endfacet
  facet normal 0 0 -1
    outer loop
      vertex 19.95 0 0
      vertex 11.2694 6.94046 0
      vertex 19.95 60 0
    endloop
  endfacet
  facet normal 0 0 -1
    outer loop
      vertex 19.95 60 0
      vertex 11.4367 54.3492 0
      vertex 11.54 54.6673 0
    endloop
  endfacet
  facet normal 0 0 -1
    outer loop
      vertex 11.0456 7.18903 0
      vertex 19.95 60 0
      vertex 11.2694 6.94046 0
    endloop
  endfacet
  facet normal 0 0 -1
    outer loop
      vertex 19.95 60 0
      vertex 11.2694 54.0595 0
      vertex 11.4367 54.3492 0
    endloop
  endfacet
  facet normal 0 0 -1
    outer loop
      vertex 11.0456 53.811 0
      vertex 19.95 60 0
      vertex 11.0456 7.18903 0
    endloop
  endfacet
  facet normal 0 0 -1
    outer loop
      vertex 19.95 60 0
      vertex 11.0456 53.811 0
      vertex 11.2694 54.0595 0
    endloop
  endfacet
  facet normal 0 0 -1
    outer loop
      vertex 10.775 7.38564 0
      vertex 11.0456 53.811 0
      vertex 11.0456 7.18903 0
    endloop
  endfacet
  facet normal 0 0 -1
    outer loop
      vertex 10.775 7.38564 0
      vertex 10.775 53.6144 0
      vertex 11.0456 53.811 0
    endloop
  endfacet
  facet normal 0 0 -1
    outer loop
      vertex 10.4694 7.52169 0
      vertex 10.775 53.6144 0
      vertex 10.775 7.38564 0
    endloop
  endfacet
  facet normal 0 0 -1
    outer loop
      vertex 10.4694 7.52169 0
      vertex 10.4694 53.4783 0
      vertex 10.775 53.6144 0
    endloop
  endfacet
  facet normal 0 0 -1
    outer loop
      vertex 10.1422 7.59123 0
      vertex 10.4694 53.4783 0
      vertex 10.4694 7.52169 0
    endloop
  endfacet
  facet normal 0 0 -1
    outer loop
      vertex 10.1422 7.59123 0
      vertex 10.1422 53.4088 0
      vertex 10.4694 53.4783 0
    endloop
  endfacet
  facet normal 0 0 -1
    outer loop
      vertex 9.80776 7.59123 0
      vertex 10.1422 53.4088 0
      vertex 10.1422 7.59123 0
    endloop
  endfacet
  facet normal 0 0 -1
    outer loop
      vertex 9.80776 7.59123 0
      vertex 9.80776 53.4088 0
      vertex 10.1422 53.4088 0
    endloop
  endfacet
  facet normal 0 0 -1
    outer loop
      vertex 9.48057 7.52169 0
      vertex 9.80776 53.4088 0
      vertex 9.80776 7.59123 0
    endloop
  endfacet
  facet normal 0 0 -1
    outer loop
      vertex 9.48057 7.52169 0
      vertex 9.48057 53.4783 0
      vertex 9.80776 53.4088 0
    endloop
  endfacet
  facet normal 0 0 -1
    outer loop
      vertex 9.175 7.38564 0
      vertex 9.48057 53.4783 0
      vertex 9.48057 7.52169 0
    endloop
  endfacet
  facet normal 0 0 -1
    outer loop
      vertex 9.175 7.38564 0
      vertex 9.175 53.6144 0
      vertex 9.48057 53.4783 0
    endloop
  endfacet
  facet normal 0 0 -1
    outer loop
      vertex 8.90439 7.18903 0
      vertex 9.175 53.6144 0
      vertex 9.175 7.38564 0
    endloop
  endfacet
  facet normal 0 0 -1
    outer loop
      vertex 8.90439 7.18903 0
      vertex 8.90439 53.811 0
      vertex 9.175 53.6144 0
    endloop
  endfacet
  facet normal 0 0 -1
    outer loop
      vertex 0 60 0
      vertex 8.90439 7.18903 0
      vertex 8.68057 6.94046 0
    endloop
  endfacet
  facet normal 0 0 -1
    outer loop
      vertex 8.90439 7.18903 0
      vertex 0 60 0
      vertex 8.90439 53.811 0
    endloop
  endfacet
  facet normal 0 0 -1
    outer loop
      vertex 0 0 0
      vertex 8.68057 6.94046 0
      vertex 8.51333 6.65078 0
    endloop
  endfacet
  facet normal 0 0 -1
    outer loop
      vertex 8.90439 53.811 0
      vertex 0 60 0
      vertex 8.68057 54.0595 0
    endloop
  endfacet
  facet normal 0 0 -1
    outer loop
      vertex 0 0 0
      vertex 8.51333 6.65078 0
      vertex 8.40996 6.33266 0
    endloop
  endfacet
  facet normal 0 0 -1
    outer loop
      vertex 8.68057 54.0595 0
      vertex 0 60 0
      vertex 8.51333 54.3492 0
    endloop
  endfacet
  facet normal 0 0 -1
    outer loop
      vertex 0 0 0
      vertex 8.40996 6.33266 0
      vertex 8.375 6 0
    endloop
  endfacet
  facet normal 0 0 -1
    outer loop
      vertex 8.51333 54.3492 0
      vertex 0 60 0
      vertex 8.40996 54.6673 0
    endloop
  endfacet
  facet normal 0 0 -1
    outer loop
      vertex 11.54 6.33266 0
      vertex 19.95 0 0
      vertex 11.575 6 0
    endloop
  endfacet
  facet normal 0 0 -1
    outer loop
      vertex 19.95 0 0
      vertex 11.54 5.66734 0
      vertex 11.575 6 0
    endloop
  endfacet
  facet normal 0 0 -1
    outer loop
      vertex 19.95 0 0
      vertex 11.4367 5.34922 0
      vertex 11.54 5.66734 0
    endloop
  endfacet
  facet normal 0 0 -1
    outer loop
      vertex 19.95 0 0
      vertex 11.2694 5.05954 0
      vertex 11.4367 5.34922 0
    endloop
  endfacet
  facet normal 0 0 -1
    outer loop
      vertex 19.95 0 0
      vertex 11.0456 4.81097 0
      vertex 11.2694 5.05954 0
    endloop
  endfacet
  facet normal 0 0 -1
    outer loop
      vertex 19.95 0 0
      vertex 10.775 4.61436 0
      vertex 11.0456 4.81097 0
    endloop
  endfacet
  facet normal 0 0 -1
    outer loop
      vertex 19.95 0 0
      vertex 10.4694 4.47831 0
      vertex 10.775 4.61436 0
    endloop
  endfacet
  facet normal 0 0 -1
    outer loop
      vertex 19.95 0 0
      vertex 10.1422 4.40877 0
      vertex 10.4694 4.47831 0
    endloop
  endfacet
  facet normal 0 0 -1
    outer loop
      vertex 19.95 0 0
      vertex 9.80776 4.40877 0
      vertex 10.1422 4.40877 0
    endloop
  endfacet
  facet normal 0 0 -1
    outer loop
      vertex 0 0 0
      vertex 9.80776 4.40877 0
      vertex 19.95 0 0
    endloop
  endfacet
  facet normal -0 0 -1
    outer loop
      vertex 8.68057 6.94046 0
      vertex 0 0 0
      vertex 0 60 0
    endloop
  endfacet
  facet normal -0 0 -1
    outer loop
      vertex 8.40996 5.66734 0
      vertex 0 0 0
      vertex 8.375 6 0
    endloop
  endfacet
  facet normal -0 0 -1
    outer loop
      vertex 8.51333 5.34922 0
      vertex 0 0 0
      vertex 8.40996 5.66734 0
    endloop
  endfacet
  facet normal -0 0 -1
    outer loop
      vertex 8.68057 5.05954 0
      vertex 0 0 0
      vertex 8.51333 5.34922 0
    endloop
  endfacet
  facet normal -0 0 -1
    outer loop
      vertex 8.90439 4.81097 0
      vertex 0 0 0
      vertex 8.68057 5.05954 0
    endloop
  endfacet
  facet normal -0 0 -1
    outer loop
      vertex 9.175 4.61436 0
      vertex 0 0 0
      vertex 8.90439 4.81097 0
    endloop
  endfacet
  facet normal -0 0 -1
    outer loop
      vertex 9.48057 4.47831 0
      vertex 0 0 0
      vertex 9.175 4.61436 0
    endloop
  endfacet
  facet normal -0 0 -1
    outer loop
      vertex 9.80776 4.40877 0
      vertex 0 0 0
      vertex 9.48057 4.47831 0
    endloop
  endfacet
  facet normal 0 0 -1
    outer loop
      vertex 11.4367 6.65078 0
      vertex 19.95 0 0
      vertex 11.54 6.33266 0
    endloop
  endfacet
  facet normal 0 0 -1
    outer loop
      vertex 11.54 55.3327 0
      vertex 19.95 60 0
      vertex 11.575 55 0
    endloop
  endfacet
  facet normal 0 0 -1
    outer loop
      vertex 11.4367 55.6508 0
      vertex 19.95 60 0
      vertex 11.54 55.3327 0
    endloop
  endfacet
  facet normal 0 0 -1
    outer loop
      vertex 11.2694 55.9405 0
      vertex 19.95 60 0
      vertex 11.4367 55.6508 0
    endloop
  endfacet
  facet normal 0 0 -1
    outer loop
      vertex 11.0456 56.189 0
      vertex 19.95 60 0
      vertex 11.2694 55.9405 0
    endloop
  endfacet
  facet normal 0 0 -1
    outer loop
      vertex 10.775 56.3856 0
      vertex 19.95 60 0
      vertex 11.0456 56.189 0
    endloop
  endfacet
  facet normal 0 0 -1
    outer loop
      vertex 10.4694 56.5217 0
      vertex 19.95 60 0
      vertex 10.775 56.3856 0
    endloop
  endfacet
  facet normal 0 0 -1
    outer loop
      vertex 10.1422 56.5912 0
      vertex 19.95 60 0
      vertex 10.4694 56.5217 0
    endloop
  endfacet
  facet normal 0 0 -1
    outer loop
      vertex 9.80776 56.5912 0
      vertex 19.95 60 0
      vertex 10.1422 56.5912 0
    endloop
  endfacet
  facet normal 0 0 -1
    outer loop
      vertex 0 60 0
      vertex 9.80776 56.5912 0
      vertex 9.48057 56.5217 0
    endloop
  endfacet
  facet normal 0 0 -1
    outer loop
      vertex 8.40996 54.6673 0
      vertex 0 60 0
      vertex 8.375 55 0
    endloop
  endfacet
  facet normal 0 0 -1
    outer loop
      vertex 9.80776 56.5912 0
      vertex 0 60 0
      vertex 19.95 60 0
    endloop
  endfacet
  facet normal 0 0 -1
    outer loop
      vertex 9.175 56.3856 0
      vertex 0 60 0
      vertex 9.48057 56.5217 0
    endloop
  endfacet
  facet normal 0 0 -1
    outer loop
      vertex 8.90439 56.189 0
      vertex 0 60 0
      vertex 9.175 56.3856 0
    endloop
  endfacet
  facet normal 0 0 -1
    outer loop
      vertex 8.68057 55.9405 0
      vertex 0 60 0
      vertex 8.90439 56.189 0
    endloop
  endfacet
  facet normal 0 0 -1
    outer loop
      vertex 8.51333 55.6508 0
      vertex 0 60 0
      vertex 8.68057 55.9405 0
    endloop
  endfacet
  facet normal 0 0 -1
    outer loop
      vertex 8.40996 55.3327 0
      vertex 0 60 0
      vertex 8.51333 55.6508 0
    endloop
  endfacet
  facet normal 0 0 -1
    outer loop
      vertex 8.375 55 0
      vertex 0 60 0
      vertex 8.40996 55.3327 0
    endloop
  endfacet
  facet normal -0.587785 0.809017 0
    outer loop
      vertex 11.0456 4.81097 0
      vertex 10.775 4.61436 15.6
      vertex 11.0456 4.81097 15.6
    endloop
  endfacet
  facet normal -0.587785 0.809017 0
    outer loop
      vertex 10.775 4.61436 15.6
      vertex 11.0456 4.81097 0
      vertex 10.775 4.61436 0
    endloop
  endfacet
  facet normal -0.406738 0.913545 0
    outer loop
      vertex 10.775 4.61436 0
      vertex 10.4694 4.47831 15.6
      vertex 10.775 4.61436 15.6
    endloop
  endfacet
  facet normal -0.406738 0.913545 0
    outer loop
      vertex 10.4694 4.47831 15.6
      vertex 10.775 4.61436 0
      vertex 10.4694 4.47831 0
    endloop
  endfacet
  facet normal 0.207909 0.978148 -0
    outer loop
      vertex 9.80776 4.40877 0
      vertex 9.48057 4.47831 15.6
      vertex 9.80776 4.40877 15.6
    endloop
  endfacet
  facet normal 0.207909 0.978148 0
    outer loop
      vertex 9.48057 4.47831 15.6
      vertex 9.80776 4.40877 0
      vertex 9.48057 4.47831 0
    endloop
  endfacet
  facet normal 0.743144 0.669132 0
    outer loop
      vertex 8.90439 4.81097 15.6
      vertex 8.68057 5.05954 0
      vertex 8.68057 5.05954 15.6
    endloop
  endfacet
  facet normal 0.743144 0.669132 0
    outer loop
      vertex 8.68057 5.05954 0
      vertex 8.90439 4.81097 15.6
      vertex 8.90439 4.81097 0
    endloop
  endfacet
  facet normal 0.866027 0.499998 0
    outer loop
      vertex 8.68057 5.05954 15.6
      vertex 8.51333 5.34922 0
      vertex 8.51333 5.34922 15.6
    endloop
  endfacet
  facet normal 0.866027 0.499998 0
    outer loop
      vertex 8.51333 5.34922 0
      vertex 8.68057 5.05954 15.6
      vertex 8.68057 5.05954 0
    endloop
  endfacet
  facet normal 0.951056 0.309018 0
    outer loop
      vertex 8.51333 5.34922 15.6
      vertex 8.40996 5.66734 0
      vertex 8.40996 5.66734 15.6
    endloop
  endfacet
  facet normal 0.951056 0.309018 0
    outer loop
      vertex 8.40996 5.66734 0
      vertex 8.51333 5.34922 15.6
      vertex 8.51333 5.34922 0
    endloop
  endfacet
  facet normal 0.994522 0.104528 0
    outer loop
      vertex 8.40996 5.66734 15.6
      vertex 8.375 6 0
      vertex 8.375 6 15.6
    endloop
  endfacet
  facet normal 0.994522 0.104528 0
    outer loop
      vertex 8.375 6 0
      vertex 8.40996 5.66734 15.6
      vertex 8.40996 5.66734 0
    endloop
  endfacet
  facet normal -0.743144 0.669132 0
    outer loop
      vertex 11.0456 4.81097 0
      vertex 11.2694 5.05954 15.6
      vertex 11.2694 5.05954 0
    endloop
  endfacet
  facet normal -0.743144 0.669132 0
    outer loop
      vertex 11.2694 5.05954 15.6
      vertex 11.0456 4.81097 0
      vertex 11.0456 4.81097 15.6
    endloop
  endfacet
  facet normal 0.406738 0.913545 -0
    outer loop
      vertex 9.48057 4.47831 0
      vertex 9.175 4.61436 15.6
      vertex 9.48057 4.47831 15.6
    endloop
  endfacet
  facet normal 0.406738 0.913545 0
    outer loop
      vertex 9.175 4.61436 15.6
      vertex 9.48057 4.47831 0
      vertex 9.175 4.61436 0
    endloop
  endfacet
  facet normal 0.587785 0.809017 -0
    outer loop
      vertex 9.175 4.61436 0
      vertex 8.90439 4.81097 15.6
      vertex 9.175 4.61436 15.6
    endloop
  endfacet
  facet normal 0.587785 0.809017 0
    outer loop
      vertex 8.90439 4.81097 15.6
      vertex 9.175 4.61436 0
      vertex 8.90439 4.81097 0
    endloop
  endfacet
  facet normal -0.866025 -0.5 0
    outer loop
      vertex 14.0251 6 15.6
      vertex 12 9.50749 18
      vertex 12 9.50749 15.6
    endloop
  endfacet
  facet normal -0.866025 -0.5 0
    outer loop
      vertex 12 9.50749 18
      vertex 14.0251 6 15.6
      vertex 14.0251 6 18
    endloop
  endfacet
  facet normal 0.866025 -0.5 0
    outer loop
      vertex 5.9249 6 18
      vertex 7.94995 9.50749 15.6
      vertex 7.94995 9.50749 18
    endloop
  endfacet
  facet normal 0.866025 -0.5 0
    outer loop
      vertex 7.94995 9.50749 15.6
      vertex 5.9249 6 18
      vertex 5.9249 6 15.6
    endloop
  endfacet
  facet normal 0 -1 0
    outer loop
      vertex 7.94995 9.50749 15.6
      vertex 12 9.50749 18
      vertex 7.94995 9.50749 18
    endloop
  endfacet
  facet normal 0 -1 -0
    outer loop
      vertex 12 9.50749 18
      vertex 7.94995 9.50749 15.6
      vertex 12 9.50749 15.6
    endloop
  endfacet
  facet normal -0 0 1
    outer loop
      vertex 11.4367 6.65078 15.6
      vertex 14.0251 6 15.6
      vertex 12 9.50749 15.6
    endloop
  endfacet
  facet normal 0 0 1
    outer loop
      vertex 11.54 5.66734 15.6
      vertex 14.0251 6 15.6
      vertex 11.575 6 15.6
    endloop
  endfacet
  facet normal 0 0 1
    outer loop
      vertex 14.0251 6 15.6
      vertex 11.54 6.33266 15.6
      vertex 11.575 6 15.6
    endloop
  endfacet
  facet normal 0 0 1
    outer loop
      vertex 14.0251 6 15.6
      vertex 11.4367 6.65078 15.6
      vertex 11.54 6.33266 15.6
    endloop
  endfacet
  facet normal 0 0 1
    outer loop
      vertex 12 9.50749 15.6
      vertex 11.2694 6.94046 15.6
      vertex 11.4367 6.65078 15.6
    endloop
  endfacet
  facet normal 0 0 1
    outer loop
      vertex 12 9.50749 15.6
      vertex 11.0456 7.18903 15.6
      vertex 11.2694 6.94046 15.6
    endloop
  endfacet
  facet normal 0 0 1
    outer loop
      vertex 12 9.50749 15.6
      vertex 10.775 7.38564 15.6
      vertex 11.0456 7.18903 15.6
    endloop
  endfacet
  facet normal 0 0 1
    outer loop
      vertex 12 9.50749 15.6
      vertex 10.4694 7.52169 15.6
      vertex 10.775 7.38564 15.6
    endloop
  endfacet
  facet normal 0 0 1
    outer loop
      vertex 12 9.50749 15.6
      vertex 10.1422 7.59123 15.6
      vertex 10.4694 7.52169 15.6
    endloop
  endfacet
  facet normal 0 0 1
    outer loop
      vertex 12 9.50749 15.6
      vertex 9.80776 7.59123 15.6
      vertex 10.1422 7.59123 15.6
    endloop
  endfacet
  facet normal -0 0 1
    outer loop
      vertex 7.94995 9.50749 15.6
      vertex 9.80776 7.59123 15.6
      vertex 12 9.50749 15.6
    endloop
  endfacet
  facet normal 0 0 1
    outer loop
      vertex 9.80776 7.59123 15.6
      vertex 7.94995 9.50749 15.6
      vertex 9.48057 7.52169 15.6
    endloop
  endfacet
  facet normal 0 0 1
    outer loop
      vertex 9.48057 7.52169 15.6
      vertex 7.94995 9.50749 15.6
      vertex 9.175 7.38564 15.6
    endloop
  endfacet
  facet normal 0 0 1
    outer loop
      vertex 8.51333 6.65078 15.6
      vertex 5.9249 6 15.6
      vertex 8.40996 6.33266 15.6
    endloop
  endfacet
  facet normal 0 0 1
    outer loop
      vertex 5.9249 6 15.6
      vertex 8.51333 6.65078 15.6
      vertex 7.94995 9.50749 15.6
    endloop
  endfacet
  facet normal 0 0 1
    outer loop
      vertex 8.68057 6.94046 15.6
      vertex 7.94995 9.50749 15.6
      vertex 8.51333 6.65078 15.6
    endloop
  endfacet
  facet normal 0 0 1
    outer loop
      vertex 8.90439 7.18903 15.6
      vertex 7.94995 9.50749 15.6
      vertex 8.68057 6.94046 15.6
    endloop
  endfacet
  facet normal 0 0 1
    outer loop
      vertex 9.175 7.38564 15.6
      vertex 7.94995 9.50749 15.6
      vertex 8.90439 7.18903 15.6
    endloop
  endfacet
  facet normal 0 0 1
    outer loop
      vertex 11.4367 5.34922 15.6
      vertex 14.0251 6 15.6
      vertex 11.54 5.66734 15.6
    endloop
  endfacet
  facet normal 0 0 1
    outer loop
      vertex 14.0251 6 15.6
      vertex 11.4367 5.34922 15.6
      vertex 12 2.49251 15.6
    endloop
  endfacet
  facet normal -0 0 1
    outer loop
      vertex 11.2694 5.05954 15.6
      vertex 12 2.49251 15.6
      vertex 11.4367 5.34922 15.6
    endloop
  endfacet
  facet normal -0 0 1
    outer loop
      vertex 11.0456 4.81097 15.6
      vertex 12 2.49251 15.6
      vertex 11.2694 5.05954 15.6
    endloop
  endfacet
  facet normal -0 0 1
    outer loop
      vertex 10.775 4.61436 15.6
      vertex 12 2.49251 15.6
      vertex 11.0456 4.81097 15.6
    endloop
  endfacet
  facet normal -0 0 1
    outer loop
      vertex 10.4694 4.47831 15.6
      vertex 12 2.49251 15.6
      vertex 10.775 4.61436 15.6
    endloop
  endfacet
  facet normal -0 0 1
    outer loop
      vertex 10.1422 4.40877 15.6
      vertex 12 2.49251 15.6
      vertex 10.4694 4.47831 15.6
    endloop
  endfacet
  facet normal -0 0 1
    outer loop
      vertex 9.80776 4.40877 15.6
      vertex 12 2.49251 15.6
      vertex 10.1422 4.40877 15.6
    endloop
  endfacet
  facet normal 0 0 1
    outer loop
      vertex 7.94995 2.49251 15.6
      vertex 9.80776 4.40877 15.6
      vertex 9.48057 4.47831 15.6
    endloop
  endfacet
  facet normal 0 0 1
    outer loop
      vertex 7.94995 2.49251 15.6
      vertex 9.48057 4.47831 15.6
      vertex 9.175 4.61436 15.6
    endloop
  endfacet
  facet normal 0 0 1
    outer loop
      vertex 7.94995 2.49251 15.6
      vertex 9.175 4.61436 15.6
      vertex 8.90439 4.81097 15.6
    endloop
  endfacet
  facet normal 0 0 1
    outer loop
      vertex 8.40996 6.33266 15.6
      vertex 5.9249 6 15.6
      vertex 8.375 6 15.6
    endloop
  endfacet
  facet normal 0 0 1
    outer loop
      vertex 9.80776 4.40877 15.6
      vertex 7.94995 2.49251 15.6
      vertex 12 2.49251 15.6
    endloop
  endfacet
  facet normal 0 0 1
    outer loop
      vertex 8.68057 5.05954 15.6
      vertex 7.94995 2.49251 15.6
      vertex 8.90439 4.81097 15.6
    endloop
  endfacet
  facet normal 0 0 1
    outer loop
      vertex 8.51333 5.34922 15.6
      vertex 7.94995 2.49251 15.6
      vertex 8.68057 5.05954 15.6
    endloop
  endfacet
  facet normal 0 0 1
    outer loop
      vertex 5.9249 6 15.6
      vertex 8.51333 5.34922 15.6
      vertex 8.40996 5.66734 15.6
    endloop
  endfacet
  facet normal 0 0 1
    outer loop
      vertex 8.375 6 15.6
      vertex 5.9249 6 15.6
      vertex 8.40996 5.66734 15.6
    endloop
  endfacet
  facet normal 0 0 1
    outer loop
      vertex 8.51333 5.34922 15.6
      vertex 5.9249 6 15.6
      vertex 7.94995 2.49251 15.6
    endloop
  endfacet
  facet normal 0 1 -0
    outer loop
      vertex 12 2.49251 15.6
      vertex 7.94995 2.49251 18
      vertex 12 2.49251 18
    endloop
  endfacet
  facet normal 0 1 0
    outer loop
      vertex 7.94995 2.49251 18
      vertex 12 2.49251 15.6
      vertex 7.94995 2.49251 15.6
    endloop
  endfacet
  facet normal 0.866025 0.5 0
    outer loop
      vertex 7.94995 2.49251 18
      vertex 5.9249 6 15.6
      vertex 5.9249 6 18
    endloop
  endfacet
  facet normal 0.866025 0.5 0
    outer loop
      vertex 5.9249 6 15.6
      vertex 7.94995 2.49251 18
      vertex 7.94995 2.49251 15.6
    endloop
  endfacet
  facet normal -0.866025 0.5 0
    outer loop
      vertex 12 2.49251 15.6
      vertex 14.0251 6 18
      vertex 14.0251 6 15.6
    endloop
  endfacet
  facet normal -0.866025 0.5 0
    outer loop
      vertex 14.0251 6 18
      vertex 12 2.49251 15.6
      vertex 12 2.49251 18
    endloop
  endfacet
  facet normal -0.994522 -0.104528 0
    outer loop
      vertex 11.575 55 0
      vertex 11.54 55.3327 15.6
      vertex 11.54 55.3327 0
    endloop
  endfacet
  facet normal -0.994522 -0.104528 0
    outer loop
      vertex 11.54 55.3327 15.6
      vertex 11.575 55 0
      vertex 11.575 55 15.6
    endloop
  endfacet
  facet normal 0.207904 -0.978149 0
    outer loop
      vertex 9.48057 56.5217 0
      vertex 9.80776 56.5912 15.6
      vertex 9.48057 56.5217 15.6
    endloop
  endfacet
  facet normal 0.207904 -0.978149 0
    outer loop
      vertex 9.80776 56.5912 15.6
      vertex 9.48057 56.5217 0
      vertex 9.80776 56.5912 0
    endloop
  endfacet
  facet normal -0.587779 -0.809022 0
    outer loop
      vertex 10.775 56.3856 0
      vertex 11.0456 56.189 15.6
      vertex 10.775 56.3856 15.6
    endloop
  endfacet
  facet normal -0.587779 -0.809022 -0
    outer loop
      vertex 11.0456 56.189 15.6
      vertex 10.775 56.3856 0
      vertex 11.0456 56.189 0
    endloop
  endfacet
  facet normal 0.743146 -0.669129 0
    outer loop
      vertex 8.68057 55.9405 15.6
      vertex 8.90439 56.189 0
      vertex 8.90439 56.189 15.6
    endloop
  endfacet
  facet normal 0.743146 -0.669129 0
    outer loop
      vertex 8.90439 56.189 0
      vertex 8.68057 55.9405 15.6
      vertex 8.68057 55.9405 0
    endloop
  endfacet
  facet normal 0.587779 -0.809022 0
    outer loop
      vertex 8.90439 56.189 0
      vertex 9.175 56.3856 15.6
      vertex 8.90439 56.189 15.6
    endloop
  endfacet
  facet normal 0.587779 -0.809022 0
    outer loop
      vertex 9.175 56.3856 15.6
      vertex 8.90439 56.189 0
      vertex 9.175 56.3856 0
    endloop
  endfacet
  facet normal -0.866025 -0.5 0
    outer loop
      vertex 11.4367 55.6508 0
      vertex 11.2694 55.9405 15.6
      vertex 11.2694 55.9405 0
    endloop
  endfacet
  facet normal -0.866025 -0.5 0
    outer loop
      vertex 11.2694 55.9405 15.6
      vertex 11.4367 55.6508 0
      vertex 11.4367 55.6508 15.6
    endloop
  endfacet
  facet normal -0.951057 -0.309016 0
    outer loop
      vertex 11.54 55.3327 0
      vertex 11.4367 55.6508 15.6
      vertex 11.4367 55.6508 0
    endloop
  endfacet
  facet normal -0.951057 -0.309016 0
    outer loop
      vertex 11.4367 55.6508 15.6
      vertex 11.54 55.3327 0
      vertex 11.54 55.3327 15.6
    endloop
  endfacet
  facet normal -0.743146 -0.669129 0
    outer loop
      vertex 11.2694 55.9405 0
      vertex 11.0456 56.189 15.6
      vertex 11.0456 56.189 0
    endloop
  endfacet
  facet normal -0.743146 -0.669129 0
    outer loop
      vertex 11.0456 56.189 15.6
      vertex 11.2694 55.9405 0
      vertex 11.2694 55.9405 15.6
    endloop
  endfacet
  facet normal -0.207904 -0.978149 0
    outer loop
      vertex 10.1422 56.5912 0
      vertex 10.4694 56.5217 15.6
      vertex 10.1422 56.5912 15.6
    endloop
  endfacet
  facet normal -0.207904 -0.978149 -0
    outer loop
      vertex 10.4694 56.5217 15.6
      vertex 10.1422 56.5912 0
      vertex 10.4694 56.5217 0
    endloop
  endfacet
  facet normal 0 -1 0
    outer loop
      vertex 9.80776 56.5912 0
      vertex 10.1422 56.5912 15.6
      vertex 9.80776 56.5912 15.6
    endloop
  endfacet
  facet normal 0 -1 -0
    outer loop
      vertex 10.1422 56.5912 15.6
      vertex 9.80776 56.5912 0
      vertex 10.1422 56.5912 0
    endloop
  endfacet
  facet normal -0.40674 -0.913544 0
    outer loop
      vertex 10.4694 56.5217 0
      vertex 10.775 56.3856 15.6
      vertex 10.4694 56.5217 15.6
    endloop
  endfacet
  facet normal -0.40674 -0.913544 -0
    outer loop
      vertex 10.775 56.3856 15.6
      vertex 10.4694 56.5217 0
      vertex 10.775 56.3856 0
    endloop
  endfacet
  facet normal 0.951057 -0.309016 0
    outer loop
      vertex 8.40996 55.3327 15.6
      vertex 8.51333 55.6508 0
      vertex 8.51333 55.6508 15.6
    endloop
  endfacet
  facet normal 0.951057 -0.309016 0
    outer loop
      vertex 8.51333 55.6508 0
      vertex 8.40996 55.3327 15.6
      vertex 8.40996 55.3327 0
    endloop
  endfacet
  facet normal 0.866025 -0.5 0
    outer loop
      vertex 8.51333 55.6508 15.6
      vertex 8.68057 55.9405 0
      vertex 8.68057 55.9405 15.6
    endloop
  endfacet
  facet normal 0.866025 -0.5 0
    outer loop
      vertex 8.68057 55.9405 0
      vertex 8.51333 55.6508 15.6
      vertex 8.51333 55.6508 0
    endloop
  endfacet
  facet normal 0.994522 -0.104528 0
    outer loop
      vertex 8.375 55 15.6
      vertex 8.40996 55.3327 0
      vertex 8.40996 55.3327 15.6
    endloop
  endfacet
  facet normal 0.994522 -0.104528 0
    outer loop
      vertex 8.40996 55.3327 0
      vertex 8.375 55 15.6
      vertex 8.375 55 0
    endloop
  endfacet
  facet normal 0.40674 -0.913544 0
    outer loop
      vertex 9.175 56.3856 0
      vertex 9.48057 56.5217 15.6
      vertex 9.175 56.3856 15.6
    endloop
  endfacet
  facet normal 0.40674 -0.913544 0
    outer loop
      vertex 9.48057 56.5217 15.6
      vertex 9.175 56.3856 0
      vertex 9.48057 56.5217 0
    endloop
  endfacet
  facet normal -0.994522 0.104528 0
    outer loop
      vertex 11.54 54.6673 0
      vertex 11.575 55 15.6
      vertex 11.575 55 0
    endloop
  endfacet
  facet normal -0.994522 0.104528 0
    outer loop
      vertex 11.575 55 15.6
      vertex 11.54 54.6673 0
      vertex 11.54 54.6673 15.6
    endloop
  endfacet
  facet normal -0.866025 0.5 0
    outer loop
      vertex 11.2694 54.0595 0
      vertex 11.4367 54.3492 15.6
      vertex 11.4367 54.3492 0
    endloop
  endfacet
  facet normal -0.866025 0.5 0
    outer loop
      vertex 11.4367 54.3492 15.6
      vertex 11.2694 54.0595 0
      vertex 11.2694 54.0595 15.6
    endloop
  endfacet
  facet normal 0 1 -0
    outer loop
      vertex 10.1422 53.4088 0
      vertex 9.80776 53.4088 15.6
      vertex 10.1422 53.4088 15.6
    endloop
  endfacet
  facet normal 0 1 0
    outer loop
      vertex 9.80776 53.4088 15.6
      vertex 10.1422 53.4088 0
      vertex 9.80776 53.4088 0
    endloop
  endfacet
  facet normal -0.743146 0.669129 0
    outer loop
      vertex 11.0456 53.811 0
      vertex 11.2694 54.0595 15.6
      vertex 11.2694 54.0595 0
    endloop
  endfacet
  facet normal -0.743146 0.669129 0
    outer loop
      vertex 11.2694 54.0595 15.6
      vertex 11.0456 53.811 0
      vertex 11.0456 53.811 15.6
    endloop
  endfacet
  facet normal 0.994522 0.104528 0
    outer loop
      vertex 8.40996 54.6673 15.6
      vertex 8.375 55 0
      vertex 8.375 55 15.6
    endloop
  endfacet
  facet normal 0.994522 0.104528 0
    outer loop
      vertex 8.375 55 0
      vertex 8.40996 54.6673 15.6
      vertex 8.40996 54.6673 0
    endloop
  endfacet
  facet normal 0.743146 0.669129 0
    outer loop
      vertex 8.90439 53.811 15.6
      vertex 8.68057 54.0595 0
      vertex 8.68057 54.0595 15.6
    endloop
  endfacet
  facet normal 0.743146 0.669129 0
    outer loop
      vertex 8.68057 54.0595 0
      vertex 8.90439 53.811 15.6
      vertex 8.90439 53.811 0
    endloop
  endfacet
  facet normal 0.951057 0.309016 0
    outer loop
      vertex 8.51333 54.3492 15.6
      vertex 8.40996 54.6673 0
      vertex 8.40996 54.6673 15.6
    endloop
  endfacet
  facet normal 0.951057 0.309016 0
    outer loop
      vertex 8.40996 54.6673 0
      vertex 8.51333 54.3492 15.6
      vertex 8.51333 54.3492 0
    endloop
  endfacet
  facet normal 0.866025 0.5 0
    outer loop
      vertex 8.68057 54.0595 15.6
      vertex 8.51333 54.3492 0
      vertex 8.51333 54.3492 15.6
    endloop
  endfacet
  facet normal 0.866025 0.5 0
    outer loop
      vertex 8.51333 54.3492 0
      vertex 8.68057 54.0595 15.6
      vertex 8.68057 54.0595 0
    endloop
  endfacet
  facet normal -0.406731 0.913548 0
    outer loop
      vertex 10.775 53.6144 0
      vertex 10.4694 53.4783 15.6
      vertex 10.775 53.6144 15.6
    endloop
  endfacet
  facet normal -0.406731 0.913548 0
    outer loop
      vertex 10.4694 53.4783 15.6
      vertex 10.775 53.6144 0
      vertex 10.4694 53.4783 0
    endloop
  endfacet
  facet normal -0.951057 0.309016 0
    outer loop
      vertex 11.4367 54.3492 0
      vertex 11.54 54.6673 15.6
      vertex 11.54 54.6673 0
    endloop
  endfacet
  facet normal -0.951057 0.309016 0
    outer loop
      vertex 11.54 54.6673 15.6
      vertex 11.4367 54.3492 0
      vertex 11.4367 54.3492 15.6
    endloop
  endfacet
  facet normal -0.207915 0.978147 0
    outer loop
      vertex 10.4694 53.4783 0
      vertex 10.1422 53.4088 15.6
      vertex 10.4694 53.4783 15.6
    endloop
  endfacet
  facet normal -0.207915 0.978147 0
    outer loop
      vertex 10.1422 53.4088 15.6
      vertex 10.4694 53.4783 0
      vertex 10.1422 53.4088 0
    endloop
  endfacet
  facet normal 0.406731 0.913548 -0
    outer loop
      vertex 9.48057 53.4783 0
      vertex 9.175 53.6144 15.6
      vertex 9.48057 53.4783 15.6
    endloop
  endfacet
  facet normal 0.406731 0.913548 0
    outer loop
      vertex 9.175 53.6144 15.6
      vertex 9.48057 53.4783 0
      vertex 9.175 53.6144 0
    endloop
  endfacet
  facet normal 0.207915 0.978147 -0
    outer loop
      vertex 9.80776 53.4088 0
      vertex 9.48057 53.4783 15.6
      vertex 9.80776 53.4088 15.6
    endloop
  endfacet
  facet normal 0.207915 0.978147 0
    outer loop
      vertex 9.48057 53.4783 15.6
      vertex 9.80776 53.4088 0
      vertex 9.48057 53.4783 0
    endloop
  endfacet
  facet normal 0.587786 0.809016 -0
    outer loop
      vertex 9.175 53.6144 0
      vertex 8.90439 53.811 15.6
      vertex 9.175 53.6144 15.6
    endloop
  endfacet
  facet normal 0.587786 0.809016 0
    outer loop
      vertex 8.90439 53.811 15.6
      vertex 9.175 53.6144 0
      vertex 8.90439 53.811 0
    endloop
  endfacet
  facet normal -0.587786 0.809016 0
    outer loop
      vertex 11.0456 53.811 0
      vertex 10.775 53.6144 15.6
      vertex 11.0456 53.811 15.6
    endloop
  endfacet
  facet normal -0.587786 0.809016 0
    outer loop
      vertex 10.775 53.6144 15.6
      vertex 11.0456 53.811 0
      vertex 10.775 53.6144 0
    endloop
  endfacet
  facet normal -0 0 1
    outer loop
      vertex 11.4367 55.6508 15.6
      vertex 14.0251 55 15.6
      vertex 12 58.5075 15.6
    endloop
  endfacet
  facet normal 0 0 1
    outer loop
      vertex 11.54 54.6673 15.6
      vertex 14.0251 55 15.6
      vertex 11.575 55 15.6
    endloop
  endfacet
  facet normal 0 0 1
    outer loop
      vertex 14.0251 55 15.6
      vertex 11.54 55.3327 15.6
      vertex 11.575 55 15.6
    endloop
  endfacet
  facet normal 0 0 1
    outer loop
      vertex 14.0251 55 15.6
      vertex 11.4367 55.6508 15.6
      vertex 11.54 55.3327 15.6
    endloop
  endfacet
  facet normal 0 0 1
    outer loop
      vertex 12 58.5075 15.6
      vertex 11.2694 55.9405 15.6
      vertex 11.4367 55.6508 15.6
    endloop
  endfacet
  facet normal 0 0 1
    outer loop
      vertex 12 58.5075 15.6
      vertex 11.0456 56.189 15.6
      vertex 11.2694 55.9405 15.6
    endloop
  endfacet
  facet normal 0 0 1
    outer loop
      vertex 12 58.5075 15.6
      vertex 10.775 56.3856 15.6
      vertex 11.0456 56.189 15.6
    endloop
  endfacet
  facet normal 0 0 1
    outer loop
      vertex 12 58.5075 15.6
      vertex 10.4694 56.5217 15.6
      vertex 10.775 56.3856 15.6
    endloop
  endfacet
  facet normal 0 0 1
    outer loop
      vertex 12 58.5075 15.6
      vertex 10.1422 56.5912 15.6
      vertex 10.4694 56.5217 15.6
    endloop
  endfacet
  facet normal 0 0 1
    outer loop
      vertex 12 58.5075 15.6
      vertex 9.80776 56.5912 15.6
      vertex 10.1422 56.5912 15.6
    endloop
  endfacet
  facet normal -0 0 1
    outer loop
      vertex 7.94995 58.5075 15.6
      vertex 9.80776 56.5912 15.6
      vertex 12 58.5075 15.6
    endloop
  endfacet
  facet normal 0 0 1
    outer loop
      vertex 9.80776 56.5912 15.6
      vertex 7.94995 58.5075 15.6
      vertex 9.48057 56.5217 15.6
    endloop
  endfacet
  facet normal 0 0 1
    outer loop
      vertex 9.48057 56.5217 15.6
      vertex 7.94995 58.5075 15.6
      vertex 9.175 56.3856 15.6
    endloop
  endfacet
  facet normal 0 0 1
    outer loop
      vertex 8.51333 55.6508 15.6
      vertex 5.9249 55 15.6
      vertex 8.40996 55.3327 15.6
    endloop
  endfacet
  facet normal 0 0 1
    outer loop
      vertex 5.9249 55 15.6
      vertex 8.51333 55.6508 15.6
      vertex 7.94995 58.5075 15.6
    endloop
  endfacet
  facet normal 0 0 1
    outer loop
      vertex 8.68057 55.9405 15.6
      vertex 7.94995 58.5075 15.6
      vertex 8.51333 55.6508 15.6
    endloop
  endfacet
  facet normal 0 0 1
    outer loop
      vertex 8.90439 56.189 15.6
      vertex 7.94995 58.5075 15.6
      vertex 8.68057 55.9405 15.6
    endloop
  endfacet
  facet normal 0 0 1
    outer loop
      vertex 9.175 56.3856 15.6
      vertex 7.94995 58.5075 15.6
      vertex 8.90439 56.189 15.6
    endloop
  endfacet
  facet normal 0 0 1
    outer loop
      vertex 11.4367 54.3492 15.6
      vertex 14.0251 55 15.6
      vertex 11.54 54.6673 15.6
    endloop
  endfacet
  facet normal 0 0 1
    outer loop
      vertex 14.0251 55 15.6
      vertex 11.4367 54.3492 15.6
      vertex 12 51.4925 15.6
    endloop
  endfacet
  facet normal -0 0 1
    outer loop
      vertex 11.2694 54.0595 15.6
      vertex 12 51.4925 15.6
      vertex 11.4367 54.3492 15.6
    endloop
  endfacet
  facet normal -0 0 1
    outer loop
      vertex 11.0456 53.811 15.6
      vertex 12 51.4925 15.6
      vertex 11.2694 54.0595 15.6
    endloop
  endfacet
  facet normal -0 0 1
    outer loop
      vertex 10.775 53.6144 15.6
      vertex 12 51.4925 15.6
      vertex 11.0456 53.811 15.6
    endloop
  endfacet
  facet normal -0 0 1
    outer loop
      vertex 10.4694 53.4783 15.6
      vertex 12 51.4925 15.6
      vertex 10.775 53.6144 15.6
    endloop
  endfacet
  facet normal -0 0 1
    outer loop
      vertex 10.1422 53.4088 15.6
      vertex 12 51.4925 15.6
      vertex 10.4694 53.4783 15.6
    endloop
  endfacet
  facet normal -0 0 1
    outer loop
      vertex 9.80776 53.4088 15.6
      vertex 12 51.4925 15.6
      vertex 10.1422 53.4088 15.6
    endloop
  endfacet
  facet normal 0 0 1
    outer loop
      vertex 7.94995 51.4925 15.6
      vertex 9.80776 53.4088 15.6
      vertex 9.48057 53.4783 15.6
    endloop
  endfacet
  facet normal 0 0 1
    outer loop
      vertex 7.94995 51.4925 15.6
      vertex 9.48057 53.4783 15.6
      vertex 9.175 53.6144 15.6
    endloop
  endfacet
  facet normal 0 0 1
    outer loop
      vertex 7.94995 51.4925 15.6
      vertex 9.175 53.6144 15.6
      vertex 8.90439 53.811 15.6
    endloop
  endfacet
  facet normal 0 0 1
    outer loop
      vertex 8.40996 55.3327 15.6
      vertex 5.9249 55 15.6
      vertex 8.375 55 15.6
    endloop
  endfacet
  facet normal 0 0 1
    outer loop
      vertex 9.80776 53.4088 15.6
      vertex 7.94995 51.4925 15.6
      vertex 12 51.4925 15.6
    endloop
  endfacet
  facet normal 0 0 1
    outer loop
      vertex 8.68057 54.0595 15.6
      vertex 7.94995 51.4925 15.6
      vertex 8.90439 53.811 15.6
    endloop
  endfacet
  facet normal 0 0 1
    outer loop
      vertex 8.51333 54.3492 15.6
      vertex 7.94995 51.4925 15.6
      vertex 8.68057 54.0595 15.6
    endloop
  endfacet
  facet normal 0 0 1
    outer loop
      vertex 5.9249 55 15.6
      vertex 8.51333 54.3492 15.6
      vertex 8.40996 54.6673 15.6
    endloop
  endfacet
  facet normal 0 0 1
    outer loop
      vertex 8.375 55 15.6
      vertex 5.9249 55 15.6
      vertex 8.40996 54.6673 15.6
    endloop
  endfacet
  facet normal 0 0 1
    outer loop
      vertex 8.51333 54.3492 15.6
      vertex 5.9249 55 15.6
      vertex 7.94995 51.4925 15.6
    endloop
  endfacet
  facet normal -0.866025 -0.5 0
    outer loop
      vertex 14.0251 55 15.6
      vertex 12 58.5075 18
      vertex 12 58.5075 15.6
    endloop
  endfacet
  facet normal -0.866025 -0.5 0
    outer loop
      vertex 12 58.5075 18
      vertex 14.0251 55 15.6
      vertex 14.0251 55 18
    endloop
  endfacet
  facet normal 0 1 -0
    outer loop
      vertex 12 51.4925 15.6
      vertex 7.94995 51.4925 18
      vertex 12 51.4925 18
    endloop
  endfacet
  facet normal 0 1 0
    outer loop
      vertex 7.94995 51.4925 18
      vertex 12 51.4925 15.6
      vertex 7.94995 51.4925 15.6
    endloop
  endfacet
  facet normal 0.866025 -0.5 0
    outer loop
      vertex 5.9249 55 18
      vertex 7.94995 58.5075 15.6
      vertex 7.94995 58.5075 18
    endloop
  endfacet
  facet normal 0.866025 -0.5 0
    outer loop
      vertex 7.94995 58.5075 15.6
      vertex 5.9249 55 18
      vertex 5.9249 55 15.6
    endloop
  endfacet
  facet normal 0 -1 0
    outer loop
      vertex 7.94995 58.5075 15.6
      vertex 12 58.5075 18
      vertex 7.94995 58.5075 18
    endloop
  endfacet
  facet normal 0 -1 -0
    outer loop
      vertex 12 58.5075 18
      vertex 7.94995 58.5075 15.6
      vertex 12 58.5075 15.6
    endloop
  endfacet
  facet normal 0.866026 0.5 0
    outer loop
      vertex 7.94995 51.4925 18
      vertex 5.9249 55 15.6
      vertex 5.9249 55 18
    endloop
  endfacet
  facet normal 0.866026 0.5 0
    outer loop
      vertex 5.9249 55 15.6
      vertex 7.94995 51.4925 18
      vertex 7.94995 51.4925 15.6
    endloop
  endfacet
  facet normal -0.866026 0.5 0
    outer loop
      vertex 12 51.4925 15.6
      vertex 14.0251 55 18
      vertex 14.0251 55 15.6
    endloop
  endfacet
  facet normal -0.866026 0.5 0
    outer loop
      vertex 14.0251 55 18
      vertex 12 51.4925 15.6
      vertex 12 51.4925 18
    endloop
  endfacet
  facet normal -1 0 0
    outer loop
      vertex 0 0 0
      vertex 0 60 18
      vertex 0 60 0
    endloop
  endfacet
  facet normal -1 -0 0
    outer loop
      vertex 0 60 18
      vertex 0 0 0
      vertex 0 0 18
    endloop
  endfacet
  facet normal 0 0 1
    outer loop
      vertex 12 9.50749 18
      vertex 19.95 60 18
      vertex 12 51.4925 18
    endloop
  endfacet
  facet normal 0 0 1
    outer loop
      vertex 19.95 60 18
      vertex 12 9.50749 18
      vertex 14.0251 6 18
    endloop
  endfacet
  facet normal -0 0 1
    outer loop
      vertex 7.94995 51.4925 18
      vertex 12 9.50749 18
      vertex 12 51.4925 18
    endloop
  endfacet
  facet normal 0 0 1
    outer loop
      vertex 7.94995 51.4925 18
      vertex 7.94995 9.50749 18
      vertex 12 9.50749 18
    endloop
  endfacet
  facet normal 0 0 1
    outer loop
      vertex 0 60 18
      vertex 7.94995 51.4925 18
      vertex 5.9249 55 18
    endloop
  endfacet
  facet normal 0 0 1
    outer loop
      vertex 7.94995 51.4925 18
      vertex 0 60 18
      vertex 7.94995 9.50749 18
    endloop
  endfacet
  facet normal 0 0 1
    outer loop
      vertex 12 51.4925 18
      vertex 19.95 60 18
      vertex 14.0251 55 18
    endloop
  endfacet
  facet normal 0 0 1
    outer loop
      vertex 19.95 60 18
      vertex 12 58.5075 18
      vertex 14.0251 55 18
    endloop
  endfacet
  facet normal 0 0 1
    outer loop
      vertex 19.95 60 18
      vertex 7.94995 58.5075 18
      vertex 12 58.5075 18
    endloop
  endfacet
  facet normal 0 0 1
    outer loop
      vertex 0 0 18
      vertex 7.94995 9.50749 18
      vertex 0 60 18
    endloop
  endfacet
  facet normal 0 0 1
    outer loop
      vertex 7.94995 58.5075 18
      vertex 0 60 18
      vertex 5.9249 55 18
    endloop
  endfacet
  facet normal -0 0 1
    outer loop
      vertex 0 60 18
      vertex 7.94995 58.5075 18
      vertex 19.95 60 18
    endloop
  endfacet
  facet normal 0 0 1
    outer loop
      vertex 19.95 60 18
      vertex 14.0251 6 18
      vertex 19.95 0 18
    endloop
  endfacet
  facet normal -0 0 1
    outer loop
      vertex 12 2.49251 18
      vertex 19.95 0 18
      vertex 14.0251 6 18
    endloop
  endfacet
  facet normal -0 0 1
    outer loop
      vertex 7.94995 2.49251 18
      vertex 19.95 0 18
      vertex 12 2.49251 18
    endloop
  endfacet
  facet normal 0 0 1
    outer loop
      vertex 7.94995 2.49251 18
      vertex 0 0 18
      vertex 19.95 0 18
    endloop
  endfacet
  facet normal 0 0 1
    outer loop
      vertex 5.9249 6 18
      vertex 0 0 18
      vertex 7.94995 2.49251 18
    endloop
  endfacet
  facet normal 0 0 1
    outer loop
      vertex 7.94995 9.50749 18
      vertex 0 0 18
      vertex 5.9249 6 18
    endloop
  endfacet
  facet normal 1 -0 0
    outer loop
      vertex 19.95 0 18
      vertex 19.95 60 0
      vertex 19.95 60 18
    endloop
  endfacet
  facet normal 1 0 0
    outer loop
      vertex 19.95 60 0
      vertex 19.95 0 18
      vertex 19.95 0 0
    endloop
  endfacet
  facet normal 0 1 -0
    outer loop
      vertex 19.95 60 0
      vertex 0 60 18
      vertex 19.95 60 18
    endloop
  endfacet
  facet normal 0 1 0
    outer loop
      vertex 0 60 18
      vertex 19.95 60 0
      vertex 0 60 0
    endloop
  endfacet
  facet normal 0 -1 0
    outer loop
      vertex 0 0 0
      vertex 19.95 0 18
      vertex 0 0 18
    endloop
  endfacet
  facet normal 0 -1 -0
    outer loop
      vertex 19.95 0 18
      vertex 0 0 0
      vertex 19.95 0 0
    endloop
  endfacet
endsolid OpenSCAD_Model
