solid OpenSCAD_Model
  facet normal -0.991445 -0.130527 0
    outer loop
      vertex 21 15.5 0
      vertex 20.8126 16.9235 5
      vertex 20.8126 16.9235 0
    endloop
  endfacet
  facet normal -0.991445 -0.130527 0
    outer loop
      vertex 20.8126 16.9235 5
      vertex 21 15.5 0
      vertex 21 15.5 5
    endloop
  endfacet
  facet normal 0.130527 -0.991445 0
    outer loop
      vertex 14.0765 20.8126 0
      vertex 15.5 21 5
      vertex 14.0765 20.8126 5
    endloop
  endfacet
  facet normal 0.130527 -0.991445 0
    outer loop
      vertex 15.5 21 5
      vertex 14.0765 20.8126 0
      vertex 15.5 21 0
    endloop
  endfacet
  facet normal -0.60876 -0.793354 0
    outer loop
      vertex 18.25 20.2631 0
      vertex 19.3891 19.3891 5
      vertex 18.25 20.2631 5
    endloop
  endfacet
  facet normal -0.60876 -0.793354 -0
    outer loop
      vertex 19.3891 19.3891 5
      vertex 18.25 20.2631 0
      vertex 19.3891 19.3891 0
    endloop
  endfacet
  facet normal -0.923879 -0.382684 0
    outer loop
      vertex 20.8126 16.9235 0
      vertex 20.2631 18.25 5
      vertex 20.2631 18.25 0
    endloop
  endfacet
  facet normal -0.923879 -0.382684 0
    outer loop
      vertex 20.2631 18.25 5
      vertex 20.8126 16.9235 0
      vertex 20.8126 16.9235 5
    endloop
  endfacet
  facet normal 0.793354 -0.608761 0
    outer loop
      vertex 10.7369 18.25 5
      vertex 11.6109 19.3891 0
      vertex 11.6109 19.3891 5
    endloop
  endfacet
  facet normal 0.793354 -0.608761 0
    outer loop
      vertex 11.6109 19.3891 0
      vertex 10.7369 18.25 5
      vertex 10.7369 18.25 0
    endloop
  endfacet
  facet normal 0.92388 -0.382683 0
    outer loop
      vertex 10.1874 16.9235 5
      vertex 10.7369 18.25 0
      vertex 10.7369 18.25 5
    endloop
  endfacet
  facet normal 0.92388 -0.382683 0
    outer loop
      vertex 10.7369 18.25 0
      vertex 10.1874 16.9235 5
      vertex 10.1874 16.9235 0
    endloop
  endfacet
  facet normal 0.60876 -0.793354 0
    outer loop
      vertex 11.6109 19.3891 0
      vertex 12.75 20.2631 5
      vertex 11.6109 19.3891 5
    endloop
  endfacet
  facet normal 0.60876 -0.793354 0
    outer loop
      vertex 12.75 20.2631 5
      vertex 11.6109 19.3891 0
      vertex 12.75 20.2631 0
    endloop
  endfacet
  facet normal -0.382683 0.92388 0
    outer loop
      vertex 18.25 10.7369 0
      vertex 16.9235 10.1874 5
      vertex 18.25 10.7369 5
    endloop
  endfacet
  facet normal -0.382683 0.92388 0
    outer loop
      vertex 16.9235 10.1874 5
      vertex 18.25 10.7369 0
      vertex 16.9235 10.1874 0
    endloop
  endfacet
  facet normal -0.793354 0.608761 0
    outer loop
      vertex 19.3891 11.6109 0
      vertex 20.2631 12.75 5
      vertex 20.2631 12.75 0
    endloop
  endfacet
  facet normal -0.793354 0.608761 0
    outer loop
      vertex 20.2631 12.75 5
      vertex 19.3891 11.6109 0
      vertex 19.3891 11.6109 5
    endloop
  endfacet
  facet normal -0.923879 0.382684 0
    outer loop
      vertex 20.2631 12.75 0
      vertex 20.8126 14.0765 5
      vertex 20.8126 14.0765 0
    endloop
  endfacet
  facet normal -0.923879 0.382684 0
    outer loop
      vertex 20.8126 14.0765 5
      vertex 20.2631 12.75 0
      vertex 20.2631 12.75 5
    endloop
  endfacet
  facet normal 0.382683 0.92388 -0
    outer loop
      vertex 14.0765 10.1874 0
      vertex 12.75 10.7369 5
      vertex 14.0765 10.1874 5
    endloop
  endfacet
  facet normal 0.382683 0.92388 0
    outer loop
      vertex 12.75 10.7369 5
      vertex 14.0765 10.1874 0
      vertex 12.75 10.7369 0
    endloop
  endfacet
  facet normal -0.793354 -0.60876 0
    outer loop
      vertex 20.2631 18.25 0
      vertex 19.3891 19.3891 5
      vertex 19.3891 19.3891 0
    endloop
  endfacet
  facet normal -0.793354 -0.60876 0
    outer loop
      vertex 19.3891 19.3891 5
      vertex 20.2631 18.25 0
      vertex 20.2631 18.25 5
    endloop
  endfacet
  facet normal -0.130527 -0.991445 0
    outer loop
      vertex 15.5 21 0
      vertex 16.9235 20.8126 5
      vertex 15.5 21 5
    endloop
  endfacet
  facet normal -0.130527 -0.991445 -0
    outer loop
      vertex 16.9235 20.8126 5
      vertex 15.5 21 0
      vertex 16.9235 20.8126 0
    endloop
  endfacet
  facet normal -0.382684 -0.923879 0
    outer loop
      vertex 16.9235 20.8126 0
      vertex 18.25 20.2631 5
      vertex 16.9235 20.8126 5
    endloop
  endfacet
  facet normal -0.382684 -0.923879 -0
    outer loop
      vertex 18.25 20.2631 5
      vertex 16.9235 20.8126 0
      vertex 18.25 20.2631 0
    endloop
  endfacet
  facet normal 0 0 -1
    outer loop
      vertex -14.0765 10.1874 0
      vertex -8.89919 6.46564 0
      vertex -10.049 4.4741 0
    endloop
  endfacet
  facet normal 0 0 -1
    outer loop
      vertex -8.89919 6.46564 0
      vertex -10.1874 14.0765 0
      vertex -10 15.5 0
    endloop
  endfacet
  facet normal 0 0 -1
    outer loop
      vertex -8.89919 6.46564 0
      vertex -10.7369 12.75 0
      vertex -10.1874 14.0765 0
    endloop
  endfacet
  facet normal 0 0 -1
    outer loop
      vertex -15.5 10 0
      vertex -10.049 4.4741 0
      vertex -10.7596 2.28703 0
    endloop
  endfacet
  facet normal 0 0 -1
    outer loop
      vertex -16.9235 10.1874 0
      vertex -10.7596 2.28703 0
      vertex -11 0 0
    endloop
  endfacet
  facet normal 0 0 -1
    outer loop
      vertex -15.5 -10 0
      vertex -10.049 -4.4741 0
      vertex -14.0765 -10.1874 0
    endloop
  endfacet
  facet normal 0 0 -1
    outer loop
      vertex -8.89919 6.46564 0
      vertex -11.6109 11.6109 0
      vertex -10.7369 12.75 0
    endloop
  endfacet
  facet normal 0 0 -1
    outer loop
      vertex -8.89919 6.46564 0
      vertex -12.75 10.7369 0
      vertex -11.6109 11.6109 0
    endloop
  endfacet
  facet normal -0 0 -1
    outer loop
      vertex -10.049 -4.4741 0
      vertex -15.5 -10 0
      vertex -10.7596 -2.28703 0
    endloop
  endfacet
  facet normal 0 0 -1
    outer loop
      vertex -16.9235 -10.1874 0
      vertex -10.7596 -2.28703 0
      vertex -15.5 -10 0
    endloop
  endfacet
  facet normal 0 0 -1
    outer loop
      vertex -8.89919 6.46564 0
      vertex -14.0765 10.1874 0
      vertex -12.75 10.7369 0
    endloop
  endfacet
  facet normal 0 0 -1
    outer loop
      vertex -10.049 4.4741 0
      vertex -15.5 10 0
      vertex -14.0765 10.1874 0
    endloop
  endfacet
  facet normal -0 0 -1
    outer loop
      vertex -10.7596 -2.28703 0
      vertex -16.9235 -10.1874 0
      vertex -11 0 0
    endloop
  endfacet
  facet normal 0 0 -1
    outer loop
      vertex -18.25 -10.7369 0
      vertex -11 0 0
      vertex -16.9235 -10.1874 0
    endloop
  endfacet
  facet normal 0 0 -1
    outer loop
      vertex -10.7596 2.28703 0
      vertex -16.9235 10.1874 0
      vertex -15.5 10 0
    endloop
  endfacet
  facet normal 0 0 -1
    outer loop
      vertex -18.25 10.7369 0
      vertex -11 0 0
      vertex -18.25 -10.7369 0
    endloop
  endfacet
  facet normal 0 0 -1
    outer loop
      vertex -11 0 0
      vertex -18.25 10.7369 0
      vertex -16.9235 10.1874 0
    endloop
  endfacet
  facet normal 0 0 -1
    outer loop
      vertex -19.3891 -11.6109 0
      vertex -18.25 10.7369 0
      vertex -18.25 -10.7369 0
    endloop
  endfacet
  facet normal 0 0 -1
    outer loop
      vertex -19.3891 -11.6109 0
      vertex -19.3891 11.6109 0
      vertex -18.25 10.7369 0
    endloop
  endfacet
  facet normal 0 0 -1
    outer loop
      vertex -20.2631 -12.75 0
      vertex -19.3891 11.6109 0
      vertex -19.3891 -11.6109 0
    endloop
  endfacet
  facet normal 0 0 -1
    outer loop
      vertex -20.2631 -12.75 0
      vertex -20.2631 12.75 0
      vertex -19.3891 11.6109 0
    endloop
  endfacet
  facet normal 0 0 -1
    outer loop
      vertex -20.8126 -14.0765 0
      vertex -20.2631 12.75 0
      vertex -20.2631 -12.75 0
    endloop
  endfacet
  facet normal 0 0 -1
    outer loop
      vertex -20.8126 -14.0765 0
      vertex -20.8126 14.0765 0
      vertex -20.2631 12.75 0
    endloop
  endfacet
  facet normal 0 0 -1
    outer loop
      vertex -27.5 -24.5 0
      vertex -20.8126 -14.0765 0
      vertex -21 -15.5 0
    endloop
  endfacet
  facet normal -0 0 -1
    outer loop
      vertex -20.8126 -14.0765 0
      vertex -27.5 -24.5 0
      vertex -20.8126 14.0765 0
    endloop
  endfacet
  facet normal -0 0 -1
    outer loop
      vertex -5.5 -9.52628 0
      vertex -10.7369 -12.75 0
      vertex -7.36044 -8.17459 0
    endloop
  endfacet
  facet normal 0 0 -1
    outer loop
      vertex -11.6109 -11.6109 0
      vertex -7.36044 -8.17459 0
      vertex -10.7369 -12.75 0
    endloop
  endfacet
  facet normal -0 0 -1
    outer loop
      vertex -7.36044 -8.17459 0
      vertex -11.6109 -11.6109 0
      vertex -8.89919 -6.46564 0
    endloop
  endfacet
  facet normal 0 0 -1
    outer loop
      vertex -12.75 -10.7369 0
      vertex -8.89919 -6.46564 0
      vertex -11.6109 -11.6109 0
    endloop
  endfacet
  facet normal 0 0 -1
    outer loop
      vertex -14.0765 -10.1874 0
      vertex -8.89919 -6.46564 0
      vertex -12.75 -10.7369 0
    endloop
  endfacet
  facet normal -0 0 -1
    outer loop
      vertex -8.89919 -6.46564 0
      vertex -14.0765 -10.1874 0
      vertex -10.049 -4.4741 0
    endloop
  endfacet
  facet normal 0 0 -1
    outer loop
      vertex 20.8126 14.0765 0
      vertex 27.5 24.5 0
      vertex 20.8126 -14.0765 0
    endloop
  endfacet
  facet normal 0 0 -1
    outer loop
      vertex 27.5 24.5 0
      vertex 20.8126 14.0765 0
      vertex 21 15.5 0
    endloop
  endfacet
  facet normal 0 0 -1
    outer loop
      vertex 20.2631 -12.75 0
      vertex 20.8126 14.0765 0
      vertex 20.8126 -14.0765 0
    endloop
  endfacet
  facet normal 0 0 -1
    outer loop
      vertex 20.2631 -12.75 0
      vertex 20.2631 12.75 0
      vertex 20.8126 14.0765 0
    endloop
  endfacet
  facet normal 0 0 -1
    outer loop
      vertex 19.3891 -11.6109 0
      vertex 20.2631 12.75 0
      vertex 20.2631 -12.75 0
    endloop
  endfacet
  facet normal 0 0 -1
    outer loop
      vertex 19.3891 -11.6109 0
      vertex 19.3891 11.6109 0
      vertex 20.2631 12.75 0
    endloop
  endfacet
  facet normal 0 0 -1
    outer loop
      vertex 18.25 -10.7369 0
      vertex 19.3891 11.6109 0
      vertex 19.3891 -11.6109 0
    endloop
  endfacet
  facet normal 0 0 -1
    outer loop
      vertex 18.25 -10.7369 0
      vertex 18.25 10.7369 0
      vertex 19.3891 11.6109 0
    endloop
  endfacet
  facet normal 0 0 -1
    outer loop
      vertex 11 0 0
      vertex 18.25 -10.7369 0
      vertex 16.9235 -10.1874 0
    endloop
  endfacet
  facet normal 0 0 -1
    outer loop
      vertex 18.25 -10.7369 0
      vertex 11 0 0
      vertex 18.25 10.7369 0
    endloop
  endfacet
  facet normal 0 0 -1
    outer loop
      vertex 10.7596 -2.28703 0
      vertex 16.9235 -10.1874 0
      vertex 15.5 -10 0
    endloop
  endfacet
  facet normal 0 0 -1
    outer loop
      vertex 18.25 10.7369 0
      vertex 11 0 0
      vertex 16.9235 10.1874 0
    endloop
  endfacet
  facet normal 0 0 -1
    outer loop
      vertex 10.049 -4.4741 0
      vertex 15.5 -10 0
      vertex 14.0765 -10.1874 0
    endloop
  endfacet
  facet normal 0 0 -1
    outer loop
      vertex 10.7596 2.28703 0
      vertex 16.9235 10.1874 0
      vertex 11 0 0
    endloop
  endfacet
  facet normal 0 0 -1
    outer loop
      vertex 8.89919 -6.46564 0
      vertex 14.0765 -10.1874 0
      vertex 12.75 -10.7369 0
    endloop
  endfacet
  facet normal 0 0 -1
    outer loop
      vertex 16.9235 10.1874 0
      vertex 10.7596 2.28703 0
      vertex 15.5 10 0
    endloop
  endfacet
  facet normal 0 0 -1
    outer loop
      vertex 8.89919 -6.46564 0
      vertex 12.75 -10.7369 0
      vertex 11.6109 -11.6109 0
    endloop
  endfacet
  facet normal 0 0 -1
    outer loop
      vertex 10.049 4.4741 0
      vertex 15.5 10 0
      vertex 10.7596 2.28703 0
    endloop
  endfacet
  facet normal -0 0 -1
    outer loop
      vertex 15.5 10 0
      vertex 10.049 4.4741 0
      vertex 14.0765 10.1874 0
    endloop
  endfacet
  facet normal 0 0 -1
    outer loop
      vertex 16.9235 -10.1874 0
      vertex 10.7596 -2.28703 0
      vertex 11 0 0
    endloop
  endfacet
  facet normal 0 0 -1
    outer loop
      vertex 7.36044 -8.17459 0
      vertex 11.6109 -11.6109 0
      vertex 10.7369 -12.75 0
    endloop
  endfacet
  facet normal 0 0 -1
    outer loop
      vertex 5.5 -9.52628 0
      vertex 10.7369 -12.75 0
      vertex 10.1874 -14.0765 0
    endloop
  endfacet
  facet normal 0 0 -1
    outer loop
      vertex 15.5 -10 0
      vertex 10.049 -4.4741 0
      vertex 10.7596 -2.28703 0
    endloop
  endfacet
  facet normal 0 0 -1
    outer loop
      vertex 3.39919 -10.4616 0
      vertex 10.1874 -14.0765 0
      vertex 10 -15.5 0
    endloop
  endfacet
  facet normal 0 0 -1
    outer loop
      vertex 14.0765 -10.1874 0
      vertex 8.89919 -6.46564 0
      vertex 10.049 -4.4741 0
    endloop
  endfacet
  facet normal 0 0 -1
    outer loop
      vertex 24.5 -27.5 0
      vertex 27.5 -24.5 0
      vertex 27.0981 -26 0
    endloop
  endfacet
  facet normal 0 0 -1
    outer loop
      vertex 20.8126 -14.0765 0
      vertex 27.5 -24.5 0
      vertex 21 -15.5 0
    endloop
  endfacet
  facet normal 0 0 -1
    outer loop
      vertex 20.8126 16.9235 0
      vertex 27.5 24.5 0
      vertex 21 15.5 0
    endloop
  endfacet
  facet normal 0 0 -1
    outer loop
      vertex 24.5 -27.5 0
      vertex 27.0981 -26 0
      vertex 26 -27.0981 0
    endloop
  endfacet
  facet normal -0 0 -1
    outer loop
      vertex 27.5 -24.5 0
      vertex 24.5 -27.5 0
      vertex 19.3891 -19.3891 0
    endloop
  endfacet
  facet normal 0 0 -1
    outer loop
      vertex 27.5 -24.5 0
      vertex 20.8126 -14.0765 0
      vertex 27.5 24.5 0
    endloop
  endfacet
  facet normal 0 0 -1
    outer loop
      vertex 20.2631 18.25 0
      vertex 27.5 24.5 0
      vertex 20.8126 16.9235 0
    endloop
  endfacet
  facet normal 0 0 -1
    outer loop
      vertex 27.5 -24.5 0
      vertex 20.8126 -16.9235 0
      vertex 21 -15.5 0
    endloop
  endfacet
  facet normal 0 0 -1
    outer loop
      vertex 27.5 -24.5 0
      vertex 20.2631 -18.25 0
      vertex 20.8126 -16.9235 0
    endloop
  endfacet
  facet normal 0 0 -1
    outer loop
      vertex 27.5 -24.5 0
      vertex 19.3891 -19.3891 0
      vertex 20.2631 -18.25 0
    endloop
  endfacet
  facet normal 0 0 -1
    outer loop
      vertex 24.5 -27.5 0
      vertex 18.25 -20.2631 0
      vertex 19.3891 -19.3891 0
    endloop
  endfacet
  facet normal 0 0 -1
    outer loop
      vertex 24.5 -27.5 0
      vertex 16.9235 -20.8126 0
      vertex 18.25 -20.2631 0
    endloop
  endfacet
  facet normal 0 0 -1
    outer loop
      vertex 24.5 -27.5 0
      vertex 15.5 -21 0
      vertex 16.9235 -20.8126 0
    endloop
  endfacet
  facet normal 0 0 -1
    outer loop
      vertex 24.5 -27.5 0
      vertex 14.0765 -20.8126 0
      vertex 15.5 -21 0
    endloop
  endfacet
  facet normal 0 0 -1
    outer loop
      vertex -14.0765 -20.8126 0
      vertex 14.0765 -20.8126 0
      vertex 24.5 -27.5 0
    endloop
  endfacet
  facet normal 0 0 -1
    outer loop
      vertex 11.6109 -11.6109 0
      vertex 7.36044 -8.17459 0
      vertex 8.89919 -6.46564 0
    endloop
  endfacet
  facet normal 0 0 -1
    outer loop
      vertex 3.39919 -10.4616 0
      vertex 10 -15.5 0
      vertex 10.1874 -16.9235 0
    endloop
  endfacet
  facet normal 0 0 -1
    outer loop
      vertex 10.7369 -12.75 0
      vertex 5.5 -9.52628 0
      vertex 7.36044 -8.17459 0
    endloop
  endfacet
  facet normal 0 0 -1
    outer loop
      vertex 1.14981 -10.9397 0
      vertex 10.1874 -16.9235 0
      vertex 10.7369 -18.25 0
    endloop
  endfacet
  facet normal 0 0 -1
    outer loop
      vertex 10.1874 -14.0765 0
      vertex 3.39919 -10.4616 0
      vertex 5.5 -9.52628 0
    endloop
  endfacet
  facet normal 0 0 -1
    outer loop
      vertex -10.7369 -18.25 0
      vertex 10.7369 -18.25 0
      vertex 11.6109 -19.3891 0
    endloop
  endfacet
  facet normal 0 0 -1
    outer loop
      vertex 10.1874 -16.9235 0
      vertex 1.14981 -10.9397 0
      vertex 3.39919 -10.4616 0
    endloop
  endfacet
  facet normal 0 0 -1
    outer loop
      vertex 10.7369 -18.25 0
      vertex -10.7369 -18.25 0
      vertex 1.14981 -10.9397 0
    endloop
  endfacet
  facet normal 0 0 -1
    outer loop
      vertex -11.6109 -19.3891 0
      vertex 11.6109 -19.3891 0
      vertex 12.75 -20.2631 0
    endloop
  endfacet
  facet normal -0 0 -1
    outer loop
      vertex 1.14981 -10.9397 0
      vertex -10.7369 -18.25 0
      vertex -1.14981 -10.9397 0
    endloop
  endfacet
  facet normal 0 0 -1
    outer loop
      vertex 14.0765 -20.8126 0
      vertex -14.0765 -20.8126 0
      vertex 12.75 -20.2631 0
    endloop
  endfacet
  facet normal 0 0 -1
    outer loop
      vertex -1.14981 -10.9397 0
      vertex -10.7369 -18.25 0
      vertex -10.1874 -16.9235 0
    endloop
  endfacet
  facet normal 0 0 -1
    outer loop
      vertex -10.7369 -12.75 0
      vertex -5.5 -9.52628 0
      vertex -10.1874 -14.0765 0
    endloop
  endfacet
  facet normal -0 0 -1
    outer loop
      vertex -3.39919 -10.4616 0
      vertex -10.1874 -14.0765 0
      vertex -5.5 -9.52628 0
    endloop
  endfacet
  facet normal 0 -0 -1
    outer loop
      vertex -10 -15.5 0
      vertex -3.39919 -10.4616 0
      vertex -10.1874 -16.9235 0
    endloop
  endfacet
  facet normal 0 0 -1
    outer loop
      vertex -10.1874 -14.0765 0
      vertex -3.39919 -10.4616 0
      vertex -10 -15.5 0
    endloop
  endfacet
  facet normal -0 0 -1
    outer loop
      vertex -1.14981 -10.9397 0
      vertex -10.1874 -16.9235 0
      vertex -3.39919 -10.4616 0
    endloop
  endfacet
  facet normal 0 0 -1
    outer loop
      vertex 11.6109 -19.3891 0
      vertex -11.6109 -19.3891 0
      vertex -10.7369 -18.25 0
    endloop
  endfacet
  facet normal 0 0 -1
    outer loop
      vertex 12.75 -20.2631 0
      vertex -12.75 -20.2631 0
      vertex -11.6109 -19.3891 0
    endloop
  endfacet
  facet normal -0 0 -1
    outer loop
      vertex 12.75 -20.2631 0
      vertex -14.0765 -20.8126 0
      vertex -12.75 -20.2631 0
    endloop
  endfacet
  facet normal 0 0 -1
    outer loop
      vertex -24.5 -27.5 0
      vertex -14.0765 -20.8126 0
      vertex 24.5 -27.5 0
    endloop
  endfacet
  facet normal 0 0 -1
    outer loop
      vertex -14.0765 -20.8126 0
      vertex -24.5 -27.5 0
      vertex -15.5 -21 0
    endloop
  endfacet
  facet normal -0 0 -1
    outer loop
      vertex -20.8126 -16.9235 0
      vertex -27.5 -24.5 0
      vertex -21 -15.5 0
    endloop
  endfacet
  facet normal -0 0 -1
    outer loop
      vertex -20.2631 -18.25 0
      vertex -27.5 -24.5 0
      vertex -20.8126 -16.9235 0
    endloop
  endfacet
  facet normal -0 0 -1
    outer loop
      vertex -19.3891 -19.3891 0
      vertex -27.5 -24.5 0
      vertex -20.2631 -18.25 0
    endloop
  endfacet
  facet normal 0 0 -1
    outer loop
      vertex -27.5 -24.5 0
      vertex -19.3891 -19.3891 0
      vertex -24.5 -27.5 0
    endloop
  endfacet
  facet normal -0 0 -1
    outer loop
      vertex -18.25 -20.2631 0
      vertex -24.5 -27.5 0
      vertex -19.3891 -19.3891 0
    endloop
  endfacet
  facet normal -0 0 -1
    outer loop
      vertex -16.9235 -20.8126 0
      vertex -24.5 -27.5 0
      vertex -18.25 -20.2631 0
    endloop
  endfacet
  facet normal -0 0 -1
    outer loop
      vertex -15.5 -21 0
      vertex -24.5 -27.5 0
      vertex -16.9235 -20.8126 0
    endloop
  endfacet
  facet normal 0 0 -1
    outer loop
      vertex 19.3891 19.3891 0
      vertex 27.5 24.5 0
      vertex 20.2631 18.25 0
    endloop
  endfacet
  facet normal 0 -0 -1
    outer loop
      vertex 24.5 27.5 0
      vertex 27.5 24.5 0
      vertex 19.3891 19.3891 0
    endloop
  endfacet
  facet normal 0 0 -1
    outer loop
      vertex 27.5 24.5 0
      vertex 24.5 27.5 0
      vertex 27.0981 26 0
    endloop
  endfacet
  facet normal 0 0 -1
    outer loop
      vertex 27.0981 26 0
      vertex 24.5 27.5 0
      vertex 26 27.0981 0
    endloop
  endfacet
  facet normal 0 0 -1
    outer loop
      vertex 18.25 20.2631 0
      vertex 24.5 27.5 0
      vertex 19.3891 19.3891 0
    endloop
  endfacet
  facet normal 0 0 -1
    outer loop
      vertex 16.9235 20.8126 0
      vertex 24.5 27.5 0
      vertex 18.25 20.2631 0
    endloop
  endfacet
  facet normal 0 0 -1
    outer loop
      vertex 15.5 21 0
      vertex 24.5 27.5 0
      vertex 16.9235 20.8126 0
    endloop
  endfacet
  facet normal 0 0 -1
    outer loop
      vertex 14.0765 20.8126 0
      vertex 24.5 27.5 0
      vertex 15.5 21 0
    endloop
  endfacet
  facet normal 0 0 -1
    outer loop
      vertex -14.0765 20.8126 0
      vertex 14.0765 20.8126 0
      vertex 12.75 20.2631 0
    endloop
  endfacet
  facet normal -0 0 -1
    outer loop
      vertex 10.7369 12.75 0
      vertex 5.5 9.52628 0
      vertex 10.1874 14.0765 0
    endloop
  endfacet
  facet normal 0 0 -1
    outer loop
      vertex 3.39919 10.4616 0
      vertex 10.1874 14.0765 0
      vertex 5.5 9.52628 0
    endloop
  endfacet
  facet normal -0 0 -1
    outer loop
      vertex 10.1874 14.0765 0
      vertex 3.39919 10.4616 0
      vertex 10 15.5 0
    endloop
  endfacet
  facet normal -0 0 -1
    outer loop
      vertex 10 15.5 0
      vertex 3.39919 10.4616 0
      vertex 10.1874 16.9235 0
    endloop
  endfacet
  facet normal 0 0 -1
    outer loop
      vertex 1.14981 10.9397 0
      vertex 10.1874 16.9235 0
      vertex 3.39919 10.4616 0
    endloop
  endfacet
  facet normal -0 0 -1
    outer loop
      vertex 10.1874 16.9235 0
      vertex 1.14981 10.9397 0
      vertex 10.7369 18.25 0
    endloop
  endfacet
  facet normal 0 0 -1
    outer loop
      vertex -10.7369 18.25 0
      vertex 10.7369 18.25 0
      vertex 1.14981 10.9397 0
    endloop
  endfacet
  facet normal 0 0 -1
    outer loop
      vertex -10.7369 18.25 0
      vertex 1.14981 10.9397 0
      vertex -1.14981 10.9397 0
    endloop
  endfacet
  facet normal 0 0 -1
    outer loop
      vertex 10.7369 18.25 0
      vertex -10.7369 18.25 0
      vertex 11.6109 19.3891 0
    endloop
  endfacet
  facet normal 0 0 -1
    outer loop
      vertex -10.1874 16.9235 0
      vertex -1.14981 10.9397 0
      vertex -3.39919 10.4616 0
    endloop
  endfacet
  facet normal 0 0 -1
    outer loop
      vertex -10.7369 18.25 0
      vertex -1.14981 10.9397 0
      vertex -10.1874 16.9235 0
    endloop
  endfacet
  facet normal 0 0 -1
    outer loop
      vertex -10 15.5 0
      vertex -3.39919 10.4616 0
      vertex -5.5 9.52628 0
    endloop
  endfacet
  facet normal 0 0 -1
    outer loop
      vertex -10 15.5 0
      vertex -7.36044 8.17459 0
      vertex -8.89919 6.46564 0
    endloop
  endfacet
  facet normal 0 0 -1
    outer loop
      vertex -10 15.5 0
      vertex -5.5 9.52628 0
      vertex -7.36044 8.17459 0
    endloop
  endfacet
  facet normal 0 0 -1
    outer loop
      vertex -3.39919 10.4616 0
      vertex -10 15.5 0
      vertex -10.1874 16.9235 0
    endloop
  endfacet
  facet normal 0 0 -1
    outer loop
      vertex -11.6109 19.3891 0
      vertex 11.6109 19.3891 0
      vertex -10.7369 18.25 0
    endloop
  endfacet
  facet normal 0 0 -1
    outer loop
      vertex 11.6109 19.3891 0
      vertex -11.6109 19.3891 0
      vertex 12.75 20.2631 0
    endloop
  endfacet
  facet normal 0 0 -1
    outer loop
      vertex -12.75 20.2631 0
      vertex 12.75 20.2631 0
      vertex -11.6109 19.3891 0
    endloop
  endfacet
  facet normal 0 0 -1
    outer loop
      vertex -14.0765 20.8126 0
      vertex 12.75 20.2631 0
      vertex -12.75 20.2631 0
    endloop
  endfacet
  facet normal 0 0 -1
    outer loop
      vertex 14.0765 20.8126 0
      vertex -14.0765 20.8126 0
      vertex 24.5 27.5 0
    endloop
  endfacet
  facet normal 0 0 -1
    outer loop
      vertex -24.5 27.5 0
      vertex -14.0765 20.8126 0
      vertex -15.5 21 0
    endloop
  endfacet
  facet normal 0 0 -1
    outer loop
      vertex -24.5 27.5 0
      vertex -15.5 21 0
      vertex -16.9235 20.8126 0
    endloop
  endfacet
  facet normal 0 0 -1
    outer loop
      vertex -14.0765 20.8126 0
      vertex -24.5 27.5 0
      vertex 24.5 27.5 0
    endloop
  endfacet
  facet normal 0 0 -1
    outer loop
      vertex -18.25 20.2631 0
      vertex -24.5 27.5 0
      vertex -16.9235 20.8126 0
    endloop
  endfacet
  facet normal 0 0 -1
    outer loop
      vertex -19.3891 19.3891 0
      vertex -24.5 27.5 0
      vertex -18.25 20.2631 0
    endloop
  endfacet
  facet normal 0 0 -1
    outer loop
      vertex -27.5 24.5 0
      vertex -19.3891 19.3891 0
      vertex -20.2631 18.25 0
    endloop
  endfacet
  facet normal 0 0 -1
    outer loop
      vertex -27.5 24.5 0
      vertex -20.2631 18.25 0
      vertex -20.8126 16.9235 0
    endloop
  endfacet
  facet normal 0 0 -1
    outer loop
      vertex -27.5 24.5 0
      vertex -20.8126 16.9235 0
      vertex -21 15.5 0
    endloop
  endfacet
  facet normal 0 0 -1
    outer loop
      vertex -27.5 24.5 0
      vertex -20.8126 14.0765 0
      vertex -27.5 -24.5 0
    endloop
  endfacet
  facet normal 0 0 -1
    outer loop
      vertex -19.3891 19.3891 0
      vertex -27.5 24.5 0
      vertex -24.5 27.5 0
    endloop
  endfacet
  facet normal 0 0 -1
    outer loop
      vertex -27.5 -24.5 0
      vertex -24.5 -27.5 0
      vertex -26 -27.0981 0
    endloop
  endfacet
  facet normal 0 0 -1
    outer loop
      vertex -27.5 -24.5 0
      vertex -26 -27.0981 0
      vertex -27.0981 -26 0
    endloop
  endfacet
  facet normal 0 0 -1
    outer loop
      vertex -20.8126 14.0765 0
      vertex -27.5 24.5 0
      vertex -21 15.5 0
    endloop
  endfacet
  facet normal 0 0 -1
    outer loop
      vertex -24.5 27.5 0
      vertex -27.5 24.5 0
      vertex -26 27.0981 0
    endloop
  endfacet
  facet normal 0 0 -1
    outer loop
      vertex -26 27.0981 0
      vertex -27.5 24.5 0
      vertex -27.0981 26 0
    endloop
  endfacet
  facet normal 0 0 -1
    outer loop
      vertex 8.89919 6.46564 0
      vertex 14.0765 10.1874 0
      vertex 10.049 4.4741 0
    endloop
  endfacet
  facet normal -0 0 -1
    outer loop
      vertex 14.0765 10.1874 0
      vertex 8.89919 6.46564 0
      vertex 12.75 10.7369 0
    endloop
  endfacet
  facet normal -0 0 -1
    outer loop
      vertex 12.75 10.7369 0
      vertex 8.89919 6.46564 0
      vertex 11.6109 11.6109 0
    endloop
  endfacet
  facet normal 0 0 -1
    outer loop
      vertex 7.36044 8.17459 0
      vertex 11.6109 11.6109 0
      vertex 8.89919 6.46564 0
    endloop
  endfacet
  facet normal -0 0 -1
    outer loop
      vertex 11.6109 11.6109 0
      vertex 7.36044 8.17459 0
      vertex 10.7369 12.75 0
    endloop
  endfacet
  facet normal 0 0 -1
    outer loop
      vertex 5.5 9.52628 0
      vertex 10.7369 12.75 0
      vertex 7.36044 8.17459 0
    endloop
  endfacet
  facet normal 0.991445 -0.130526 0
    outer loop
      vertex 10 15.5 5
      vertex 10.1874 16.9235 0
      vertex 10.1874 16.9235 5
    endloop
  endfacet
  facet normal 0.991445 -0.130526 0
    outer loop
      vertex 10.1874 16.9235 0
      vertex 10 15.5 5
      vertex 10 15.5 0
    endloop
  endfacet
  facet normal 0.382684 -0.923879 0
    outer loop
      vertex 12.75 20.2631 0
      vertex 14.0765 20.8126 5
      vertex 12.75 20.2631 5
    endloop
  endfacet
  facet normal 0.382684 -0.923879 0
    outer loop
      vertex 14.0765 20.8126 5
      vertex 12.75 20.2631 0
      vertex 14.0765 20.8126 0
    endloop
  endfacet
  facet normal -0.991445 0.130527 0
    outer loop
      vertex 20.8126 14.0765 0
      vertex 21 15.5 5
      vertex 21 15.5 0
    endloop
  endfacet
  facet normal -0.991445 0.130527 0
    outer loop
      vertex 21 15.5 5
      vertex 20.8126 14.0765 0
      vertex 20.8126 14.0765 5
    endloop
  endfacet
  facet normal -0.608761 0.793354 0
    outer loop
      vertex 19.3891 11.6109 0
      vertex 18.25 10.7369 5
      vertex 19.3891 11.6109 5
    endloop
  endfacet
  facet normal -0.608761 0.793354 0
    outer loop
      vertex 18.25 10.7369 5
      vertex 19.3891 11.6109 0
      vertex 18.25 10.7369 0
    endloop
  endfacet
  facet normal 0.130526 0.991445 -0
    outer loop
      vertex 15.5 10 0
      vertex 14.0765 10.1874 5
      vertex 15.5 10 5
    endloop
  endfacet
  facet normal 0.130526 0.991445 0
    outer loop
      vertex 14.0765 10.1874 5
      vertex 15.5 10 0
      vertex 14.0765 10.1874 0
    endloop
  endfacet
  facet normal 0.608761 0.793353 -0
    outer loop
      vertex 12.75 10.7369 0
      vertex 11.6109 11.6109 5
      vertex 12.75 10.7369 5
    endloop
  endfacet
  facet normal 0.608761 0.793353 0
    outer loop
      vertex 11.6109 11.6109 5
      vertex 12.75 10.7369 0
      vertex 11.6109 11.6109 0
    endloop
  endfacet
  facet normal 0.923879 0.382684 0
    outer loop
      vertex 10.7369 12.75 5
      vertex 10.1874 14.0765 0
      vertex 10.1874 14.0765 5
    endloop
  endfacet
  facet normal 0.923879 0.382684 0
    outer loop
      vertex 10.1874 14.0765 0
      vertex 10.7369 12.75 5
      vertex 10.7369 12.75 0
    endloop
  endfacet
  facet normal 0.991445 0.130526 0
    outer loop
      vertex 10.1874 14.0765 5
      vertex 10 15.5 0
      vertex 10 15.5 5
    endloop
  endfacet
  facet normal 0.991445 0.130526 0
    outer loop
      vertex 10 15.5 0
      vertex 10.1874 14.0765 5
      vertex 10.1874 14.0765 0
    endloop
  endfacet
  facet normal -0.130526 0.991445 0
    outer loop
      vertex 16.9235 10.1874 0
      vertex 15.5 10 5
      vertex 16.9235 10.1874 5
    endloop
  endfacet
  facet normal -0.130526 0.991445 0
    outer loop
      vertex 15.5 10 5
      vertex 16.9235 10.1874 0
      vertex 15.5 10 0
    endloop
  endfacet
  facet normal 0.793354 0.608761 0
    outer loop
      vertex 11.6109 11.6109 5
      vertex 10.7369 12.75 0
      vertex 10.7369 12.75 5
    endloop
  endfacet
  facet normal 0.793354 0.608761 0
    outer loop
      vertex 10.7369 12.75 0
      vertex 11.6109 11.6109 5
      vertex 11.6109 11.6109 0
    endloop
  endfacet
  facet normal -0.991445 -0.130527 0
    outer loop
      vertex -10 15.5 0
      vertex -10.1874 16.9235 5
      vertex -10.1874 16.9235 0
    endloop
  endfacet
  facet normal -0.991445 -0.130527 0
    outer loop
      vertex -10.1874 16.9235 5
      vertex -10 15.5 0
      vertex -10 15.5 5
    endloop
  endfacet
  facet normal 0.130527 -0.991445 0
    outer loop
      vertex -16.9235 20.8126 0
      vertex -15.5 21 5
      vertex -16.9235 20.8126 5
    endloop
  endfacet
  facet normal 0.130527 -0.991445 0
    outer loop
      vertex -15.5 21 5
      vertex -16.9235 20.8126 0
      vertex -15.5 21 0
    endloop
  endfacet
  facet normal -0.608761 -0.793354 0
    outer loop
      vertex -12.75 20.2631 0
      vertex -11.6109 19.3891 5
      vertex -12.75 20.2631 5
    endloop
  endfacet
  facet normal -0.608761 -0.793354 -0
    outer loop
      vertex -11.6109 19.3891 5
      vertex -12.75 20.2631 0
      vertex -11.6109 19.3891 0
    endloop
  endfacet
  facet normal -0.92388 -0.382683 0
    outer loop
      vertex -10.1874 16.9235 0
      vertex -10.7369 18.25 5
      vertex -10.7369 18.25 0
    endloop
  endfacet
  facet normal -0.92388 -0.382683 0
    outer loop
      vertex -10.7369 18.25 5
      vertex -10.1874 16.9235 0
      vertex -10.1874 16.9235 5
    endloop
  endfacet
  facet normal 0.793354 -0.60876 0
    outer loop
      vertex -20.2631 18.25 5
      vertex -19.3891 19.3891 0
      vertex -19.3891 19.3891 5
    endloop
  endfacet
  facet normal 0.793354 -0.60876 0
    outer loop
      vertex -19.3891 19.3891 0
      vertex -20.2631 18.25 5
      vertex -20.2631 18.25 0
    endloop
  endfacet
  facet normal 0.923879 -0.382684 0
    outer loop
      vertex -20.8126 16.9235 5
      vertex -20.2631 18.25 0
      vertex -20.2631 18.25 5
    endloop
  endfacet
  facet normal 0.923879 -0.382684 0
    outer loop
      vertex -20.2631 18.25 0
      vertex -20.8126 16.9235 5
      vertex -20.8126 16.9235 0
    endloop
  endfacet
  facet normal 0.60876 -0.793354 0
    outer loop
      vertex -19.3891 19.3891 0
      vertex -18.25 20.2631 5
      vertex -19.3891 19.3891 5
    endloop
  endfacet
  facet normal 0.60876 -0.793354 0
    outer loop
      vertex -18.25 20.2631 5
      vertex -19.3891 19.3891 0
      vertex -18.25 20.2631 0
    endloop
  endfacet
  facet normal -0.793354 0.608761 0
    outer loop
      vertex -11.6109 11.6109 0
      vertex -10.7369 12.75 5
      vertex -10.7369 12.75 0
    endloop
  endfacet
  facet normal -0.793354 0.608761 0
    outer loop
      vertex -10.7369 12.75 5
      vertex -11.6109 11.6109 0
      vertex -11.6109 11.6109 5
    endloop
  endfacet
  facet normal 0.382683 0.92388 -0
    outer loop
      vertex -16.9235 10.1874 0
      vertex -18.25 10.7369 5
      vertex -16.9235 10.1874 5
    endloop
  endfacet
  facet normal 0.382683 0.92388 0
    outer loop
      vertex -18.25 10.7369 5
      vertex -16.9235 10.1874 0
      vertex -18.25 10.7369 0
    endloop
  endfacet
  facet normal -0.793354 -0.608761 0
    outer loop
      vertex -10.7369 18.25 0
      vertex -11.6109 19.3891 5
      vertex -11.6109 19.3891 0
    endloop
  endfacet
  facet normal -0.793354 -0.608761 0
    outer loop
      vertex -11.6109 19.3891 5
      vertex -10.7369 18.25 0
      vertex -10.7369 18.25 5
    endloop
  endfacet
  facet normal -0.130527 -0.991445 0
    outer loop
      vertex -15.5 21 0
      vertex -14.0765 20.8126 5
      vertex -15.5 21 5
    endloop
  endfacet
  facet normal -0.130527 -0.991445 -0
    outer loop
      vertex -14.0765 20.8126 5
      vertex -15.5 21 0
      vertex -14.0765 20.8126 0
    endloop
  endfacet
  facet normal -0.382684 -0.923879 0
    outer loop
      vertex -14.0765 20.8126 0
      vertex -12.75 20.2631 5
      vertex -14.0765 20.8126 5
    endloop
  endfacet
  facet normal -0.382684 -0.923879 -0
    outer loop
      vertex -12.75 20.2631 5
      vertex -14.0765 20.8126 0
      vertex -12.75 20.2631 0
    endloop
  endfacet
  facet normal 0.991445 -0.130527 0
    outer loop
      vertex -21 15.5 5
      vertex -20.8126 16.9235 0
      vertex -20.8126 16.9235 5
    endloop
  endfacet
  facet normal 0.991445 -0.130527 0
    outer loop
      vertex -20.8126 16.9235 0
      vertex -21 15.5 5
      vertex -21 15.5 0
    endloop
  endfacet
  facet normal 0.382684 -0.923879 0
    outer loop
      vertex -18.25 20.2631 0
      vertex -16.9235 20.8126 5
      vertex -18.25 20.2631 5
    endloop
  endfacet
  facet normal 0.382684 -0.923879 0
    outer loop
      vertex -16.9235 20.8126 5
      vertex -18.25 20.2631 0
      vertex -16.9235 20.8126 0
    endloop
  endfacet
  facet normal -0.991445 0.130527 0
    outer loop
      vertex -10.1874 14.0765 0
      vertex -10 15.5 5
      vertex -10 15.5 0
    endloop
  endfacet
  facet normal -0.991445 0.130527 0
    outer loop
      vertex -10 15.5 5
      vertex -10.1874 14.0765 0
      vertex -10.1874 14.0765 5
    endloop
  endfacet
  facet normal -0.382683 0.92388 0
    outer loop
      vertex -12.75 10.7369 0
      vertex -14.0765 10.1874 5
      vertex -12.75 10.7369 5
    endloop
  endfacet
  facet normal -0.382683 0.92388 0
    outer loop
      vertex -14.0765 10.1874 5
      vertex -12.75 10.7369 0
      vertex -14.0765 10.1874 0
    endloop
  endfacet
  facet normal 0.130526 0.991445 -0
    outer loop
      vertex -15.5 10 0
      vertex -16.9235 10.1874 5
      vertex -15.5 10 5
    endloop
  endfacet
  facet normal 0.130526 0.991445 0
    outer loop
      vertex -16.9235 10.1874 5
      vertex -15.5 10 0
      vertex -16.9235 10.1874 0
    endloop
  endfacet
  facet normal 0.608761 0.793354 -0
    outer loop
      vertex -18.25 10.7369 0
      vertex -19.3891 11.6109 5
      vertex -18.25 10.7369 5
    endloop
  endfacet
  facet normal 0.608761 0.793354 0
    outer loop
      vertex -19.3891 11.6109 5
      vertex -18.25 10.7369 0
      vertex -19.3891 11.6109 0
    endloop
  endfacet
  facet normal 0.923879 0.382684 0
    outer loop
      vertex -20.2631 12.75 5
      vertex -20.8126 14.0765 0
      vertex -20.8126 14.0765 5
    endloop
  endfacet
  facet normal 0.923879 0.382684 0
    outer loop
      vertex -20.8126 14.0765 0
      vertex -20.2631 12.75 5
      vertex -20.2631 12.75 0
    endloop
  endfacet
  facet normal 0.991445 0.130527 0
    outer loop
      vertex -20.8126 14.0765 5
      vertex -21 15.5 0
      vertex -21 15.5 5
    endloop
  endfacet
  facet normal 0.991445 0.130527 0
    outer loop
      vertex -21 15.5 0
      vertex -20.8126 14.0765 5
      vertex -20.8126 14.0765 0
    endloop
  endfacet
  facet normal -0.923879 0.382684 0
    outer loop
      vertex -10.7369 12.75 0
      vertex -10.1874 14.0765 5
      vertex -10.1874 14.0765 0
    endloop
  endfacet
  facet normal -0.923879 0.382684 0
    outer loop
      vertex -10.1874 14.0765 5
      vertex -10.7369 12.75 0
      vertex -10.7369 12.75 5
    endloop
  endfacet
  facet normal -0.608761 0.793353 0
    outer loop
      vertex -11.6109 11.6109 0
      vertex -12.75 10.7369 5
      vertex -11.6109 11.6109 5
    endloop
  endfacet
  facet normal -0.608761 0.793353 0
    outer loop
      vertex -12.75 10.7369 5
      vertex -11.6109 11.6109 0
      vertex -12.75 10.7369 0
    endloop
  endfacet
  facet normal -0.130526 0.991445 0
    outer loop
      vertex -14.0765 10.1874 0
      vertex -15.5 10 5
      vertex -14.0765 10.1874 5
    endloop
  endfacet
  facet normal -0.130526 0.991445 0
    outer loop
      vertex -15.5 10 5
      vertex -14.0765 10.1874 0
      vertex -15.5 10 0
    endloop
  endfacet
  facet normal 0.793354 0.60876 0
    outer loop
      vertex -19.3891 11.6109 5
      vertex -20.2631 12.75 0
      vertex -20.2631 12.75 5
    endloop
  endfacet
  facet normal 0.793354 0.60876 0
    outer loop
      vertex -20.2631 12.75 0
      vertex -19.3891 11.6109 5
      vertex -19.3891 11.6109 0
    endloop
  endfacet
  facet normal -0.991445 -0.130526 0
    outer loop
      vertex -10 -15.5 0
      vertex -10.1874 -14.0765 5
      vertex -10.1874 -14.0765 0
    endloop
  endfacet
  facet normal -0.991445 -0.130526 0
    outer loop
      vertex -10.1874 -14.0765 5
      vertex -10 -15.5 0
      vertex -10 -15.5 5
    endloop
  endfacet
  facet normal 0.991445 -0.130527 0
    outer loop
      vertex -21 -15.5 5
      vertex -20.8126 -14.0765 0
      vertex -20.8126 -14.0765 5
    endloop
  endfacet
  facet normal 0.991445 -0.130527 0
    outer loop
      vertex -20.8126 -14.0765 0
      vertex -21 -15.5 5
      vertex -21 -15.5 0
    endloop
  endfacet
  facet normal -0.130527 -0.991445 0
    outer loop
      vertex -15.5 -10 0
      vertex -14.0765 -10.1874 5
      vertex -15.5 -10 5
    endloop
  endfacet
  facet normal -0.130527 -0.991445 -0
    outer loop
      vertex -14.0765 -10.1874 5
      vertex -15.5 -10 0
      vertex -14.0765 -10.1874 0
    endloop
  endfacet
  facet normal -0.130527 0.991445 0
    outer loop
      vertex -14.0765 -20.8126 0
      vertex -15.5 -21 5
      vertex -14.0765 -20.8126 5
    endloop
  endfacet
  facet normal -0.130527 0.991445 0
    outer loop
      vertex -15.5 -21 5
      vertex -14.0765 -20.8126 0
      vertex -15.5 -21 0
    endloop
  endfacet
  facet normal -0.793353 -0.608761 0
    outer loop
      vertex -10.7369 -12.75 0
      vertex -11.6109 -11.6109 5
      vertex -11.6109 -11.6109 0
    endloop
  endfacet
  facet normal -0.793353 -0.608761 0
    outer loop
      vertex -11.6109 -11.6109 5
      vertex -10.7369 -12.75 0
      vertex -10.7369 -12.75 5
    endloop
  endfacet
  facet normal -0.92388 -0.382683 0
    outer loop
      vertex -10.1874 -14.0765 0
      vertex -10.7369 -12.75 5
      vertex -10.7369 -12.75 0
    endloop
  endfacet
  facet normal -0.92388 -0.382683 0
    outer loop
      vertex -10.7369 -12.75 5
      vertex -10.1874 -14.0765 0
      vertex -10.1874 -14.0765 5
    endloop
  endfacet
  facet normal 0.608761 -0.793354 0
    outer loop
      vertex -19.3891 -11.6109 0
      vertex -18.25 -10.7369 5
      vertex -19.3891 -11.6109 5
    endloop
  endfacet
  facet normal 0.608761 -0.793354 0
    outer loop
      vertex -18.25 -10.7369 5
      vertex -19.3891 -11.6109 0
      vertex -18.25 -10.7369 0
    endloop
  endfacet
  facet normal 0.793354 -0.608761 0
    outer loop
      vertex -20.2631 -12.75 5
      vertex -19.3891 -11.6109 0
      vertex -19.3891 -11.6109 5
    endloop
  endfacet
  facet normal 0.793354 -0.608761 0
    outer loop
      vertex -19.3891 -11.6109 0
      vertex -20.2631 -12.75 5
      vertex -20.2631 -12.75 0
    endloop
  endfacet
  facet normal 0.382683 -0.92388 0
    outer loop
      vertex -18.25 -10.7369 0
      vertex -16.9235 -10.1874 5
      vertex -18.25 -10.7369 5
    endloop
  endfacet
  facet normal 0.382683 -0.92388 0
    outer loop
      vertex -16.9235 -10.1874 5
      vertex -18.25 -10.7369 0
      vertex -16.9235 -10.1874 0
    endloop
  endfacet
  facet normal -0.382684 -0.923879 0
    outer loop
      vertex -14.0765 -10.1874 0
      vertex -12.75 -10.7369 5
      vertex -14.0765 -10.1874 5
    endloop
  endfacet
  facet normal -0.382684 -0.923879 -0
    outer loop
      vertex -12.75 -10.7369 5
      vertex -14.0765 -10.1874 0
      vertex -12.75 -10.7369 0
    endloop
  endfacet
  facet normal -0.608761 -0.793354 0
    outer loop
      vertex -12.75 -10.7369 0
      vertex -11.6109 -11.6109 5
      vertex -12.75 -10.7369 5
    endloop
  endfacet
  facet normal -0.608761 -0.793354 -0
    outer loop
      vertex -11.6109 -11.6109 5
      vertex -12.75 -10.7369 0
      vertex -11.6109 -11.6109 0
    endloop
  endfacet
  facet normal 0.923879 -0.382684 0
    outer loop
      vertex -20.8126 -14.0765 5
      vertex -20.2631 -12.75 0
      vertex -20.2631 -12.75 5
    endloop
  endfacet
  facet normal 0.923879 -0.382684 0
    outer loop
      vertex -20.2631 -12.75 0
      vertex -20.8126 -14.0765 5
      vertex -20.8126 -14.0765 0
    endloop
  endfacet
  facet normal 0.130527 -0.991445 0
    outer loop
      vertex -16.9235 -10.1874 0
      vertex -15.5 -10 5
      vertex -16.9235 -10.1874 5
    endloop
  endfacet
  facet normal 0.130527 -0.991445 0
    outer loop
      vertex -15.5 -10 5
      vertex -16.9235 -10.1874 0
      vertex -15.5 -10 0
    endloop
  endfacet
  facet normal -0.991445 0.130526 0
    outer loop
      vertex -10.1874 -16.9235 0
      vertex -10 -15.5 5
      vertex -10 -15.5 0
    endloop
  endfacet
  facet normal -0.991445 0.130526 0
    outer loop
      vertex -10 -15.5 5
      vertex -10.1874 -16.9235 0
      vertex -10.1874 -16.9235 5
    endloop
  endfacet
  facet normal -0.793354 0.608761 0
    outer loop
      vertex -11.6109 -19.3891 0
      vertex -10.7369 -18.25 5
      vertex -10.7369 -18.25 0
    endloop
  endfacet
  facet normal -0.793354 0.608761 0
    outer loop
      vertex -10.7369 -18.25 5
      vertex -11.6109 -19.3891 0
      vertex -11.6109 -19.3891 5
    endloop
  endfacet
  facet normal -0.92388 0.382683 0
    outer loop
      vertex -10.7369 -18.25 0
      vertex -10.1874 -16.9235 5
      vertex -10.1874 -16.9235 0
    endloop
  endfacet
  facet normal -0.92388 0.382683 0
    outer loop
      vertex -10.1874 -16.9235 5
      vertex -10.7369 -18.25 0
      vertex -10.7369 -18.25 5
    endloop
  endfacet
  facet normal 0.60876 0.793354 -0
    outer loop
      vertex -18.25 -20.2631 0
      vertex -19.3891 -19.3891 5
      vertex -18.25 -20.2631 5
    endloop
  endfacet
  facet normal 0.60876 0.793354 0
    outer loop
      vertex -19.3891 -19.3891 5
      vertex -18.25 -20.2631 0
      vertex -19.3891 -19.3891 0
    endloop
  endfacet
  facet normal 0.923879 0.382684 0
    outer loop
      vertex -20.2631 -18.25 5
      vertex -20.8126 -16.9235 0
      vertex -20.8126 -16.9235 5
    endloop
  endfacet
  facet normal 0.923879 0.382684 0
    outer loop
      vertex -20.8126 -16.9235 0
      vertex -20.2631 -18.25 5
      vertex -20.2631 -18.25 0
    endloop
  endfacet
  facet normal 0.991445 0.130527 0
    outer loop
      vertex -20.8126 -16.9235 5
      vertex -21 -15.5 0
      vertex -21 -15.5 5
    endloop
  endfacet
  facet normal 0.991445 0.130527 0
    outer loop
      vertex -21 -15.5 0
      vertex -20.8126 -16.9235 5
      vertex -20.8126 -16.9235 0
    endloop
  endfacet
  facet normal 0.793354 0.60876 0
    outer loop
      vertex -19.3891 -19.3891 5
      vertex -20.2631 -18.25 0
      vertex -20.2631 -18.25 5
    endloop
  endfacet
  facet normal 0.793354 0.60876 0
    outer loop
      vertex -20.2631 -18.25 0
      vertex -19.3891 -19.3891 5
      vertex -19.3891 -19.3891 0
    endloop
  endfacet
  facet normal 0.130527 0.991445 -0
    outer loop
      vertex -15.5 -21 0
      vertex -16.9235 -20.8126 5
      vertex -15.5 -21 5
    endloop
  endfacet
  facet normal 0.130527 0.991445 0
    outer loop
      vertex -16.9235 -20.8126 5
      vertex -15.5 -21 0
      vertex -16.9235 -20.8126 0
    endloop
  endfacet
  facet normal -0.60876 0.793354 0
    outer loop
      vertex -11.6109 -19.3891 0
      vertex -12.75 -20.2631 5
      vertex -11.6109 -19.3891 5
    endloop
  endfacet
  facet normal -0.60876 0.793354 0
    outer loop
      vertex -12.75 -20.2631 5
      vertex -11.6109 -19.3891 0
      vertex -12.75 -20.2631 0
    endloop
  endfacet
  facet normal -0.382684 0.923879 0
    outer loop
      vertex -12.75 -20.2631 0
      vertex -14.0765 -20.8126 5
      vertex -12.75 -20.2631 5
    endloop
  endfacet
  facet normal -0.382684 0.923879 0
    outer loop
      vertex -14.0765 -20.8126 5
      vertex -12.75 -20.2631 0
      vertex -14.0765 -20.8126 0
    endloop
  endfacet
  facet normal 0.382684 0.923879 -0
    outer loop
      vertex -16.9235 -20.8126 0
      vertex -18.25 -20.2631 5
      vertex -16.9235 -20.8126 5
    endloop
  endfacet
  facet normal 0.382684 0.923879 0
    outer loop
      vertex -18.25 -20.2631 5
      vertex -16.9235 -20.8126 0
      vertex -18.25 -20.2631 0
    endloop
  endfacet
  facet normal 0.991445 -0.130527 0
    outer loop
      vertex 10 -15.5 5
      vertex 10.1874 -14.0765 0
      vertex 10.1874 -14.0765 5
    endloop
  endfacet
  facet normal 0.991445 -0.130527 0
    outer loop
      vertex 10.1874 -14.0765 0
      vertex 10 -15.5 5
      vertex 10 -15.5 0
    endloop
  endfacet
  facet normal -0.382683 -0.92388 0
    outer loop
      vertex 16.9235 -10.1874 0
      vertex 18.25 -10.7369 5
      vertex 16.9235 -10.1874 5
    endloop
  endfacet
  facet normal -0.382683 -0.92388 -0
    outer loop
      vertex 18.25 -10.7369 5
      vertex 16.9235 -10.1874 0
      vertex 18.25 -10.7369 0
    endloop
  endfacet
  facet normal -0.991445 0.130527 0
    outer loop
      vertex 20.8126 -16.9235 0
      vertex 21 -15.5 5
      vertex 21 -15.5 0
    endloop
  endfacet
  facet normal -0.991445 0.130527 0
    outer loop
      vertex 21 -15.5 5
      vertex 20.8126 -16.9235 0
      vertex 20.8126 -16.9235 5
    endloop
  endfacet
  facet normal 0.382684 0.923879 -0
    outer loop
      vertex 14.0765 -20.8126 0
      vertex 12.75 -20.2631 5
      vertex 14.0765 -20.8126 5
    endloop
  endfacet
  facet normal 0.382684 0.923879 0
    outer loop
      vertex 12.75 -20.2631 5
      vertex 14.0765 -20.8126 0
      vertex 12.75 -20.2631 0
    endloop
  endfacet
  facet normal -0.608761 -0.793354 0
    outer loop
      vertex 18.25 -10.7369 0
      vertex 19.3891 -11.6109 5
      vertex 18.25 -10.7369 5
    endloop
  endfacet
  facet normal -0.608761 -0.793354 -0
    outer loop
      vertex 19.3891 -11.6109 5
      vertex 18.25 -10.7369 0
      vertex 19.3891 -11.6109 0
    endloop
  endfacet
  facet normal 0.382683 -0.92388 0
    outer loop
      vertex 12.75 -10.7369 0
      vertex 14.0765 -10.1874 5
      vertex 12.75 -10.7369 5
    endloop
  endfacet
  facet normal 0.382683 -0.92388 0
    outer loop
      vertex 14.0765 -10.1874 5
      vertex 12.75 -10.7369 0
      vertex 14.0765 -10.1874 0
    endloop
  endfacet
  facet normal 0.923879 -0.382684 0
    outer loop
      vertex 10.1874 -14.0765 5
      vertex 10.7369 -12.75 0
      vertex 10.7369 -12.75 5
    endloop
  endfacet
  facet normal 0.923879 -0.382684 0
    outer loop
      vertex 10.7369 -12.75 0
      vertex 10.1874 -14.0765 5
      vertex 10.1874 -14.0765 0
    endloop
  endfacet
  facet normal 0.608761 -0.793353 0
    outer loop
      vertex 11.6109 -11.6109 0
      vertex 12.75 -10.7369 5
      vertex 11.6109 -11.6109 5
    endloop
  endfacet
  facet normal 0.608761 -0.793353 0
    outer loop
      vertex 12.75 -10.7369 5
      vertex 11.6109 -11.6109 0
      vertex 12.75 -10.7369 0
    endloop
  endfacet
  facet normal -0.130527 0.991445 0
    outer loop
      vertex 16.9235 -20.8126 0
      vertex 15.5 -21 5
      vertex 16.9235 -20.8126 5
    endloop
  endfacet
  facet normal -0.130527 0.991445 0
    outer loop
      vertex 15.5 -21 5
      vertex 16.9235 -20.8126 0
      vertex 15.5 -21 0
    endloop
  endfacet
  facet normal 0.92388 0.382683 0
    outer loop
      vertex 10.7369 -18.25 5
      vertex 10.1874 -16.9235 0
      vertex 10.1874 -16.9235 5
    endloop
  endfacet
  facet normal 0.92388 0.382683 0
    outer loop
      vertex 10.1874 -16.9235 0
      vertex 10.7369 -18.25 5
      vertex 10.7369 -18.25 0
    endloop
  endfacet
  facet normal 0.608761 0.793354 -0
    outer loop
      vertex 12.75 -20.2631 0
      vertex 11.6109 -19.3891 5
      vertex 12.75 -20.2631 5
    endloop
  endfacet
  facet normal 0.608761 0.793354 0
    outer loop
      vertex 11.6109 -19.3891 5
      vertex 12.75 -20.2631 0
      vertex 11.6109 -19.3891 0
    endloop
  endfacet
  facet normal 0.793354 0.608761 0
    outer loop
      vertex 11.6109 -19.3891 5
      vertex 10.7369 -18.25 0
      vertex 10.7369 -18.25 5
    endloop
  endfacet
  facet normal 0.793354 0.608761 0
    outer loop
      vertex 10.7369 -18.25 0
      vertex 11.6109 -19.3891 5
      vertex 11.6109 -19.3891 0
    endloop
  endfacet
  facet normal -0.923879 -0.382684 0
    outer loop
      vertex 20.8126 -14.0765 0
      vertex 20.2631 -12.75 5
      vertex 20.2631 -12.75 0
    endloop
  endfacet
  facet normal -0.923879 -0.382684 0
    outer loop
      vertex 20.2631 -12.75 5
      vertex 20.8126 -14.0765 0
      vertex 20.8126 -14.0765 5
    endloop
  endfacet
  facet normal -0.793354 -0.60876 0
    outer loop
      vertex 20.2631 -12.75 0
      vertex 19.3891 -11.6109 5
      vertex 19.3891 -11.6109 0
    endloop
  endfacet
  facet normal -0.793354 -0.60876 0
    outer loop
      vertex 19.3891 -11.6109 5
      vertex 20.2631 -12.75 0
      vertex 20.2631 -12.75 5
    endloop
  endfacet
  facet normal 0.130526 -0.991445 0
    outer loop
      vertex 14.0765 -10.1874 0
      vertex 15.5 -10 5
      vertex 14.0765 -10.1874 5
    endloop
  endfacet
  facet normal 0.130526 -0.991445 0
    outer loop
      vertex 15.5 -10 5
      vertex 14.0765 -10.1874 0
      vertex 15.5 -10 0
    endloop
  endfacet
  facet normal 0.793354 -0.608761 0
    outer loop
      vertex 10.7369 -12.75 5
      vertex 11.6109 -11.6109 0
      vertex 11.6109 -11.6109 5
    endloop
  endfacet
  facet normal 0.793354 -0.608761 0
    outer loop
      vertex 11.6109 -11.6109 0
      vertex 10.7369 -12.75 5
      vertex 10.7369 -12.75 0
    endloop
  endfacet
  facet normal -0.991445 -0.130527 0
    outer loop
      vertex 21 -15.5 0
      vertex 20.8126 -14.0765 5
      vertex 20.8126 -14.0765 0
    endloop
  endfacet
  facet normal -0.991445 -0.130527 0
    outer loop
      vertex 20.8126 -14.0765 5
      vertex 21 -15.5 0
      vertex 21 -15.5 5
    endloop
  endfacet
  facet normal -0.382684 0.923879 0
    outer loop
      vertex 18.25 -20.2631 0
      vertex 16.9235 -20.8126 5
      vertex 18.25 -20.2631 5
    endloop
  endfacet
  facet normal -0.382684 0.923879 0
    outer loop
      vertex 16.9235 -20.8126 5
      vertex 18.25 -20.2631 0
      vertex 16.9235 -20.8126 0
    endloop
  endfacet
  facet normal -0.793354 0.60876 0
    outer loop
      vertex 19.3891 -19.3891 0
      vertex 20.2631 -18.25 5
      vertex 20.2631 -18.25 0
    endloop
  endfacet
  facet normal -0.793354 0.60876 0
    outer loop
      vertex 20.2631 -18.25 5
      vertex 19.3891 -19.3891 0
      vertex 19.3891 -19.3891 5
    endloop
  endfacet
  facet normal 0.130527 0.991445 -0
    outer loop
      vertex 15.5 -21 0
      vertex 14.0765 -20.8126 5
      vertex 15.5 -21 5
    endloop
  endfacet
  facet normal 0.130527 0.991445 0
    outer loop
      vertex 14.0765 -20.8126 5
      vertex 15.5 -21 0
      vertex 14.0765 -20.8126 0
    endloop
  endfacet
  facet normal 0.991445 0.130527 0
    outer loop
      vertex 10.1874 -16.9235 5
      vertex 10 -15.5 0
      vertex 10 -15.5 5
    endloop
  endfacet
  facet normal 0.991445 0.130527 0
    outer loop
      vertex 10 -15.5 0
      vertex 10.1874 -16.9235 5
      vertex 10.1874 -16.9235 0
    endloop
  endfacet
  facet normal -0.130526 -0.991445 0
    outer loop
      vertex 15.5 -10 0
      vertex 16.9235 -10.1874 5
      vertex 15.5 -10 5
    endloop
  endfacet
  facet normal -0.130526 -0.991445 -0
    outer loop
      vertex 16.9235 -10.1874 5
      vertex 15.5 -10 0
      vertex 16.9235 -10.1874 0
    endloop
  endfacet
  facet normal -0.60876 0.793354 0
    outer loop
      vertex 19.3891 -19.3891 0
      vertex 18.25 -20.2631 5
      vertex 19.3891 -19.3891 5
    endloop
  endfacet
  facet normal -0.60876 0.793354 0
    outer loop
      vertex 18.25 -20.2631 5
      vertex 19.3891 -19.3891 0
      vertex 18.25 -20.2631 0
    endloop
  endfacet
  facet normal -0.923879 0.382684 0
    outer loop
      vertex 20.2631 -18.25 0
      vertex 20.8126 -16.9235 5
      vertex 20.8126 -16.9235 0
    endloop
  endfacet
  facet normal -0.923879 0.382684 0
    outer loop
      vertex 20.8126 -16.9235 5
      vertex 20.2631 -18.25 0
      vertex 20.2631 -18.25 5
    endloop
  endfacet
  facet normal -0.707106 0.707107 0
    outer loop
      vertex -26 27.0981 0
      vertex -27.0981 26 5
      vertex -26 27.0981 5
    endloop
  endfacet
  facet normal -0.707106 0.707107 0
    outer loop
      vertex -27.0981 26 5
      vertex -26 27.0981 0
      vertex -27.0981 26 0
    endloop
  endfacet
  facet normal 0.965926 -0.258819 0
    outer loop
      vertex 27.0981 -26 5
      vertex 27.5 -24.5 0
      vertex 27.5 -24.5 5
    endloop
  endfacet
  facet normal 0.965926 -0.258819 0
    outer loop
      vertex 27.5 -24.5 0
      vertex 27.0981 -26 5
      vertex 27.0981 -26 0
    endloop
  endfacet
  facet normal -0.25882 0.965926 0
    outer loop
      vertex -24.5 27.5 0
      vertex -26 27.0981 5
      vertex -24.5 27.5 5
    endloop
  endfacet
  facet normal -0.25882 0.965926 0
    outer loop
      vertex -26 27.0981 5
      vertex -24.5 27.5 0
      vertex -26 27.0981 0
    endloop
  endfacet
  facet normal 0 1 -0
    outer loop
      vertex 24.5 27.5 0
      vertex -24.5 27.5 5
      vertex 24.5 27.5 5
    endloop
  endfacet
  facet normal 0 1 0
    outer loop
      vertex -24.5 27.5 5
      vertex 24.5 27.5 0
      vertex -24.5 27.5 0
    endloop
  endfacet
  facet normal 0 0 1
    outer loop
      vertex -14.0765 -10.1874 5
      vertex -8.89919 -6.46564 5
      vertex -10.049 -4.4741 5
    endloop
  endfacet
  facet normal 0 0 1
    outer loop
      vertex -8.89919 -6.46564 5
      vertex -10.1874 -14.0765 5
      vertex -10 -15.5 5
    endloop
  endfacet
  facet normal 0 0 1
    outer loop
      vertex -8.89919 -6.46564 5
      vertex -10.7369 -12.75 5
      vertex -10.1874 -14.0765 5
    endloop
  endfacet
  facet normal 0 0 1
    outer loop
      vertex -15.5 -10 5
      vertex -10.049 -4.4741 5
      vertex -10.7596 -2.28703 5
    endloop
  endfacet
  facet normal 0 0 1
    outer loop
      vertex -16.9235 -10.1874 5
      vertex -10.7596 -2.28703 5
      vertex -11 0 5
    endloop
  endfacet
  facet normal -0 0 1
    outer loop
      vertex -15.5 10 5
      vertex -10.049 4.4741 5
      vertex -14.0765 10.1874 5
    endloop
  endfacet
  facet normal 0 0 1
    outer loop
      vertex -8.89919 -6.46564 5
      vertex -11.6109 -11.6109 5
      vertex -10.7369 -12.75 5
    endloop
  endfacet
  facet normal 0 0 1
    outer loop
      vertex -10.049 4.4741 5
      vertex -15.5 10 5
      vertex -10.7596 2.28703 5
    endloop
  endfacet
  facet normal 0 0 1
    outer loop
      vertex -8.89919 -6.46564 5
      vertex -12.75 -10.7369 5
      vertex -11.6109 -11.6109 5
    endloop
  endfacet
  facet normal 0 0 1
    outer loop
      vertex -16.9235 10.1874 5
      vertex -10.7596 2.28703 5
      vertex -15.5 10 5
    endloop
  endfacet
  facet normal 0 0 1
    outer loop
      vertex -8.89919 -6.46564 5
      vertex -14.0765 -10.1874 5
      vertex -12.75 -10.7369 5
    endloop
  endfacet
  facet normal 0 0 1
    outer loop
      vertex -10.7596 2.28703 5
      vertex -16.9235 10.1874 5
      vertex -11 0 5
    endloop
  endfacet
  facet normal 0 0 1
    outer loop
      vertex -10.049 -4.4741 5
      vertex -15.5 -10 5
      vertex -14.0765 -10.1874 5
    endloop
  endfacet
  facet normal 0 0 1
    outer loop
      vertex -18.25 10.7369 5
      vertex -11 0 5
      vertex -16.9235 10.1874 5
    endloop
  endfacet
  facet normal 0 0 1
    outer loop
      vertex -10.7596 -2.28703 5
      vertex -16.9235 -10.1874 5
      vertex -15.5 -10 5
    endloop
  endfacet
  facet normal 0 0 1
    outer loop
      vertex -18.25 -10.7369 5
      vertex -11 0 5
      vertex -18.25 10.7369 5
    endloop
  endfacet
  facet normal 0 0 1
    outer loop
      vertex -11 0 5
      vertex -18.25 -10.7369 5
      vertex -16.9235 -10.1874 5
    endloop
  endfacet
  facet normal 0 0 1
    outer loop
      vertex -19.3891 11.6109 5
      vertex -18.25 -10.7369 5
      vertex -18.25 10.7369 5
    endloop
  endfacet
  facet normal 0 0 1
    outer loop
      vertex -19.3891 11.6109 5
      vertex -19.3891 -11.6109 5
      vertex -18.25 -10.7369 5
    endloop
  endfacet
  facet normal 0 0 1
    outer loop
      vertex -20.2631 12.75 5
      vertex -19.3891 -11.6109 5
      vertex -19.3891 11.6109 5
    endloop
  endfacet
  facet normal 0 0 1
    outer loop
      vertex -20.2631 12.75 5
      vertex -20.2631 -12.75 5
      vertex -19.3891 -11.6109 5
    endloop
  endfacet
  facet normal 0 0 1
    outer loop
      vertex -20.8126 14.0765 5
      vertex -20.2631 -12.75 5
      vertex -20.2631 12.75 5
    endloop
  endfacet
  facet normal 0 0 1
    outer loop
      vertex -20.8126 14.0765 5
      vertex -20.8126 -14.0765 5
      vertex -20.2631 -12.75 5
    endloop
  endfacet
  facet normal 0 0 1
    outer loop
      vertex -27.5 24.5 5
      vertex -20.8126 14.0765 5
      vertex -21 15.5 5
    endloop
  endfacet
  facet normal 0 0 1
    outer loop
      vertex -20.8126 14.0765 5
      vertex -27.5 24.5 5
      vertex -20.8126 -14.0765 5
    endloop
  endfacet
  facet normal 0 0 1
    outer loop
      vertex -5.5 9.52628 5
      vertex -10.7369 12.75 5
      vertex -7.36044 8.17459 5
    endloop
  endfacet
  facet normal -0 0 1
    outer loop
      vertex -11.6109 11.6109 5
      vertex -7.36044 8.17459 5
      vertex -10.7369 12.75 5
    endloop
  endfacet
  facet normal 0 0 1
    outer loop
      vertex -7.36044 8.17459 5
      vertex -11.6109 11.6109 5
      vertex -8.89919 6.46564 5
    endloop
  endfacet
  facet normal -0 0 1
    outer loop
      vertex -12.75 10.7369 5
      vertex -8.89919 6.46564 5
      vertex -11.6109 11.6109 5
    endloop
  endfacet
  facet normal -0 0 1
    outer loop
      vertex -14.0765 10.1874 5
      vertex -8.89919 6.46564 5
      vertex -12.75 10.7369 5
    endloop
  endfacet
  facet normal 0 0 1
    outer loop
      vertex -8.89919 6.46564 5
      vertex -14.0765 10.1874 5
      vertex -10.049 4.4741 5
    endloop
  endfacet
  facet normal -0 0 1
    outer loop
      vertex 20.8126 -14.0765 5
      vertex 27.5 -24.5 5
      vertex 20.8126 14.0765 5
    endloop
  endfacet
  facet normal 0 0 1
    outer loop
      vertex 27.5 -24.5 5
      vertex 20.8126 -14.0765 5
      vertex 21 -15.5 5
    endloop
  endfacet
  facet normal -0 0 1
    outer loop
      vertex 20.2631 12.75 5
      vertex 20.8126 -14.0765 5
      vertex 20.8126 14.0765 5
    endloop
  endfacet
  facet normal 0 0 1
    outer loop
      vertex 20.2631 12.75 5
      vertex 20.2631 -12.75 5
      vertex 20.8126 -14.0765 5
    endloop
  endfacet
  facet normal -0 0 1
    outer loop
      vertex 19.3891 11.6109 5
      vertex 20.2631 -12.75 5
      vertex 20.2631 12.75 5
    endloop
  endfacet
  facet normal 0 0 1
    outer loop
      vertex 19.3891 11.6109 5
      vertex 19.3891 -11.6109 5
      vertex 20.2631 -12.75 5
    endloop
  endfacet
  facet normal -0 0 1
    outer loop
      vertex 18.25 10.7369 5
      vertex 19.3891 -11.6109 5
      vertex 19.3891 11.6109 5
    endloop
  endfacet
  facet normal 0 0 1
    outer loop
      vertex 18.25 10.7369 5
      vertex 18.25 -10.7369 5
      vertex 19.3891 -11.6109 5
    endloop
  endfacet
  facet normal 0 0 1
    outer loop
      vertex 11 0 5
      vertex 18.25 10.7369 5
      vertex 16.9235 10.1874 5
    endloop
  endfacet
  facet normal 0 0 1
    outer loop
      vertex 18.25 10.7369 5
      vertex 11 0 5
      vertex 18.25 -10.7369 5
    endloop
  endfacet
  facet normal 0 0 1
    outer loop
      vertex 10.7596 2.28703 5
      vertex 16.9235 10.1874 5
      vertex 15.5 10 5
    endloop
  endfacet
  facet normal 0 0 1
    outer loop
      vertex 18.25 -10.7369 5
      vertex 11 0 5
      vertex 16.9235 -10.1874 5
    endloop
  endfacet
  facet normal 0 0 1
    outer loop
      vertex 10.049 4.4741 5
      vertex 15.5 10 5
      vertex 14.0765 10.1874 5
    endloop
  endfacet
  facet normal -0 0 1
    outer loop
      vertex 10.7596 -2.28703 5
      vertex 16.9235 -10.1874 5
      vertex 11 0 5
    endloop
  endfacet
  facet normal 0 0 1
    outer loop
      vertex 8.89919 6.46564 5
      vertex 14.0765 10.1874 5
      vertex 12.75 10.7369 5
    endloop
  endfacet
  facet normal 0 0 1
    outer loop
      vertex 16.9235 -10.1874 5
      vertex 10.7596 -2.28703 5
      vertex 15.5 -10 5
    endloop
  endfacet
  facet normal 0 0 1
    outer loop
      vertex 8.89919 6.46564 5
      vertex 12.75 10.7369 5
      vertex 11.6109 11.6109 5
    endloop
  endfacet
  facet normal -0 0 1
    outer loop
      vertex 10.049 -4.4741 5
      vertex 15.5 -10 5
      vertex 10.7596 -2.28703 5
    endloop
  endfacet
  facet normal 0 0 1
    outer loop
      vertex 15.5 -10 5
      vertex 10.049 -4.4741 5
      vertex 14.0765 -10.1874 5
    endloop
  endfacet
  facet normal 0 0 1
    outer loop
      vertex 16.9235 10.1874 5
      vertex 10.7596 2.28703 5
      vertex 11 0 5
    endloop
  endfacet
  facet normal 0 0 1
    outer loop
      vertex 7.36044 8.17459 5
      vertex 11.6109 11.6109 5
      vertex 10.7369 12.75 5
    endloop
  endfacet
  facet normal 0 0 1
    outer loop
      vertex 5.5 9.52628 5
      vertex 10.7369 12.75 5
      vertex 10.1874 14.0765 5
    endloop
  endfacet
  facet normal 0 0 1
    outer loop
      vertex 15.5 10 5
      vertex 10.049 4.4741 5
      vertex 10.7596 2.28703 5
    endloop
  endfacet
  facet normal 0 0 1
    outer loop
      vertex 3.39919 10.4616 5
      vertex 10.1874 14.0765 5
      vertex 10 15.5 5
    endloop
  endfacet
  facet normal 0 0 1
    outer loop
      vertex 14.0765 10.1874 5
      vertex 8.89919 6.46564 5
      vertex 10.049 4.4741 5
    endloop
  endfacet
  facet normal 0 0 1
    outer loop
      vertex 24.5 27.5 5
      vertex 27.5 24.5 5
      vertex 27.0981 26 5
    endloop
  endfacet
  facet normal 0 0 1
    outer loop
      vertex 20.8126 14.0765 5
      vertex 27.5 24.5 5
      vertex 21 15.5 5
    endloop
  endfacet
  facet normal 0 0 1
    outer loop
      vertex 24.5 27.5 5
      vertex 27.0981 26 5
      vertex 26 27.0981 5
    endloop
  endfacet
  facet normal 0 0 1
    outer loop
      vertex 27.5 24.5 5
      vertex 20.8126 14.0765 5
      vertex 27.5 -24.5 5
    endloop
  endfacet
  facet normal 0 0 1
    outer loop
      vertex 27.5 24.5 5
      vertex 24.5 27.5 5
      vertex 19.3891 19.3891 5
    endloop
  endfacet
  facet normal -0 0 1
    outer loop
      vertex 20.8126 -16.9235 5
      vertex 27.5 -24.5 5
      vertex 21 -15.5 5
    endloop
  endfacet
  facet normal -0 0 1
    outer loop
      vertex 20.2631 -18.25 5
      vertex 27.5 -24.5 5
      vertex 20.8126 -16.9235 5
    endloop
  endfacet
  facet normal 0 0 1
    outer loop
      vertex 27.5 24.5 5
      vertex 20.8126 16.9235 5
      vertex 21 15.5 5
    endloop
  endfacet
  facet normal 0 0 1
    outer loop
      vertex 27.5 24.5 5
      vertex 20.2631 18.25 5
      vertex 20.8126 16.9235 5
    endloop
  endfacet
  facet normal 0 0 1
    outer loop
      vertex 27.5 24.5 5
      vertex 19.3891 19.3891 5
      vertex 20.2631 18.25 5
    endloop
  endfacet
  facet normal 0 0 1
    outer loop
      vertex 24.5 27.5 5
      vertex 18.25 20.2631 5
      vertex 19.3891 19.3891 5
    endloop
  endfacet
  facet normal 0 0 1
    outer loop
      vertex 24.5 27.5 5
      vertex 16.9235 20.8126 5
      vertex 18.25 20.2631 5
    endloop
  endfacet
  facet normal 0 0 1
    outer loop
      vertex 24.5 27.5 5
      vertex 15.5 21 5
      vertex 16.9235 20.8126 5
    endloop
  endfacet
  facet normal 0 0 1
    outer loop
      vertex 24.5 27.5 5
      vertex 14.0765 20.8126 5
      vertex 15.5 21 5
    endloop
  endfacet
  facet normal 0 0 1
    outer loop
      vertex -14.0765 20.8126 5
      vertex 14.0765 20.8126 5
      vertex 24.5 27.5 5
    endloop
  endfacet
  facet normal 0 0 1
    outer loop
      vertex 11.6109 11.6109 5
      vertex 7.36044 8.17459 5
      vertex 8.89919 6.46564 5
    endloop
  endfacet
  facet normal 0 0 1
    outer loop
      vertex 3.39919 10.4616 5
      vertex 10 15.5 5
      vertex 10.1874 16.9235 5
    endloop
  endfacet
  facet normal 0 0 1
    outer loop
      vertex 10.7369 12.75 5
      vertex 5.5 9.52628 5
      vertex 7.36044 8.17459 5
    endloop
  endfacet
  facet normal 0 0 1
    outer loop
      vertex 1.14981 10.9397 5
      vertex 10.1874 16.9235 5
      vertex 10.7369 18.25 5
    endloop
  endfacet
  facet normal 0 0 1
    outer loop
      vertex 10.1874 14.0765 5
      vertex 3.39919 10.4616 5
      vertex 5.5 9.52628 5
    endloop
  endfacet
  facet normal 0 0 1
    outer loop
      vertex -10.7369 18.25 5
      vertex 10.7369 18.25 5
      vertex 11.6109 19.3891 5
    endloop
  endfacet
  facet normal 0 0 1
    outer loop
      vertex 10.1874 16.9235 5
      vertex 1.14981 10.9397 5
      vertex 3.39919 10.4616 5
    endloop
  endfacet
  facet normal 0 0 1
    outer loop
      vertex 10.7369 18.25 5
      vertex -10.7369 18.25 5
      vertex 1.14981 10.9397 5
    endloop
  endfacet
  facet normal 0 0 1
    outer loop
      vertex -11.6109 19.3891 5
      vertex 11.6109 19.3891 5
      vertex 12.75 20.2631 5
    endloop
  endfacet
  facet normal 0 0 1
    outer loop
      vertex 1.14981 10.9397 5
      vertex -10.7369 18.25 5
      vertex -1.14981 10.9397 5
    endloop
  endfacet
  facet normal 0 0 1
    outer loop
      vertex 14.0765 20.8126 5
      vertex -14.0765 20.8126 5
      vertex 12.75 20.2631 5
    endloop
  endfacet
  facet normal 0 0 1
    outer loop
      vertex -1.14981 10.9397 5
      vertex -10.7369 18.25 5
      vertex -10.1874 16.9235 5
    endloop
  endfacet
  facet normal -0 0 1
    outer loop
      vertex -10.7369 12.75 5
      vertex -5.5 9.52628 5
      vertex -10.1874 14.0765 5
    endloop
  endfacet
  facet normal 0 0 1
    outer loop
      vertex -3.39919 10.4616 5
      vertex -10.1874 14.0765 5
      vertex -5.5 9.52628 5
    endloop
  endfacet
  facet normal -0 -0 1
    outer loop
      vertex -10 15.5 5
      vertex -3.39919 10.4616 5
      vertex -10.1874 16.9235 5
    endloop
  endfacet
  facet normal -0 0 1
    outer loop
      vertex -10.1874 14.0765 5
      vertex -3.39919 10.4616 5
      vertex -10 15.5 5
    endloop
  endfacet
  facet normal 0 0 1
    outer loop
      vertex -1.14981 10.9397 5
      vertex -10.1874 16.9235 5
      vertex -3.39919 10.4616 5
    endloop
  endfacet
  facet normal 0 0 1
    outer loop
      vertex 11.6109 19.3891 5
      vertex -11.6109 19.3891 5
      vertex -10.7369 18.25 5
    endloop
  endfacet
  facet normal 0 0 1
    outer loop
      vertex 12.75 20.2631 5
      vertex -12.75 20.2631 5
      vertex -11.6109 19.3891 5
    endloop
  endfacet
  facet normal 0 0 1
    outer loop
      vertex 12.75 20.2631 5
      vertex -14.0765 20.8126 5
      vertex -12.75 20.2631 5
    endloop
  endfacet
  facet normal -0 0 1
    outer loop
      vertex -24.5 27.5 5
      vertex -14.0765 20.8126 5
      vertex 24.5 27.5 5
    endloop
  endfacet
  facet normal 0 0 1
    outer loop
      vertex -14.0765 20.8126 5
      vertex -24.5 27.5 5
      vertex -15.5 21 5
    endloop
  endfacet
  facet normal 0 0 1
    outer loop
      vertex -20.8126 16.9235 5
      vertex -27.5 24.5 5
      vertex -21 15.5 5
    endloop
  endfacet
  facet normal 0 0 1
    outer loop
      vertex -20.2631 18.25 5
      vertex -27.5 24.5 5
      vertex -20.8126 16.9235 5
    endloop
  endfacet
  facet normal 0 0 1
    outer loop
      vertex -19.3891 19.3891 5
      vertex -27.5 24.5 5
      vertex -20.2631 18.25 5
    endloop
  endfacet
  facet normal -0 0 1
    outer loop
      vertex -27.5 24.5 5
      vertex -19.3891 19.3891 5
      vertex -24.5 27.5 5
    endloop
  endfacet
  facet normal 0 0 1
    outer loop
      vertex -18.25 20.2631 5
      vertex -24.5 27.5 5
      vertex -19.3891 19.3891 5
    endloop
  endfacet
  facet normal 0 0 1
    outer loop
      vertex -16.9235 20.8126 5
      vertex -24.5 27.5 5
      vertex -18.25 20.2631 5
    endloop
  endfacet
  facet normal 0 0 1
    outer loop
      vertex -15.5 21 5
      vertex -24.5 27.5 5
      vertex -16.9235 20.8126 5
    endloop
  endfacet
  facet normal -0 0 1
    outer loop
      vertex 19.3891 -19.3891 5
      vertex 27.5 -24.5 5
      vertex 20.2631 -18.25 5
    endloop
  endfacet
  facet normal 0 -0 1
    outer loop
      vertex 24.5 -27.5 5
      vertex 27.5 -24.5 5
      vertex 19.3891 -19.3891 5
    endloop
  endfacet
  facet normal 0 0 1
    outer loop
      vertex 27.5 -24.5 5
      vertex 24.5 -27.5 5
      vertex 27.0981 -26 5
    endloop
  endfacet
  facet normal 0 0 1
    outer loop
      vertex 27.0981 -26 5
      vertex 24.5 -27.5 5
      vertex 26 -27.0981 5
    endloop
  endfacet
  facet normal -0 0 1
    outer loop
      vertex 18.25 -20.2631 5
      vertex 24.5 -27.5 5
      vertex 19.3891 -19.3891 5
    endloop
  endfacet
  facet normal -0 0 1
    outer loop
      vertex 16.9235 -20.8126 5
      vertex 24.5 -27.5 5
      vertex 18.25 -20.2631 5
    endloop
  endfacet
  facet normal -0 0 1
    outer loop
      vertex 15.5 -21 5
      vertex 24.5 -27.5 5
      vertex 16.9235 -20.8126 5
    endloop
  endfacet
  facet normal 0 0 1
    outer loop
      vertex 14.0765 -20.8126 5
      vertex 24.5 -27.5 5
      vertex 15.5 -21 5
    endloop
  endfacet
  facet normal 0 0 1
    outer loop
      vertex -14.0765 -20.8126 5
      vertex 14.0765 -20.8126 5
      vertex 12.75 -20.2631 5
    endloop
  endfacet
  facet normal 0 0 1
    outer loop
      vertex 10.7369 -12.75 5
      vertex 5.5 -9.52628 5
      vertex 10.1874 -14.0765 5
    endloop
  endfacet
  facet normal -0 0 1
    outer loop
      vertex 3.39919 -10.4616 5
      vertex 10.1874 -14.0765 5
      vertex 5.5 -9.52628 5
    endloop
  endfacet
  facet normal 0 0 1
    outer loop
      vertex 10.1874 -14.0765 5
      vertex 3.39919 -10.4616 5
      vertex 10 -15.5 5
    endloop
  endfacet
  facet normal 0 0 1
    outer loop
      vertex 10 -15.5 5
      vertex 3.39919 -10.4616 5
      vertex 10.1874 -16.9235 5
    endloop
  endfacet
  facet normal -0 0 1
    outer loop
      vertex 1.14981 -10.9397 5
      vertex 10.1874 -16.9235 5
      vertex 3.39919 -10.4616 5
    endloop
  endfacet
  facet normal 0 0 1
    outer loop
      vertex 10.1874 -16.9235 5
      vertex 1.14981 -10.9397 5
      vertex 10.7369 -18.25 5
    endloop
  endfacet
  facet normal 0 0 1
    outer loop
      vertex -10.7369 -18.25 5
      vertex 10.7369 -18.25 5
      vertex 1.14981 -10.9397 5
    endloop
  endfacet
  facet normal 0 0 1
    outer loop
      vertex -10.7369 -18.25 5
      vertex 1.14981 -10.9397 5
      vertex -1.14981 -10.9397 5
    endloop
  endfacet
  facet normal 0 0 1
    outer loop
      vertex 10.7369 -18.25 5
      vertex -10.7369 -18.25 5
      vertex 11.6109 -19.3891 5
    endloop
  endfacet
  facet normal 0 0 1
    outer loop
      vertex -10.1874 -16.9235 5
      vertex -1.14981 -10.9397 5
      vertex -3.39919 -10.4616 5
    endloop
  endfacet
  facet normal 0 0 1
    outer loop
      vertex -10.7369 -18.25 5
      vertex -1.14981 -10.9397 5
      vertex -10.1874 -16.9235 5
    endloop
  endfacet
  facet normal 0 0 1
    outer loop
      vertex -10 -15.5 5
      vertex -3.39919 -10.4616 5
      vertex -5.5 -9.52628 5
    endloop
  endfacet
  facet normal 0 0 1
    outer loop
      vertex -10 -15.5 5
      vertex -7.36044 -8.17459 5
      vertex -8.89919 -6.46564 5
    endloop
  endfacet
  facet normal 0 0 1
    outer loop
      vertex -10 -15.5 5
      vertex -5.5 -9.52628 5
      vertex -7.36044 -8.17459 5
    endloop
  endfacet
  facet normal 0 0 1
    outer loop
      vertex -3.39919 -10.4616 5
      vertex -10 -15.5 5
      vertex -10.1874 -16.9235 5
    endloop
  endfacet
  facet normal 0 0 1
    outer loop
      vertex -11.6109 -19.3891 5
      vertex 11.6109 -19.3891 5
      vertex -10.7369 -18.25 5
    endloop
  endfacet
  facet normal 0 0 1
    outer loop
      vertex 11.6109 -19.3891 5
      vertex -11.6109 -19.3891 5
      vertex 12.75 -20.2631 5
    endloop
  endfacet
  facet normal 0 0 1
    outer loop
      vertex -12.75 -20.2631 5
      vertex 12.75 -20.2631 5
      vertex -11.6109 -19.3891 5
    endloop
  endfacet
  facet normal 0 0 1
    outer loop
      vertex -14.0765 -20.8126 5
      vertex 12.75 -20.2631 5
      vertex -12.75 -20.2631 5
    endloop
  endfacet
  facet normal 0 0 1
    outer loop
      vertex 14.0765 -20.8126 5
      vertex -14.0765 -20.8126 5
      vertex 24.5 -27.5 5
    endloop
  endfacet
  facet normal 0 0 1
    outer loop
      vertex -24.5 -27.5 5
      vertex -14.0765 -20.8126 5
      vertex -15.5 -21 5
    endloop
  endfacet
  facet normal 0 0 1
    outer loop
      vertex -24.5 -27.5 5
      vertex -15.5 -21 5
      vertex -16.9235 -20.8126 5
    endloop
  endfacet
  facet normal 0 0 1
    outer loop
      vertex -14.0765 -20.8126 5
      vertex -24.5 -27.5 5
      vertex 24.5 -27.5 5
    endloop
  endfacet
  facet normal 0 0 1
    outer loop
      vertex -18.25 -20.2631 5
      vertex -24.5 -27.5 5
      vertex -16.9235 -20.8126 5
    endloop
  endfacet
  facet normal 0 0 1
    outer loop
      vertex -19.3891 -19.3891 5
      vertex -24.5 -27.5 5
      vertex -18.25 -20.2631 5
    endloop
  endfacet
  facet normal 0 0 1
    outer loop
      vertex -27.5 -24.5 5
      vertex -19.3891 -19.3891 5
      vertex -20.2631 -18.25 5
    endloop
  endfacet
  facet normal 0 0 1
    outer loop
      vertex -27.5 -24.5 5
      vertex -20.2631 -18.25 5
      vertex -20.8126 -16.9235 5
    endloop
  endfacet
  facet normal 0 0 1
    outer loop
      vertex -27.5 -24.5 5
      vertex -20.8126 -16.9235 5
      vertex -21 -15.5 5
    endloop
  endfacet
  facet normal 0 0 1
    outer loop
      vertex -27.5 -24.5 5
      vertex -20.8126 -14.0765 5
      vertex -27.5 24.5 5
    endloop
  endfacet
  facet normal 0 0 1
    outer loop
      vertex -27.5 24.5 5
      vertex -24.5 27.5 5
      vertex -26 27.0981 5
    endloop
  endfacet
  facet normal 0 0 1
    outer loop
      vertex -20.8126 -14.0765 5
      vertex -27.5 -24.5 5
      vertex -21 -15.5 5
    endloop
  endfacet
  facet normal 0 0 1
    outer loop
      vertex -27.5 24.5 5
      vertex -26 27.0981 5
      vertex -27.0981 26 5
    endloop
  endfacet
  facet normal 0 0 1
    outer loop
      vertex -19.3891 -19.3891 5
      vertex -27.5 -24.5 5
      vertex -24.5 -27.5 5
    endloop
  endfacet
  facet normal 0 0 1
    outer loop
      vertex -24.5 -27.5 5
      vertex -27.5 -24.5 5
      vertex -26 -27.0981 5
    endloop
  endfacet
  facet normal 0 0 1
    outer loop
      vertex -26 -27.0981 5
      vertex -27.5 -24.5 5
      vertex -27.0981 -26 5
    endloop
  endfacet
  facet normal -0 0 1
    outer loop
      vertex 8.89919 -6.46564 5
      vertex 14.0765 -10.1874 5
      vertex 10.049 -4.4741 5
    endloop
  endfacet
  facet normal 0 0 1
    outer loop
      vertex 14.0765 -10.1874 5
      vertex 8.89919 -6.46564 5
      vertex 12.75 -10.7369 5
    endloop
  endfacet
  facet normal 0 0 1
    outer loop
      vertex 12.75 -10.7369 5
      vertex 8.89919 -6.46564 5
      vertex 11.6109 -11.6109 5
    endloop
  endfacet
  facet normal -0 0 1
    outer loop
      vertex 7.36044 -8.17459 5
      vertex 11.6109 -11.6109 5
      vertex 8.89919 -6.46564 5
    endloop
  endfacet
  facet normal 0 0 1
    outer loop
      vertex 11.6109 -11.6109 5
      vertex 7.36044 -8.17459 5
      vertex 10.7369 -12.75 5
    endloop
  endfacet
  facet normal -0 0 1
    outer loop
      vertex 5.5 -9.52628 5
      vertex 10.7369 -12.75 5
      vertex 7.36044 -8.17459 5
    endloop
  endfacet
  facet normal -0.258819 -0.965926 0
    outer loop
      vertex -26 -27.0981 0
      vertex -24.5 -27.5 5
      vertex -26 -27.0981 5
    endloop
  endfacet
  facet normal -0.258819 -0.965926 -0
    outer loop
      vertex -24.5 -27.5 5
      vertex -26 -27.0981 0
      vertex -24.5 -27.5 0
    endloop
  endfacet
  facet normal 0.707106 -0.707107 0
    outer loop
      vertex 26 -27.0981 0
      vertex 27.0981 -26 5
      vertex 26 -27.0981 5
    endloop
  endfacet
  facet normal 0.707106 -0.707107 0
    outer loop
      vertex 27.0981 -26 5
      vertex 26 -27.0981 0
      vertex 27.0981 -26 0
    endloop
  endfacet
  facet normal 0 -1 0
    outer loop
      vertex -24.5 -27.5 0
      vertex 24.5 -27.5 5
      vertex -24.5 -27.5 5
    endloop
  endfacet
  facet normal 0 -1 -0
    outer loop
      vertex 24.5 -27.5 5
      vertex -24.5 -27.5 0
      vertex 24.5 -27.5 0
    endloop
  endfacet
  facet normal -0.707107 -0.707106 0
    outer loop
      vertex -26 -27.0981 0
      vertex -27.0981 -26 5
      vertex -27.0981 -26 0
    endloop
  endfacet
  facet normal -0.707107 -0.707106 0
    outer loop
      vertex -27.0981 -26 5
      vertex -26 -27.0981 0
      vertex -26 -27.0981 5
    endloop
  endfacet
  facet normal -0.965926 -0.25882 0
    outer loop
      vertex -27.0981 -26 0
      vertex -27.5 -24.5 5
      vertex -27.5 -24.5 0
    endloop
  endfacet
  facet normal -0.965926 -0.25882 0
    outer loop
      vertex -27.5 -24.5 5
      vertex -27.0981 -26 0
      vertex -27.0981 -26 5
    endloop
  endfacet
  facet normal -1 0 0
    outer loop
      vertex -27.5 -24.5 0
      vertex -27.5 24.5 5
      vertex -27.5 24.5 0
    endloop
  endfacet
  facet normal -1 -0 0
    outer loop
      vertex -27.5 24.5 5
      vertex -27.5 -24.5 0
      vertex -27.5 -24.5 5
    endloop
  endfacet
  facet normal -0.965926 0.258819 0
    outer loop
      vertex -27.5 24.5 0
      vertex -27.0981 26 5
      vertex -27.0981 26 0
    endloop
  endfacet
  facet normal -0.965926 0.258819 0
    outer loop
      vertex -27.0981 26 5
      vertex -27.5 24.5 0
      vertex -27.5 24.5 5
    endloop
  endfacet
  facet normal 0.25882 -0.965926 0
    outer loop
      vertex 24.5 -27.5 0
      vertex 26 -27.0981 5
      vertex 24.5 -27.5 5
    endloop
  endfacet
  facet normal 0.25882 -0.965926 0
    outer loop
      vertex 26 -27.0981 5
      vertex 24.5 -27.5 0
      vertex 26 -27.0981 0
    endloop
  endfacet
  facet normal 1 -0 0
    outer loop
      vertex 27.5 -24.5 5
      vertex 27.5 24.5 0
      vertex 27.5 24.5 5
    endloop
  endfacet
  facet normal 1 0 0
    outer loop
      vertex 27.5 24.5 0
      vertex 27.5 -24.5 5
      vertex 27.5 -24.5 0
    endloop
  endfacet
  facet normal 0.258819 0.965926 -0
    outer loop
      vertex 26 27.0981 0
      vertex 24.5 27.5 5
      vertex 26 27.0981 5
    endloop
  endfacet
  facet normal 0.258819 0.965926 0
    outer loop
      vertex 24.5 27.5 5
      vertex 26 27.0981 0
      vertex 24.5 27.5 0
    endloop
  endfacet
  facet normal 0.707107 0.707107 0
    outer loop
      vertex 27.0981 26 5
      vertex 26 27.0981 0
      vertex 26 27.0981 5
    endloop
  endfacet
  facet normal 0.707107 0.707107 0
    outer loop
      vertex 26 27.0981 0
      vertex 27.0981 26 5
      vertex 27.0981 26 0
    endloop
  endfacet
  facet normal 0.965926 0.258819 0
    outer loop
      vertex 27.5 24.5 5
      vertex 27.0981 26 0
      vertex 27.0981 26 5
    endloop
  endfacet
  facet normal 0.965926 0.258819 0
    outer loop
      vertex 27.0981 26 0
      vertex 27.5 24.5 5
      vertex 27.5 24.5 0
    endloop
  endfacet
  facet normal 0.951057 -0.309017 0
    outer loop
      vertex -10.7596 2.28703 5
      vertex -10.049 4.4741 0
      vertex -10.049 4.4741 5
    endloop
  endfacet
  facet normal 0.951057 -0.309017 0
    outer loop
      vertex -10.049 4.4741 0
      vertex -10.7596 2.28703 5
      vertex -10.7596 2.28703 0
    endloop
  endfacet
  facet normal -0.866025 -0.5 0
    outer loop
      vertex 10.049 4.4741 0
      vertex 8.89919 6.46564 5
      vertex 8.89919 6.46564 0
    endloop
  endfacet
  facet normal -0.866025 -0.5 0
    outer loop
      vertex 8.89919 6.46564 5
      vertex 10.049 4.4741 0
      vertex 10.049 4.4741 5
    endloop
  endfacet
  facet normal -0.951057 -0.309017 0
    outer loop
      vertex 10.7596 2.28703 0
      vertex 10.049 4.4741 5
      vertex 10.049 4.4741 0
    endloop
  endfacet
  facet normal -0.951057 -0.309017 0
    outer loop
      vertex 10.049 4.4741 5
      vertex 10.7596 2.28703 0
      vertex 10.7596 2.28703 5
    endloop
  endfacet
  facet normal -0.207912 -0.978148 0
    outer loop
      vertex 1.14981 10.9397 0
      vertex 3.39919 10.4616 5
      vertex 1.14981 10.9397 5
    endloop
  endfacet
  facet normal -0.207912 -0.978148 -0
    outer loop
      vertex 3.39919 10.4616 5
      vertex 1.14981 10.9397 0
      vertex 3.39919 10.4616 0
    endloop
  endfacet
  facet normal -0.406737 -0.913545 0
    outer loop
      vertex 3.39919 10.4616 0
      vertex 5.5 9.52628 5
      vertex 3.39919 10.4616 5
    endloop
  endfacet
  facet normal -0.406737 -0.913545 -0
    outer loop
      vertex 5.5 9.52628 5
      vertex 3.39919 10.4616 0
      vertex 5.5 9.52628 0
    endloop
  endfacet
  facet normal 0.207912 -0.978148 0
    outer loop
      vertex -3.39919 10.4616 0
      vertex -1.14981 10.9397 5
      vertex -3.39919 10.4616 5
    endloop
  endfacet
  facet normal 0.207912 -0.978148 0
    outer loop
      vertex -1.14981 10.9397 5
      vertex -3.39919 10.4616 0
      vertex -1.14981 10.9397 0
    endloop
  endfacet
  facet normal 0.866025 -0.5 0
    outer loop
      vertex -10.049 4.4741 5
      vertex -8.89919 6.46564 0
      vertex -8.89919 6.46564 5
    endloop
  endfacet
  facet normal 0.866025 -0.5 0
    outer loop
      vertex -8.89919 6.46564 0
      vertex -10.049 4.4741 5
      vertex -10.049 4.4741 0
    endloop
  endfacet
  facet normal -0.994522 0.104529 0
    outer loop
      vertex 10.7596 -2.28703 0
      vertex 11 0 5
      vertex 11 0 0
    endloop
  endfacet
  facet normal -0.994522 0.104529 0
    outer loop
      vertex 11 0 5
      vertex 10.7596 -2.28703 0
      vertex 10.7596 -2.28703 5
    endloop
  endfacet
  facet normal -0.743145 -0.66913 0
    outer loop
      vertex 8.89919 6.46564 0
      vertex 7.36044 8.17459 5
      vertex 7.36044 8.17459 0
    endloop
  endfacet
  facet normal -0.743145 -0.66913 0
    outer loop
      vertex 7.36044 8.17459 5
      vertex 8.89919 6.46564 0
      vertex 8.89919 6.46564 5
    endloop
  endfacet
  facet normal 0 -1 0
    outer loop
      vertex -1.14981 10.9397 0
      vertex 1.14981 10.9397 5
      vertex -1.14981 10.9397 5
    endloop
  endfacet
  facet normal 0 -1 -0
    outer loop
      vertex 1.14981 10.9397 5
      vertex -1.14981 10.9397 0
      vertex 1.14981 10.9397 0
    endloop
  endfacet
  facet normal -0.587785 -0.809017 0
    outer loop
      vertex 5.5 9.52628 0
      vertex 7.36044 8.17459 5
      vertex 5.5 9.52628 5
    endloop
  endfacet
  facet normal -0.587785 -0.809017 -0
    outer loop
      vertex 7.36044 8.17459 5
      vertex 5.5 9.52628 0
      vertex 7.36044 8.17459 0
    endloop
  endfacet
  facet normal 0.994522 -0.104529 0
    outer loop
      vertex -11 0 5
      vertex -10.7596 2.28703 0
      vertex -10.7596 2.28703 5
    endloop
  endfacet
  facet normal 0.994522 -0.104529 0
    outer loop
      vertex -10.7596 2.28703 0
      vertex -11 0 5
      vertex -11 0 0
    endloop
  endfacet
  facet normal 0.743145 -0.66913 0
    outer loop
      vertex -8.89919 6.46564 5
      vertex -7.36044 8.17459 0
      vertex -7.36044 8.17459 5
    endloop
  endfacet
  facet normal 0.743145 -0.66913 0
    outer loop
      vertex -7.36044 8.17459 0
      vertex -8.89919 6.46564 5
      vertex -8.89919 6.46564 0
    endloop
  endfacet
  facet normal 0.406737 -0.913545 0
    outer loop
      vertex -5.5 9.52628 0
      vertex -3.39919 10.4616 5
      vertex -5.5 9.52628 5
    endloop
  endfacet
  facet normal 0.406737 -0.913545 0
    outer loop
      vertex -3.39919 10.4616 5
      vertex -5.5 9.52628 0
      vertex -3.39919 10.4616 0
    endloop
  endfacet
  facet normal 0.587785 -0.809017 0
    outer loop
      vertex -7.36044 8.17459 0
      vertex -5.5 9.52628 5
      vertex -7.36044 8.17459 5
    endloop
  endfacet
  facet normal 0.587785 -0.809017 0
    outer loop
      vertex -5.5 9.52628 5
      vertex -7.36044 8.17459 0
      vertex -5.5 9.52628 0
    endloop
  endfacet
  facet normal -0.994522 -0.104529 0
    outer loop
      vertex 11 0 0
      vertex 10.7596 2.28703 5
      vertex 10.7596 2.28703 0
    endloop
  endfacet
  facet normal -0.994522 -0.104529 0
    outer loop
      vertex 10.7596 2.28703 5
      vertex 11 0 0
      vertex 11 0 5
    endloop
  endfacet
  facet normal -0.951057 0.309017 0
    outer loop
      vertex 10.049 -4.4741 0
      vertex 10.7596 -2.28703 5
      vertex 10.7596 -2.28703 0
    endloop
  endfacet
  facet normal -0.951057 0.309017 0
    outer loop
      vertex 10.7596 -2.28703 5
      vertex 10.049 -4.4741 0
      vertex 10.049 -4.4741 5
    endloop
  endfacet
  facet normal 0.587785 0.809017 -0
    outer loop
      vertex -5.5 -9.52628 0
      vertex -7.36044 -8.17459 5
      vertex -5.5 -9.52628 5
    endloop
  endfacet
  facet normal 0.587785 0.809017 0
    outer loop
      vertex -7.36044 -8.17459 5
      vertex -5.5 -9.52628 0
      vertex -7.36044 -8.17459 0
    endloop
  endfacet
  facet normal 0.866025 0.5 0
    outer loop
      vertex -8.89919 -6.46564 5
      vertex -10.049 -4.4741 0
      vertex -10.049 -4.4741 5
    endloop
  endfacet
  facet normal 0.866025 0.5 0
    outer loop
      vertex -10.049 -4.4741 0
      vertex -8.89919 -6.46564 5
      vertex -8.89919 -6.46564 0
    endloop
  endfacet
  facet normal 0.994522 0.104529 0
    outer loop
      vertex -10.7596 -2.28703 5
      vertex -11 0 0
      vertex -11 0 5
    endloop
  endfacet
  facet normal 0.994522 0.104529 0
    outer loop
      vertex -11 0 0
      vertex -10.7596 -2.28703 5
      vertex -10.7596 -2.28703 0
    endloop
  endfacet
  facet normal 0.743145 0.66913 0
    outer loop
      vertex -7.36044 -8.17459 5
      vertex -8.89919 -6.46564 0
      vertex -8.89919 -6.46564 5
    endloop
  endfacet
  facet normal 0.743145 0.66913 0
    outer loop
      vertex -8.89919 -6.46564 0
      vertex -7.36044 -8.17459 5
      vertex -7.36044 -8.17459 0
    endloop
  endfacet
  facet normal -0.207912 0.978148 0
    outer loop
      vertex 3.39919 -10.4616 0
      vertex 1.14981 -10.9397 5
      vertex 3.39919 -10.4616 5
    endloop
  endfacet
  facet normal -0.207912 0.978148 0
    outer loop
      vertex 1.14981 -10.9397 5
      vertex 3.39919 -10.4616 0
      vertex 1.14981 -10.9397 0
    endloop
  endfacet
  facet normal -0.406737 0.913545 0
    outer loop
      vertex 5.5 -9.52628 0
      vertex 3.39919 -10.4616 5
      vertex 5.5 -9.52628 5
    endloop
  endfacet
  facet normal -0.406737 0.913545 0
    outer loop
      vertex 3.39919 -10.4616 5
      vertex 5.5 -9.52628 0
      vertex 3.39919 -10.4616 0
    endloop
  endfacet
  facet normal -0.743145 0.66913 0
    outer loop
      vertex 7.36044 -8.17459 0
      vertex 8.89919 -6.46564 5
      vertex 8.89919 -6.46564 0
    endloop
  endfacet
  facet normal -0.743145 0.66913 0
    outer loop
      vertex 8.89919 -6.46564 5
      vertex 7.36044 -8.17459 0
      vertex 7.36044 -8.17459 5
    endloop
  endfacet
  facet normal -0.587785 0.809017 0
    outer loop
      vertex 7.36044 -8.17459 0
      vertex 5.5 -9.52628 5
      vertex 7.36044 -8.17459 5
    endloop
  endfacet
  facet normal -0.587785 0.809017 0
    outer loop
      vertex 5.5 -9.52628 5
      vertex 7.36044 -8.17459 0
      vertex 5.5 -9.52628 0
    endloop
  endfacet
  facet normal -0.866025 0.5 0
    outer loop
      vertex 8.89919 -6.46564 0
      vertex 10.049 -4.4741 5
      vertex 10.049 -4.4741 0
    endloop
  endfacet
  facet normal -0.866025 0.5 0
    outer loop
      vertex 10.049 -4.4741 5
      vertex 8.89919 -6.46564 0
      vertex 8.89919 -6.46564 5
    endloop
  endfacet
  facet normal 0 1 -0
    outer loop
      vertex 1.14981 -10.9397 0
      vertex -1.14981 -10.9397 5
      vertex 1.14981 -10.9397 5
    endloop
  endfacet
  facet normal 0 1 0
    outer loop
      vertex -1.14981 -10.9397 5
      vertex 1.14981 -10.9397 0
      vertex -1.14981 -10.9397 0
    endloop
  endfacet
  facet normal 0.207912 0.978148 -0
    outer loop
      vertex -1.14981 -10.9397 0
      vertex -3.39919 -10.4616 5
      vertex -1.14981 -10.9397 5
    endloop
  endfacet
  facet normal 0.207912 0.978148 0
    outer loop
      vertex -3.39919 -10.4616 5
      vertex -1.14981 -10.9397 0
      vertex -3.39919 -10.4616 0
    endloop
  endfacet
  facet normal 0.951057 0.309017 0
    outer loop
      vertex -10.049 -4.4741 5
      vertex -10.7596 -2.28703 0
      vertex -10.7596 -2.28703 5
    endloop
  endfacet
  facet normal 0.951057 0.309017 0
    outer loop
      vertex -10.7596 -2.28703 0
      vertex -10.049 -4.4741 5
      vertex -10.049 -4.4741 0
    endloop
  endfacet
  facet normal 0.406737 0.913545 -0
    outer loop
      vertex -3.39919 -10.4616 0
      vertex -5.5 -9.52628 5
      vertex -3.39919 -10.4616 5
    endloop
  endfacet
  facet normal 0.406737 0.913545 0
    outer loop
      vertex -5.5 -9.52628 5
      vertex -3.39919 -10.4616 0
      vertex -5.5 -9.52628 0
    endloop
  endfacet
endsolid OpenSCAD_Model
